<svg width="268" height="96" fill="none" xmlns="http://www.w3.org/2000/svg"><path d="M117.008 77V68.1758H118.027V77H117.008ZM127.508 77V70.6836H128.527V77H127.508ZM128.023 69.4648C127.832 69.4648 127.666 69.3965 127.525 69.2598C127.389 69.1191 127.32 68.9531 127.32 68.7617C127.32 68.5664 127.389 68.4004 127.525 68.2637C127.666 68.127 127.832 68.0586 128.023 68.0586C128.219 68.0586 128.385 68.127 128.521 68.2637C128.658 68.4004 128.727 68.5664 128.727 68.7617C128.727 68.9531 128.658 69.1191 128.521 69.2598C128.385 69.3965 128.219 69.4648 128.023 69.4648ZM138.371 77V71.5273H137.322V70.6836H138.371V69.9805C138.371 69.3516 138.527 68.8848 138.84 68.5801C139.152 68.2715 139.607 68.1172 140.205 68.1172C140.33 68.1172 140.447 68.123 140.557 68.1348C140.67 68.1426 140.779 68.1562 140.885 68.1758V68.9902C140.822 68.9785 140.75 68.9707 140.668 68.9668C140.586 68.9629 140.5 68.9609 140.41 68.9609C140.047 68.9609 139.785 69.0488 139.625 69.2246C139.469 69.4004 139.391 69.6621 139.391 70.0098V70.6836H140.826V71.5273H139.391V77H138.371ZM152.117 77.1113C151.516 77.1113 150.998 76.9785 150.564 76.7129C150.135 76.4473 149.803 76.0723 149.568 75.5879C149.338 75.0996 149.223 74.5254 149.223 73.8652V73.8594C149.223 73.207 149.338 72.6348 149.568 72.1426C149.803 71.6504 150.133 71.2656 150.559 70.9883C150.984 70.7109 151.482 70.5723 152.053 70.5723C152.627 70.5723 153.119 70.7051 153.529 70.9707C153.943 71.2363 154.26 71.6074 154.479 72.084C154.701 72.5566 154.812 73.1074 154.812 73.7363V74.1348H149.75V73.3203H154.291L153.787 74.0645V73.6602C153.787 73.1641 153.713 72.7559 153.564 72.4355C153.416 72.1152 153.211 71.877 152.949 71.7207C152.688 71.5605 152.387 71.4805 152.047 71.4805C151.707 71.4805 151.402 71.5645 151.133 71.7324C150.867 71.8965 150.656 72.1406 150.5 72.4648C150.344 72.7891 150.266 73.1875 150.266 73.6602V74.0645C150.266 74.5137 150.342 74.8984 150.494 75.2188C150.646 75.5352 150.863 75.7793 151.145 75.9512C151.426 76.1191 151.758 76.2031 152.141 76.2031C152.426 76.2031 152.674 76.1641 152.885 76.0859C153.096 76.0078 153.27 75.9082 153.406 75.7871C153.543 75.666 153.639 75.543 153.693 75.418L153.717 75.3652H154.736L154.725 75.4121C154.67 75.627 154.572 75.8359 154.432 76.0391C154.295 76.2383 154.117 76.4199 153.898 76.584C153.68 76.7441 153.42 76.873 153.119 76.9707C152.822 77.0645 152.488 77.1113 152.117 77.1113ZM177.371 79.2266C176.863 79.2266 176.42 79.1543 176.041 79.0098C175.662 78.8691 175.359 78.668 175.133 78.4062C174.91 78.1484 174.771 77.8477 174.717 77.5039L174.729 77.498H175.783L175.789 77.5039C175.844 77.7422 176.008 77.9375 176.281 78.0898C176.555 78.2461 176.918 78.3242 177.371 78.3242C177.938 78.3242 178.379 78.1953 178.695 77.9375C179.016 77.6836 179.176 77.3242 179.176 76.8594V75.582H179.082C178.949 75.8125 178.783 76.0098 178.584 76.1738C178.385 76.3379 178.16 76.4629 177.91 76.5488C177.66 76.6309 177.391 76.6719 177.102 76.6719C176.559 76.6719 176.088 76.543 175.689 76.2852C175.295 76.0234 174.99 75.6641 174.775 75.207C174.561 74.75 174.453 74.2266 174.453 73.6367V73.625C174.453 73.0352 174.561 72.5117 174.775 72.0547C174.994 71.5938 175.303 71.2324 175.701 70.9707C176.1 70.7051 176.574 70.5723 177.125 70.5723C177.422 70.5723 177.695 70.6191 177.945 70.7129C178.195 70.8066 178.416 70.9395 178.607 71.1113C178.803 71.2832 178.965 71.4883 179.094 71.7266H179.164V70.6836H180.184V76.9121C180.184 77.3809 180.068 77.7891 179.838 78.1367C179.611 78.4844 179.287 78.752 178.865 78.9395C178.443 79.1309 177.945 79.2266 177.371 79.2266ZM177.324 75.7695C177.715 75.7695 178.049 75.6797 178.326 75.5C178.607 75.3164 178.822 75.0645 178.971 74.7441C179.123 74.4238 179.199 74.0547 179.199 73.6367V73.625C179.199 73.207 179.123 72.8359 178.971 72.5117C178.822 72.1875 178.607 71.9336 178.326 71.75C178.049 71.5664 177.715 71.4746 177.324 71.4746C176.934 71.4746 176.602 71.5664 176.328 71.75C176.059 71.9336 175.852 72.1875 175.707 72.5117C175.566 72.8359 175.496 73.207 175.496 73.625V73.6367C175.496 74.0547 175.566 74.4238 175.707 74.7441C175.852 75.0645 176.059 75.3164 176.328 75.5C176.602 75.6797 176.934 75.7695 177.324 75.7695ZM192.178 77.1113C191.58 77.1113 191.062 76.9805 190.625 76.7188C190.191 76.4531 189.855 76.0762 189.617 75.5879C189.383 75.0996 189.266 74.5195 189.266 73.8477V73.8359C189.266 73.1602 189.383 72.5781 189.617 72.0898C189.855 71.6016 190.191 71.2266 190.625 70.9648C191.062 70.7031 191.58 70.5723 192.178 70.5723C192.779 70.5723 193.297 70.7031 193.73 70.9648C194.164 71.2266 194.498 71.6016 194.732 72.0898C194.971 72.5781 195.09 73.1602 195.09 73.8359V73.8477C195.09 74.5195 194.971 75.0996 194.732 75.5879C194.498 76.0762 194.164 76.4531 193.73 76.7188C193.297 76.9805 192.779 77.1113 192.178 77.1113ZM192.178 76.209C192.576 76.209 192.914 76.1152 193.191 75.9277C193.469 75.7402 193.68 75.4707 193.824 75.1191C193.973 74.7676 194.047 74.3438 194.047 73.8477V73.8359C194.047 73.3359 193.973 72.9102 193.824 72.5586C193.68 72.207 193.469 71.9395 193.191 71.7559C192.914 71.5684 192.576 71.4746 192.178 71.4746C191.779 71.4746 191.441 71.5684 191.164 71.7559C190.887 71.9395 190.674 72.207 190.525 72.5586C190.381 72.9102 190.309 73.3359 190.309 73.8359V73.8477C190.309 74.3438 190.381 74.7676 190.525 75.1191C190.674 75.4707 190.887 75.7402 191.164 75.9277C191.441 76.1152 191.779 76.209 192.178 76.209ZM206.75 77.1113C206.148 77.1113 205.631 76.9785 205.197 76.7129C204.768 76.4473 204.436 76.0723 204.201 75.5879C203.971 75.0996 203.855 74.5254 203.855 73.8652V73.8594C203.855 73.207 203.971 72.6348 204.201 72.1426C204.436 71.6504 204.766 71.2656 205.191 70.9883C205.617 70.7109 206.115 70.5723 206.686 70.5723C207.26 70.5723 207.752 70.7051 208.162 70.9707C208.576 71.2363 208.893 71.6074 209.111 72.084C209.334 72.5566 209.445 73.1074 209.445 73.7363V74.1348H204.383V73.3203H208.924L208.42 74.0645V73.6602C208.42 73.1641 208.346 72.7559 208.197 72.4355C208.049 72.1152 207.844 71.877 207.582 71.7207C207.32 71.5605 207.02 71.4805 206.68 71.4805C206.34 71.4805 206.035 71.5645 205.766 71.7324C205.5 71.8965 205.289 72.1406 205.133 72.4648C204.977 72.7891 204.898 73.1875 204.898 73.6602V74.0645C204.898 74.5137 204.975 74.8984 205.127 75.2188C205.279 75.5352 205.496 75.7793 205.777 75.9512C206.059 76.1191 206.391 76.2031 206.773 76.2031C207.059 76.2031 207.307 76.1641 207.518 76.0859C207.729 76.0078 207.902 75.9082 208.039 75.7871C208.176 75.666 208.271 75.543 208.326 75.418L208.35 75.3652H209.369L209.357 75.4121C209.303 75.627 209.205 75.8359 209.064 76.0391C208.928 76.2383 208.75 76.4199 208.531 76.584C208.312 76.7441 208.053 76.873 207.752 76.9707C207.455 77.0645 207.121 77.1113 206.75 77.1113ZM220.695 77.1113C220.227 77.1113 219.812 77.041 219.453 76.9004C219.094 76.7559 218.805 76.5547 218.586 76.2969C218.371 76.0391 218.244 75.7363 218.205 75.3887H219.248C219.334 75.6504 219.502 75.8613 219.752 76.0215C220.002 76.1816 220.328 76.2617 220.73 76.2617C221.016 76.2617 221.266 76.2207 221.48 76.1387C221.699 76.0527 221.871 75.9375 221.996 75.793C222.121 75.6445 222.184 75.4746 222.184 75.2832V75.2715C222.184 75.0566 222.098 74.875 221.926 74.7266C221.754 74.5742 221.473 74.4512 221.082 74.3574L220.104 74.123C219.514 73.9824 219.08 73.7773 218.803 73.5078C218.525 73.2344 218.387 72.8711 218.387 72.418V72.4121C218.387 72.0605 218.488 71.7461 218.691 71.4688C218.898 71.1914 219.18 70.9727 219.535 70.8125C219.891 70.6523 220.291 70.5723 220.736 70.5723C221.178 70.5723 221.568 70.6426 221.908 70.7832C222.252 70.9199 222.527 71.1152 222.734 71.3691C222.945 71.623 223.074 71.9219 223.121 72.2656H222.119C222.053 72.0156 221.9 71.8125 221.662 71.6562C221.424 71.5 221.113 71.4219 220.73 71.4219C220.48 71.4219 220.258 71.4629 220.062 71.5449C219.867 71.623 219.713 71.7324 219.6 71.873C219.486 72.0137 219.43 72.1777 219.43 72.3652V72.377C219.43 72.5918 219.514 72.7695 219.682 72.9102C219.85 73.0508 220.119 73.166 220.49 73.2559L221.463 73.4902C222.057 73.6348 222.498 73.8418 222.787 74.1113C223.08 74.3809 223.227 74.7422 223.227 75.1953V75.207C223.227 75.582 223.115 75.9141 222.893 76.2031C222.67 76.4883 222.367 76.7109 221.984 76.8711C221.605 77.0312 221.176 77.1113 220.695 77.1113ZM245.779 77.1113C245.182 77.1113 244.664 76.9805 244.227 76.7188C243.793 76.4531 243.457 76.0762 243.219 75.5879C242.984 75.0996 242.867 74.5195 242.867 73.8477V73.8359C242.867 73.1602 242.984 72.5781 243.219 72.0898C243.457 71.6016 243.793 71.2266 244.227 70.9648C244.664 70.7031 245.182 70.5723 245.779 70.5723C246.381 70.5723 246.898 70.7031 247.332 70.9648C247.766 71.2266 248.1 71.6016 248.334 72.0898C248.572 72.5781 248.691 73.1602 248.691 73.8359V73.8477C248.691 74.5195 248.572 75.0996 248.334 75.5879C248.1 76.0762 247.766 76.4531 247.332 76.7188C246.898 76.9805 246.381 77.1113 245.779 77.1113ZM245.779 76.209C246.178 76.209 246.516 76.1152 246.793 75.9277C247.07 75.7402 247.281 75.4707 247.426 75.1191C247.574 74.7676 247.648 74.3438 247.648 73.8477V73.8359C247.648 73.3359 247.574 72.9102 247.426 72.5586C247.281 72.207 247.07 71.9395 246.793 71.7559C246.516 71.5684 246.178 71.4746 245.779 71.4746C245.381 71.4746 245.043 71.5684 244.766 71.7559C244.488 71.9395 244.275 72.207 244.127 72.5586C243.982 72.9102 243.91 73.3359 243.91 73.8359V73.8477C243.91 74.3438 243.982 74.7676 244.127 75.1191C244.275 75.4707 244.488 75.7402 244.766 75.9277C245.043 76.1152 245.381 76.209 245.779 76.209ZM257.773 77V70.6836H258.793V71.6328H258.887C259.047 71.2969 259.277 71.0371 259.578 70.8535C259.879 70.666 260.262 70.5723 260.727 70.5723C261.438 70.5723 261.982 70.7754 262.361 71.1816C262.744 71.584 262.936 72.1602 262.936 72.9102V77H261.916V73.1562C261.916 72.5859 261.795 72.1641 261.553 71.8906C261.314 71.6133 260.943 71.4746 260.439 71.4746C260.104 71.4746 259.812 71.5469 259.566 71.6914C259.32 71.8359 259.129 72.041 258.992 72.3066C258.859 72.5723 258.793 72.8906 258.793 73.2617V77H257.773Z" fill="black" fill-opacity="0.54"/><g clip-path="url(#clip0_13054_3555)"><path d="M257 43L257 60H266" stroke="black" stroke-opacity="0.54" stroke-width="2"/><g clip-path="url(#clip1_13054_3555)"><path d="M241 62.5L243.108 56M254 62.5L251.892 56M243.108 56L247 44H248L251.892 56M243.108 56H251.892" stroke="black" stroke-opacity="0.54" stroke-width="2"/></g><path d="M236 44L236 61M242 44H230" stroke="black" stroke-opacity="0.54" stroke-width="2"/><g clip-path="url(#clip2_13054_3555)"><path d="M219 52V44H224C226.209 44 228 45.7909 228 48V48C228 50.2091 226.209 52 224 52V52M219 52V61M219 52H224M224 52L228 62.5" stroke="black" stroke-opacity="0.54" stroke-width="2"/></g><g clip-path="url(#clip3_13054_3555)"><mask id="mask0_13054_3555" style="mask-type:alpha" maskUnits="userSpaceOnUse" x="189" y="43" width="15" height="18"><path fill-rule="evenodd" clip-rule="evenodd" d="M204 43H189V61H204V43ZM199 53H195V56H199V53Z" fill="#D9D9D9"/></mask><g mask="url(#mask0_13054_3555)"><path d="M191 61L191 44L196.5 52L202 44L202 61" stroke="black" stroke-opacity="0.54" stroke-width="2"/></g></g><rect x="206" y="43.7998" width="9" height="16.4" rx="4.5" stroke="black" stroke-opacity="0.54" stroke-width="2"/><g clip-path="url(#clip4_13054_3555)"><mask id="mask1_13054_3555" style="mask-type:alpha" maskUnits="userSpaceOnUse" x="174" y="43" width="15" height="18"><path fill-rule="evenodd" clip-rule="evenodd" d="M189 43H174V61H189V43ZM184 53H180V56H184V53Z" fill="#D9D9D9"/></mask><g mask="url(#mask1_13054_3555)"><path d="M176 61L176 44L181.5 52L187 44L187 61" stroke="black" stroke-opacity="0.54" stroke-width="2"/></g></g><path d="M172 43L172 61" stroke="black" stroke-opacity="0.54" stroke-width="2"/><rect x="153" y="43.7998" width="9" height="16.4" rx="4.5" stroke="black" stroke-opacity="0.38" stroke-width="2"/><path d="M140 43L140 61M149 43L149 61M149 52H140" stroke="black" stroke-opacity="0.38" stroke-width="2"/><path d="M136 55.6998C136 58.1851 133.985 60.1998 131.5 60.1998C129.015 60.1998 127 58.1851 127 55.6998V48.2998C127 45.8145 129.015 43.7998 131.5 43.7998C133.985 43.7998 136 45.8145 136 48.2998" stroke="black" stroke-opacity="0.38" stroke-width="2"/><path d="M125 44L116 44V60H125M123 52L116 52" stroke="black" stroke-opacity="0.38" stroke-width="2"/></g><circle cx="48" cy="47" r="28" fill="#E9F3FC"/><circle cx="48" cy="47" r="17" fill="#FBFDFE"/><path d="M45 69H51M45 69L46 77M45 69L42 77M51 69L50 77M51 69L54 77M50 77H46M50 77V87M46 77V87M49.5 64.5C49.5 65.3284 48.8284 66 48 66C47.1716 66 46.5 65.3284 46.5 64.5C46.5 63.6716 47.1716 63 48 63C48.8284 63 49.5 63.6716 49.5 64.5Z" stroke="#5EA8E8" stroke-width="2" stroke-linecap="round" stroke-linejoin="round"/><path d="M92.4462 30.293C86.7483 45.3657 73.6033 56.781 57.5 60.0498M38.4999 60.0498C22.3966 56.781 9.25155 45.3657 3.55371 30.293M92.162 38.0136C84.9342 51.0067 72.1387 60.4772 57 63.2004M39.0003 63.2004C23.8616 60.4772 11.0661 51.0067 3.83838 38.0136M40.6554 66.5C26.4461 64.5491 14.0156 57.0185 5.64551 46.1897M90.3546 46.1897C81.9846 57.0185 69.5541 64.5491 55.3447 66.5M4.51611 23C8.41729 40.9399 23.1381 54.842 41.5012 57.5289L41.5 60.5C41.5 62.3434 42.2673 64.0075 43.5 65.1904M91.4835 23C87.5826 40.9385 72.8637 54.8399 54.5026 57.5283L54.5 60.5C54.5 62.3434 53.7327 64.0075 52.5 65.1904M86.4721 54.8784C82.0156 59.0237 76.8886 62.4578 71.2716 65H71.2656M24.7283 65C19.1114 62.4578 13.9843 59.0237 9.52783 54.8784M35.5 68.97L31.1101 72.373M38.2189 69.721L34.4508 73.5005M41 70.7144L37.4951 75M33.0583 68.0224L28.0587 70.7144M29.8782 67L25 68.97M60.5 68.97L64.8899 72.373M57.7811 69.721L61.5492 73.5005M55 70.7144L58.5049 75M62.9417 68.0224L67.9413 70.7144M66.1218 67L71 68.97" stroke="#5EA8E8" stroke-width="2" stroke-linecap="round" stroke-linejoin="round"/><defs><clipPath id="clip0_13054_3555"><rect width="151" height="20" fill="white" transform="translate(115 42)"/></clipPath><clipPath id="clip1_13054_3555"><rect width="17" height="18" fill="white" transform="translate(239 43)"/></clipPath><clipPath id="clip2_13054_3555"><rect width="13" height="18" fill="white" transform="translate(217 43)"/></clipPath><clipPath id="clip3_13054_3555"><rect width="15" height="18" fill="white" transform="translate(189 43)"/></clipPath><clipPath id="clip4_13054_3555"><rect width="15" height="18" fill="white" transform="translate(174 43)"/></clipPath></defs></svg>