<svg width="24" height="24" viewBox="0 0 24 24" fill="none" xmlns="http://www.w3.org/2000/svg">
<path d="M3 14H21V19C21 20.1046 20.1046 21 19 21H5C3.89543 21 3 20.1046 3 19V14Z" fill="var(--color-fill-icon)"/>
<path d="M3 15V19C3 19.5304 3.21071 20.0391 3.58579 20.4142C3.96086 20.7893 4.46957 21 5 21H19C19.5304 21 20.0391 20.7893 20.4142 20.4142C20.7893 20.0391 21 19.5304 21 19V15M7 12L12 17M12 17L17 12M12 17V3" stroke="var(--color-stroke-icon)" stroke-width="var(--width-stroke-icon)" stroke-linecap="round" stroke-linejoin="round"/>
</svg>
