<svg width="24" height="24" viewBox="0 0 24 24" fill="none" xmlns="http://www.w3.org/2000/svg">
<path d="M3 7C3 5.89543 3.89543 5 5 5H15.8394C16.5571 5 17.2198 5.38457 17.5758 6.00772L21 12L17.5758 17.9923C17.2198 18.6154 16.5571 19 15.8394 19H5C3.89543 19 3 18.1046 3 17V7Z" fill="var(--color-fill-icon)"/>
<path d="M9 15H9.5C10.3284 15 11 14.3284 11 13.5C11 12.6716 10.3284 12 9.5 12H8.5C7.67157 12 7 11.3284 7 10.5C7 9.67157 7.67157 9 8.5 9H9M9 15H7M9 15V16M11 9H9M9 9V8M21 12L17.5758 6.00772C17.2198 5.38457 16.5571 5 15.8394 5H5C3.89543 5 3 5.89543 3 7V17C3 18.1046 3.89543 19 5 19H15.8394C16.5571 19 17.2198 18.6154 17.5758 17.9923L21 12ZM16 13C15.4477 13 15 12.5523 15 12C15 11.4477 15.4477 11 16 11C16.5523 11 17 11.4477 17 12C17 12.5523 16.5523 13 16 13Z" stroke="var(--color-stroke-icon)" stroke-width="var(--width-stroke-icon)" stroke-linecap="round" stroke-linejoin="round"/>
</svg>
