<svg width="24" height="24" viewBox="0 0 24 24" fill="none" xmlns="http://www.w3.org/2000/svg">
<rect x="3" y="3" width="18" height="18" rx="2" fill="var(--color-fill-icon)"/>
<path d="M8 21H5C3.89543 21 3 20.1046 3 19V16M16 21H19C20.1046 21 21 20.1046 21 19V16M3 8V5C3 3.89543 3.89543 3 5 3H8M16 3H19C20.1046 3 21 3.89543 21 5V8M7.12602 17C7.57006 15.2748 9.13616 14 11 14H13C14.8638 14 16.4299 15.2748 16.874 17M14.5 8.5C14.5 9.88071 13.3807 11 12 11C10.6193 11 9.5 9.88071 9.5 8.5C9.5 7.11929 10.6193 6 12 6C13.3807 6 14.5 7.11929 14.5 8.5Z" stroke="var(--color-stroke-icon)" stroke-width="var(--width-stroke-icon)" stroke-linecap="round" stroke-linejoin="round"/>
</svg>
