<svg width="24" height="24" viewBox="0 0 24 24" fill="none" xmlns="http://www.w3.org/2000/svg">
<path d="M11 21C11 21.5523 11.4477 22 12 22C12.5523 22 13 21.5523 13 21H11ZM16 9C16.5523 9 17 8.55228 17 8C17 7.44772 16.5523 7 16 7V9ZM10 12C9.44772 12 9 12.4477 9 13C9 13.5523 9.44772 14 10 14V12ZM16 14C16.5523 14 17 13.5523 17 13C17 12.4477 16.5523 12 16 12V14ZM13 21V12H11V21H13ZM13 12C13 10.9301 13.1364 10.2336 13.4782 9.79202C13.7742 9.4097 14.4066 9 16 9V7C14.0934 7 12.7258 7.4968 11.8968 8.56773C11.1136 9.5794 11 10.8829 11 12H13ZM10 14H16V12H10V14ZM5 4H19V2H5V4ZM20 5V19H22V5H20ZM19 20H5V22H19V20ZM4 19V5H2V19H4ZM5 20C4.44772 20 4 19.5523 4 19H2C2 20.6569 3.34315 22 5 22V20ZM20 19C20 19.5523 19.5523 20 19 20V22C20.6569 22 22 20.6569 22 19H20ZM19 4C19.5523 4 20 4.44772 20 5H22C22 3.34315 20.6569 2 19 2V4ZM5 2C3.34315 2 2 3.34315 2 5H4C4 4.44772 4.44772 4 5 4V2Z" fill="black"/>
</svg>
