<svg width="120" height="106" fill="none" xmlns="http://www.w3.org/2000/svg"><path d="M0.749512 7.83545V7.32764H1.68701C1.91325 7.32764 2.08903 7.26986 2.21436 7.1543C2.33968 7.03711 2.40234 6.87272 2.40234 6.66113V6.65625C2.40234 6.44303 2.33968 6.27865 2.21436 6.16309C2.08903 6.04753 1.91325 5.98975 1.68701 5.98975H0.749512V5.47705H1.84082C2.08008 5.47705 2.28923 5.52588 2.46826 5.62354C2.6473 5.72119 2.78727 5.85872 2.88818 6.03613C2.9891 6.21191 3.03955 6.41781 3.03955 6.65381V6.65869C3.03955 6.89307 2.9891 7.09896 2.88818 7.27637C2.78727 7.45215 2.6473 7.58968 2.46826 7.68896C2.28923 7.78662 2.08008 7.83545 1.84082 7.83545H0.749512ZM0.43457 9V5.47705H1.06445V9H0.43457ZM4.74121 9.05371C4.47591 9.05371 4.24805 8.99756 4.05762 8.88525C3.86882 8.77295 3.72314 8.61344 3.62061 8.40674C3.51807 8.20003 3.4668 7.95508 3.4668 7.67188V7.66943C3.4668 7.38949 3.51725 7.14535 3.61816 6.93701C3.7207 6.72868 3.86556 6.56755 4.05273 6.45361C4.23991 6.33805 4.45964 6.28027 4.71191 6.28027C4.96582 6.28027 5.18392 6.33643 5.36621 6.44873C5.55013 6.55941 5.69173 6.71484 5.79102 6.91504C5.8903 7.11523 5.93994 7.34961 5.93994 7.61816V7.81836H3.77197V7.41064H5.64209L5.354 7.7915V7.5498C5.354 7.3724 5.32715 7.2251 5.27344 7.10791C5.21973 6.99072 5.14486 6.90283 5.04883 6.84424C4.95443 6.78564 4.84456 6.75635 4.71924 6.75635C4.59391 6.75635 4.48242 6.78727 4.38477 6.84912C4.28874 6.90934 4.21224 6.99886 4.15527 7.11768C4.09993 7.23486 4.07227 7.37891 4.07227 7.5498V7.79395C4.07227 7.95833 4.09993 8.09912 4.15527 8.21631C4.21061 8.33187 4.28874 8.42139 4.38965 8.48486C4.49219 8.54671 4.61344 8.57764 4.75342 8.57764C4.86247 8.57764 4.95605 8.56217 5.03418 8.53125C5.11393 8.4987 5.17822 8.46045 5.22705 8.4165C5.27588 8.37093 5.31006 8.3278 5.32959 8.28711L5.33691 8.27002H5.91309L5.9082 8.29199C5.88704 8.37826 5.84798 8.46615 5.79102 8.55566C5.73568 8.64355 5.65999 8.72575 5.56396 8.80225C5.46956 8.87712 5.354 8.93815 5.21729 8.98535C5.08057 9.03092 4.92188 9.05371 4.74121 9.05371ZM6.54785 9V6.33154H7.15576V6.7417H7.19727C7.24284 6.59847 7.32422 6.48698 7.44141 6.40723C7.56022 6.32747 7.70752 6.2876 7.8833 6.2876C7.92887 6.2876 7.97363 6.29085 8.01758 6.29736C8.06315 6.30225 8.10059 6.30876 8.12988 6.31689V6.86133C8.08105 6.84993 8.03141 6.8418 7.98096 6.83691C7.93213 6.8304 7.88086 6.82715 7.82715 6.82715C7.69206 6.82715 7.57406 6.85238 7.47314 6.90283C7.37223 6.95329 7.29411 7.02572 7.23877 7.12012C7.18343 7.21289 7.15576 7.32275 7.15576 7.44971V9H6.54785ZM9.57275 9.05371C9.34652 9.05371 9.1512 9.02197 8.98682 8.9585C8.82406 8.89339 8.69548 8.80387 8.60107 8.68994C8.50667 8.57438 8.45052 8.44092 8.43262 8.28955V8.28467H9.03564L9.03809 8.28955C9.07064 8.38232 9.13167 8.45801 9.22119 8.5166C9.31071 8.5752 9.43115 8.60449 9.58252 8.60449C9.68343 8.60449 9.77214 8.59066 9.84863 8.56299C9.92513 8.53369 9.98535 8.49382 10.0293 8.44336C10.0732 8.3929 10.0952 8.33431 10.0952 8.26758V8.2627C10.0952 8.18457 10.0635 8.11947 10 8.06738C9.93652 8.01367 9.83154 7.97054 9.68506 7.93799L9.25293 7.84033C8.99902 7.78337 8.81022 7.69466 8.68652 7.57422C8.56445 7.45215 8.50342 7.29264 8.50342 7.0957V7.09326C8.50342 6.93213 8.54818 6.79053 8.6377 6.66846C8.72884 6.54639 8.85498 6.45117 9.01611 6.38281C9.17725 6.31445 9.36279 6.28027 9.57275 6.28027C9.78923 6.28027 9.97559 6.31283 10.1318 6.37793C10.2881 6.44303 10.4102 6.53255 10.498 6.64648C10.5859 6.76042 10.6364 6.88981 10.6494 7.03467V7.03955H10.0781L10.0757 7.03223C10.0529 6.94759 9.99837 6.87598 9.91211 6.81738C9.82747 6.75716 9.71354 6.72705 9.57031 6.72705C9.48079 6.72705 9.40023 6.74089 9.32861 6.76855C9.25863 6.79622 9.20329 6.83529 9.1626 6.88574C9.12354 6.93457 9.104 6.99235 9.104 7.05908V7.06152C9.104 7.13965 9.13493 7.20394 9.19678 7.25439C9.25863 7.30485 9.36117 7.34635 9.50439 7.37891L9.93652 7.47412C10.1986 7.53271 10.3923 7.61979 10.5176 7.73535C10.6429 7.85091 10.7056 8.00635 10.7056 8.20166V8.20654C10.7056 8.37581 10.6567 8.52393 10.5591 8.65088C10.4614 8.77783 10.3271 8.87712 10.1562 8.94873C9.98535 9.01872 9.79085 9.05371 9.57275 9.05371ZM12.4707 9.05371C12.2054 9.05371 11.9767 8.99837 11.7847 8.8877C11.5926 8.77539 11.4445 8.61589 11.3403 8.40918C11.2378 8.20247 11.1865 7.95508 11.1865 7.66699V7.66211C11.1865 7.37728 11.2386 7.13151 11.3428 6.9248C11.4469 6.71647 11.5942 6.55697 11.7847 6.44629C11.9767 6.33561 12.2054 6.28027 12.4707 6.28027C12.736 6.28027 12.9639 6.33561 13.1543 6.44629C13.3464 6.55697 13.4945 6.71566 13.5986 6.92236C13.7028 7.12907 13.7549 7.37565 13.7549 7.66211V7.66699C13.7549 7.95508 13.7028 8.20247 13.5986 8.40918C13.4961 8.61589 13.3488 8.77539 13.1567 8.8877C12.9663 8.99837 12.7376 9.05371 12.4707 9.05371ZM12.4707 8.56055C12.6107 8.56055 12.7295 8.52555 12.8271 8.45557C12.9264 8.38395 13.0021 8.28223 13.0542 8.15039C13.1063 8.01693 13.1323 7.85661 13.1323 7.66943V7.66455C13.1323 7.47575 13.1063 7.31543 13.0542 7.18359C13.0021 7.05013 12.9264 6.9484 12.8271 6.87842C12.7295 6.8068 12.6107 6.771 12.4707 6.771C12.3307 6.771 12.2111 6.8068 12.1118 6.87842C12.0125 6.9484 11.9368 7.05013 11.8848 7.18359C11.8327 7.31543 11.8066 7.47575 11.8066 7.66455V7.66943C11.8066 7.85661 11.8327 8.01693 11.8848 8.15039C11.9368 8.28385 12.0117 8.38558 12.1094 8.45557C12.2087 8.52555 12.3291 8.56055 12.4707 8.56055ZM14.3652 9V6.33154H14.9731V6.7417H15.0146C15.0781 6.59684 15.1742 6.48372 15.3027 6.40234C15.4313 6.32096 15.5916 6.28027 15.7837 6.28027C16.0815 6.28027 16.3094 6.36654 16.4673 6.53906C16.6252 6.71159 16.7041 6.95654 16.7041 7.27393V9H16.0962V7.41553C16.0962 7.20719 16.0522 7.05094 15.9644 6.94678C15.8781 6.84261 15.743 6.79053 15.5591 6.79053C15.4386 6.79053 15.3345 6.81738 15.2466 6.87109C15.1587 6.9248 15.0911 7.00049 15.0439 7.09814C14.9967 7.1958 14.9731 7.31136 14.9731 7.44482V9H14.3652ZM18.1494 9.04395C17.9818 9.04395 17.8312 9.01139 17.6978 8.94629C17.5659 8.88118 17.4618 8.78923 17.3853 8.67041C17.3104 8.54997 17.2729 8.40837 17.2729 8.24561V8.24072C17.2729 8.00309 17.36 7.81592 17.5342 7.6792C17.71 7.54248 17.9606 7.46517 18.2861 7.44727L19.2725 7.38623V7.78662L18.3716 7.84521C18.2007 7.85498 18.0745 7.89079 17.9932 7.95264C17.9118 8.01449 17.8711 8.10075 17.8711 8.21143V8.21631C17.8711 8.33024 17.9142 8.41895 18.0005 8.48242C18.0884 8.5459 18.1999 8.57764 18.335 8.57764C18.457 8.57764 18.5661 8.55322 18.6621 8.50439C18.7581 8.45557 18.8338 8.38965 18.8892 8.30664C18.9445 8.22201 18.9722 8.12679 18.9722 8.021V7.17627C18.9722 7.04281 18.9299 6.94108 18.8452 6.87109C18.7606 6.79948 18.6353 6.76367 18.4692 6.76367C18.3309 6.76367 18.2178 6.78809 18.1299 6.83691C18.042 6.88411 17.9826 6.95166 17.9517 7.03955L17.9492 7.04932H17.3755L17.3779 7.02734C17.3975 6.8776 17.4561 6.74658 17.5537 6.63428C17.6514 6.52197 17.7808 6.4349 17.9419 6.37305C18.103 6.3112 18.2886 6.28027 18.4985 6.28027C18.7297 6.28027 18.925 6.31608 19.0845 6.3877C19.244 6.45768 19.3652 6.56022 19.4482 6.69531C19.5312 6.82878 19.5728 6.9891 19.5728 7.17627V9H18.9722V8.63379H18.9307C18.8818 8.71842 18.8184 8.79167 18.7402 8.85352C18.6637 8.91536 18.5758 8.96257 18.4766 8.99512C18.3773 9.02767 18.2682 9.04395 18.1494 9.04395ZM20.3271 9V5.29883H20.9351V9H20.3271ZM21.7065 9V6.33154H22.312V9H21.7065ZM22.0117 5.88477C21.9124 5.88477 21.827 5.84977 21.7554 5.77979C21.6838 5.7098 21.6479 5.62598 21.6479 5.52832C21.6479 5.42741 21.6838 5.34277 21.7554 5.27441C21.827 5.20443 21.9124 5.16943 22.0117 5.16943C22.111 5.16943 22.1956 5.20443 22.2656 5.27441C22.3372 5.34277 22.373 5.42741 22.373 5.52832C22.373 5.62598 22.3372 5.7098 22.2656 5.77979C22.1956 5.84977 22.111 5.88477 22.0117 5.88477ZM24.1113 9.01221C23.8053 9.01221 23.5848 8.95605 23.4497 8.84375C23.3146 8.73145 23.2471 8.54753 23.2471 8.29199V6.80273H22.832V6.33154H23.2471V5.67725H23.8647V6.33154H24.4263V6.80273H23.8647V8.14795C23.8647 8.27979 23.8924 8.37663 23.9478 8.43848C24.0047 8.4987 24.0959 8.52881 24.2212 8.52881C24.2651 8.52881 24.3009 8.52799 24.3286 8.52637C24.3579 8.52311 24.3905 8.51986 24.4263 8.5166V8.98535C24.384 8.99349 24.3351 9 24.2798 9.00488C24.2261 9.00977 24.1699 9.01221 24.1113 9.01221ZM25.3198 9.9375C25.2824 9.9375 25.2433 9.93669 25.2026 9.93506C25.1636 9.93343 25.1253 9.93099 25.0879 9.92773V9.46143C25.1123 9.46468 25.1408 9.46631 25.1733 9.46631C25.2059 9.46794 25.2376 9.46875 25.2686 9.46875C25.3939 9.46875 25.494 9.44108 25.5688 9.38574C25.6453 9.33203 25.6999 9.24495 25.7324 9.12451L25.7642 9.00244L24.8096 6.33154H25.4736L26.1768 8.69482L26.0107 8.4165H26.2207L26.0596 8.69482L26.7627 6.33154H27.4023L26.4453 9.05859C26.3672 9.27995 26.2785 9.45492 26.1792 9.5835C26.0815 9.71208 25.9627 9.80322 25.8228 9.85693C25.6844 9.91064 25.5168 9.9375 25.3198 9.9375ZM30.3027 9.01221C29.9967 9.01221 29.7762 8.95605 29.6411 8.84375C29.506 8.73145 29.4385 8.54753 29.4385 8.29199V6.80273H29.0234V6.33154H29.4385V5.67725H30.0562V6.33154H30.6177V6.80273H30.0562V8.14795C30.0562 8.27979 30.0838 8.37663 30.1392 8.43848C30.1961 8.4987 30.2873 8.52881 30.4126 8.52881C30.4565 8.52881 30.4924 8.52799 30.52 8.52637C30.5493 8.52311 30.5819 8.51986 30.6177 8.5166V8.98535C30.5754 8.99349 30.5265 9 30.4712 9.00488C30.4175 9.00977 30.3613 9.01221 30.3027 9.01221ZM31.2256 9V6.33154H31.8335V6.7417H31.875C31.9206 6.59847 32.002 6.48698 32.1191 6.40723C32.238 6.32747 32.3853 6.2876 32.561 6.2876C32.6066 6.2876 32.6514 6.29085 32.6953 6.29736C32.7409 6.30225 32.7783 6.30876 32.8076 6.31689V6.86133C32.7588 6.84993 32.7091 6.8418 32.6587 6.83691C32.6099 6.8304 32.5586 6.82715 32.5049 6.82715C32.3698 6.82715 32.2518 6.85238 32.1509 6.90283C32.05 6.95329 31.9718 7.02572 31.9165 7.12012C31.8612 7.21289 31.8335 7.32275 31.8335 7.44971V9H31.2256ZM33.999 9.04395C33.8314 9.04395 33.6808 9.01139 33.5474 8.94629C33.4155 8.88118 33.3114 8.78923 33.2349 8.67041C33.16 8.54997 33.1226 8.40837 33.1226 8.24561V8.24072C33.1226 8.00309 33.2096 7.81592 33.3838 7.6792C33.5596 7.54248 33.8102 7.46517 34.1357 7.44727L35.1221 7.38623V7.78662L34.2212 7.84521C34.0503 7.85498 33.9242 7.89079 33.8428 7.95264C33.7614 8.01449 33.7207 8.10075 33.7207 8.21143V8.21631C33.7207 8.33024 33.7638 8.41895 33.8501 8.48242C33.938 8.5459 34.0495 8.57764 34.1846 8.57764C34.3066 8.57764 34.4157 8.55322 34.5117 8.50439C34.6077 8.45557 34.6834 8.38965 34.7388 8.30664C34.7941 8.22201 34.8218 8.12679 34.8218 8.021V7.17627C34.8218 7.04281 34.7795 6.94108 34.6948 6.87109C34.6102 6.79948 34.4849 6.76367 34.3188 6.76367C34.1805 6.76367 34.0674 6.78809 33.9795 6.83691C33.8916 6.88411 33.8322 6.95166 33.8013 7.03955L33.7988 7.04932H33.2251L33.2275 7.02734C33.2471 6.8776 33.3057 6.74658 33.4033 6.63428C33.501 6.52197 33.6304 6.4349 33.7915 6.37305C33.9526 6.3112 34.1382 6.28027 34.3481 6.28027C34.5793 6.28027 34.7746 6.31608 34.9341 6.3877C35.0936 6.45768 35.2148 6.56022 35.2979 6.69531C35.3809 6.82878 35.4224 6.9891 35.4224 7.17627V9H34.8218V8.63379H34.7803C34.7314 8.71842 34.668 8.79167 34.5898 8.85352C34.5133 8.91536 34.4255 8.96257 34.3262 8.99512C34.2269 9.02767 34.1178 9.04395 33.999 9.04395ZM36.1597 9V6.33154H36.7651V9H36.1597ZM36.4648 5.88477C36.3656 5.88477 36.2801 5.84977 36.2085 5.77979C36.1369 5.7098 36.1011 5.62598 36.1011 5.52832C36.1011 5.42741 36.1369 5.34277 36.2085 5.27441C36.2801 5.20443 36.3656 5.16943 36.4648 5.16943C36.5641 5.16943 36.6488 5.20443 36.7188 5.27441C36.7904 5.34277 36.8262 5.42741 36.8262 5.52832C36.8262 5.62598 36.7904 5.7098 36.7188 5.77979C36.6488 5.84977 36.5641 5.88477 36.4648 5.88477ZM38.5645 9.01221C38.2585 9.01221 38.0379 8.95605 37.9028 8.84375C37.7677 8.73145 37.7002 8.54753 37.7002 8.29199V6.80273H37.2852V6.33154H37.7002V5.67725H38.3179V6.33154H38.8794V6.80273H38.3179V8.14795C38.3179 8.27979 38.3455 8.37663 38.4009 8.43848C38.4578 8.4987 38.549 8.52881 38.6743 8.52881C38.7183 8.52881 38.7541 8.52799 38.7817 8.52637C38.811 8.52311 38.8436 8.51986 38.8794 8.5166V8.98535C38.8371 8.99349 38.7882 9 38.7329 9.00488C38.6792 9.00977 38.623 9.01221 38.5645 9.01221ZM40.4614 9.05371C40.2352 9.05371 40.0399 9.02197 39.8755 8.9585C39.7127 8.89339 39.5841 8.80387 39.4897 8.68994C39.3953 8.57438 39.3392 8.44092 39.3213 8.28955V8.28467H39.9243L39.9268 8.28955C39.9593 8.38232 40.0203 8.45801 40.1099 8.5166C40.1994 8.5752 40.3198 8.60449 40.4712 8.60449C40.5721 8.60449 40.6608 8.59066 40.7373 8.56299C40.8138 8.53369 40.874 8.49382 40.918 8.44336C40.9619 8.3929 40.9839 8.33431 40.9839 8.26758V8.2627C40.9839 8.18457 40.9521 8.11947 40.8887 8.06738C40.8252 8.01367 40.7202 7.97054 40.5737 7.93799L40.1416 7.84033C39.8877 7.78337 39.6989 7.69466 39.5752 7.57422C39.4531 7.45215 39.3921 7.29264 39.3921 7.0957V7.09326C39.3921 6.93213 39.4368 6.79053 39.5264 6.66846C39.6175 6.54639 39.7437 6.45117 39.9048 6.38281C40.0659 6.31445 40.2515 6.28027 40.4614 6.28027C40.6779 6.28027 40.8643 6.31283 41.0205 6.37793C41.1768 6.44303 41.2988 6.53255 41.3867 6.64648C41.4746 6.76042 41.5251 6.88981 41.5381 7.03467V7.03955H40.9668L40.9644 7.03223C40.9416 6.94759 40.887 6.87598 40.8008 6.81738C40.7161 6.75716 40.6022 6.72705 40.459 6.72705C40.3695 6.72705 40.2889 6.74089 40.2173 6.76855C40.1473 6.79622 40.092 6.83529 40.0513 6.88574C40.0122 6.93457 39.9927 6.99235 39.9927 7.05908V7.06152C39.9927 7.13965 40.0236 7.20394 40.0854 7.25439C40.1473 7.30485 40.2498 7.34635 40.3931 7.37891L40.8252 7.47412C41.0872 7.53271 41.2809 7.61979 41.4062 7.73535C41.5316 7.85091 41.5942 8.00635 41.5942 8.20166V8.20654C41.5942 8.37581 41.5454 8.52393 41.4478 8.65088C41.3501 8.77783 41.2158 8.87712 41.0449 8.94873C40.874 9.01872 40.6795 9.05371 40.4614 9.05371Z" fill="black" fill-opacity="0.54"/><g clip-path="url(#clip0_12563_3308)"><g filter="url(#filter0_i_12563_3308)"><rect y="15" width="120" height="22" fill="#FEFCF6"/></g><path opacity="0.8" d="M82 33L86 37H78L82 33Z" fill="#258F14"/><rect x="6" y="21" width="10" height="10" rx="2" fill="#FCFCFC"/><path d="M9 23H10.5V24H9V23Z" fill="black" fill-opacity="0.38"/><path d="M9 27H10.5V28H9V27Z" fill="black" fill-opacity="0.38"/><path d="M11.5 27H13V28H11.5V27Z" fill="black" fill-opacity="0.38"/><path d="M10.5 28H11.5V29H10.5V28Z" fill="black" fill-opacity="0.38"/><path d="M8 24H9V27H8V24Z" fill="black" fill-opacity="0.38"/><path d="M10.5 24H11.5V25H10.5V24Z" fill="black" fill-opacity="0.38"/><path d="M11.5 23H13V24H11.5V23Z" fill="black" fill-opacity="0.38"/><path d="M13 24H14V27H13V24Z" fill="black" fill-opacity="0.38"/><path d="M21.1597 28L20.2148 24.4771H20.8691L21.4746 27.1211H21.5088L22.2046 24.4771H22.7637L23.4668 27.1211H23.501L24.104 24.4771H24.7534L23.811 28H23.2202L22.5024 25.478H22.4658L21.7529 28H21.1597ZM25.7861 28.0439C25.6185 28.0439 25.4679 28.0114 25.3345 27.9463C25.2026 27.8812 25.0985 27.7892 25.022 27.6704C24.9471 27.55 24.9097 27.4084 24.9097 27.2456V27.2407C24.9097 27.0031 24.9967 26.8159 25.1709 26.6792C25.3467 26.5425 25.5973 26.4652 25.9229 26.4473L26.9092 26.3862V26.7866L26.0083 26.8452C25.8374 26.855 25.7113 26.8908 25.6299 26.9526C25.5485 27.0145 25.5078 27.1007 25.5078 27.2114V27.2163C25.5078 27.3302 25.5509 27.4189 25.6372 27.4824C25.7251 27.5459 25.8366 27.5776 25.9717 27.5776C26.0938 27.5776 26.2028 27.5532 26.2988 27.5044C26.3949 27.4556 26.4705 27.3896 26.5259 27.3066C26.5812 27.222 26.6089 27.1268 26.6089 27.021V26.1763C26.6089 26.0428 26.5666 25.9411 26.4819 25.8711C26.3973 25.7995 26.272 25.7637 26.106 25.7637C25.9676 25.7637 25.8545 25.7881 25.7666 25.8369C25.6787 25.8841 25.6193 25.9517 25.5884 26.0396L25.5859 26.0493H25.0122L25.0146 26.0273C25.0342 25.8776 25.0928 25.7466 25.1904 25.6343C25.2881 25.522 25.4175 25.4349 25.5786 25.373C25.7397 25.3112 25.9253 25.2803 26.1353 25.2803C26.3664 25.2803 26.5617 25.3161 26.7212 25.3877C26.8807 25.4577 27.002 25.5602 27.085 25.6953C27.168 25.8288 27.2095 25.9891 27.2095 26.1763V28H26.6089V27.6338H26.5674C26.5186 27.7184 26.4551 27.7917 26.377 27.8535C26.3005 27.9154 26.2126 27.9626 26.1133 27.9951C26.014 28.0277 25.9049 28.0439 25.7861 28.0439ZM27.9395 28V25.3315H28.5474V25.7417H28.5889C28.6344 25.5985 28.7158 25.487 28.833 25.4072C28.9518 25.3275 29.0991 25.2876 29.2749 25.2876C29.3205 25.2876 29.3652 25.2909 29.4092 25.2974C29.4548 25.3022 29.4922 25.3088 29.5215 25.3169V25.8613C29.4727 25.8499 29.423 25.8418 29.3726 25.8369C29.3237 25.8304 29.2725 25.8271 29.2188 25.8271C29.0837 25.8271 28.9657 25.8524 28.8647 25.9028C28.7638 25.9533 28.6857 26.0257 28.6304 26.1201C28.575 26.2129 28.5474 26.3228 28.5474 26.4497V28H27.9395ZM30.0488 28V25.3315H30.6567V25.7466H30.6982C30.7552 25.5985 30.8472 25.4837 30.9741 25.4023C31.1027 25.321 31.2549 25.2803 31.4307 25.2803C31.5511 25.2803 31.6593 25.2998 31.7554 25.3389C31.853 25.3779 31.9368 25.4333 32.0068 25.5049C32.0768 25.5765 32.1305 25.6619 32.168 25.7612H32.2119C32.2559 25.6652 32.3169 25.5814 32.395 25.5098C32.4748 25.4365 32.5675 25.3804 32.6733 25.3413C32.7808 25.3006 32.8963 25.2803 33.02 25.2803C33.1991 25.2803 33.3521 25.3161 33.479 25.3877C33.6076 25.4577 33.7061 25.5586 33.7744 25.6904C33.8444 25.8223 33.8794 25.9801 33.8794 26.1641V28H33.2715V26.313C33.2715 26.1388 33.2316 26.0086 33.1519 25.9224C33.0721 25.8345 32.9508 25.7905 32.7881 25.7905C32.6823 25.7905 32.5903 25.8149 32.5122 25.8638C32.4341 25.911 32.373 25.9753 32.3291 26.0566C32.2868 26.138 32.2656 26.23 32.2656 26.3325V28H31.6577V26.269C31.6577 26.1209 31.6146 26.0046 31.5283 25.9199C31.4437 25.8337 31.3265 25.7905 31.1768 25.7905C31.0775 25.7905 30.988 25.8166 30.9082 25.8687C30.8301 25.9191 30.7682 25.9891 30.7227 26.0786C30.6787 26.1665 30.6567 26.2658 30.6567 26.3765V28H30.0488ZM35.6445 28.0122C35.3385 28.0122 35.118 27.9561 34.9829 27.8438C34.8478 27.7314 34.7803 27.5475 34.7803 27.292V25.8027H34.3652V25.3315H34.7803V24.6772H35.3979V25.3315H35.9595V25.8027H35.3979V27.1479C35.3979 27.2798 35.4256 27.3766 35.481 27.4385C35.5379 27.4987 35.6291 27.5288 35.7544 27.5288C35.7983 27.5288 35.8341 27.528 35.8618 27.5264C35.8911 27.5231 35.9237 27.5199 35.9595 27.5166V27.9854C35.9172 27.9935 35.8683 28 35.813 28.0049C35.7593 28.0098 35.7031 28.0122 35.6445 28.0122ZM36.5918 28V24.2988H37.1997V25.7417H37.2412C37.3047 25.5968 37.4007 25.4837 37.5293 25.4023C37.6579 25.321 37.8182 25.2803 38.0103 25.2803C38.2088 25.2803 38.3765 25.3193 38.5132 25.3975C38.6499 25.474 38.7533 25.5863 38.8232 25.7344C38.8949 25.8825 38.9307 26.0623 38.9307 26.2739V28H38.3228V26.4155C38.3228 26.2072 38.2788 26.0509 38.1909 25.9468C38.1047 25.8426 37.9696 25.7905 37.7856 25.7905C37.6652 25.7905 37.561 25.8174 37.4731 25.8711C37.3853 25.9248 37.3177 26.0005 37.2705 26.0981C37.2233 26.1958 37.1997 26.3114 37.1997 26.4448V28H36.5918Z" fill="black" fill-opacity="0.54"/><rect x="104" y="21" width="10" height="10" rx="2" fill="#FCFCFC"/><path d="M107 23H108.5V24H107V23Z" fill="black" fill-opacity="0.38"/><path d="M107 27H108.5V28H107V27Z" fill="black" fill-opacity="0.38"/><path d="M109.5 27H111V28H109.5V27Z" fill="black" fill-opacity="0.38"/><path d="M108.5 28H109.5V29H108.5V28Z" fill="black" fill-opacity="0.38"/><path d="M106 24H107V27H106V24Z" fill="black" fill-opacity="0.38"/><path d="M108.5 24H109.5V25H108.5V24Z" fill="black" fill-opacity="0.38"/><path d="M109.5 23H111V24H109.5V23Z" fill="black" fill-opacity="0.38"/><path d="M111 24H112V27H111V24Z" fill="black" fill-opacity="0.38"/></g><g clip-path="url(#clip1_12563_3308)"><g filter="url(#filter1_i_12563_3308)"><rect y="38" width="120" height="22" fill="#FEFCF6"/></g><rect x="6" y="44" width="10" height="10" rx="2" fill="#FCFCFC"/><path d="M9 46H10.5V47H9V46Z" fill="black" fill-opacity="0.38"/><path d="M9 50H10.5V51H9V50Z" fill="black" fill-opacity="0.38"/><path d="M11.5 50H13V51H11.5V50Z" fill="black" fill-opacity="0.38"/><path d="M10.5 51H11.5V52H10.5V51Z" fill="black" fill-opacity="0.38"/><path d="M8 47H9V50H8V47Z" fill="black" fill-opacity="0.38"/><path d="M10.5 47H11.5V48H10.5V47Z" fill="black" fill-opacity="0.38"/><path d="M11.5 46H13V47H11.5V46Z" fill="black" fill-opacity="0.38"/><path d="M13 47H14V50H13V47Z" fill="black" fill-opacity="0.38"/><path d="M20.4346 51V47.4771H22.6807V48.0068H21.0645V49.0493H22.5415V49.562H21.0645V51H20.4346ZM24.4678 51.0537C24.2025 51.0537 23.9738 50.9984 23.7817 50.8877C23.5897 50.7754 23.4416 50.6159 23.3374 50.4092C23.2349 50.2025 23.1836 49.9551 23.1836 49.667V49.6621C23.1836 49.3773 23.2357 49.1315 23.3398 48.9248C23.444 48.7165 23.5913 48.557 23.7817 48.4463C23.9738 48.3356 24.2025 48.2803 24.4678 48.2803C24.7331 48.2803 24.9609 48.3356 25.1514 48.4463C25.3434 48.557 25.4915 48.7157 25.5957 48.9224C25.6999 49.1291 25.752 49.3757 25.752 49.6621V49.667C25.752 49.9551 25.6999 50.2025 25.5957 50.4092C25.4932 50.6159 25.3459 50.7754 25.1538 50.8877C24.9634 50.9984 24.7347 51.0537 24.4678 51.0537ZM24.4678 50.5605C24.6077 50.5605 24.7266 50.5256 24.8242 50.4556C24.9235 50.384 24.9992 50.2822 25.0513 50.1504C25.1034 50.0169 25.1294 49.8566 25.1294 49.6694V49.6646C25.1294 49.4757 25.1034 49.3154 25.0513 49.1836C24.9992 49.0501 24.9235 48.9484 24.8242 48.8784C24.7266 48.8068 24.6077 48.771 24.4678 48.771C24.3278 48.771 24.2082 48.8068 24.1089 48.8784C24.0096 48.9484 23.9339 49.0501 23.8818 49.1836C23.8298 49.3154 23.8037 49.4757 23.8037 49.6646V49.6694C23.8037 49.8566 23.8298 50.0169 23.8818 50.1504C23.9339 50.2839 24.0088 50.3856 24.1064 50.4556C24.2057 50.5256 24.3262 50.5605 24.4678 50.5605ZM26.3623 51V48.3315H26.9702V48.7417H27.0117C27.0573 48.5985 27.1387 48.487 27.2559 48.4072C27.3747 48.3275 27.522 48.2876 27.6978 48.2876C27.7433 48.2876 27.7881 48.2909 27.832 48.2974C27.8776 48.3022 27.915 48.3088 27.9443 48.3169V48.8613C27.8955 48.8499 27.8459 48.8418 27.7954 48.8369C27.7466 48.8304 27.6953 48.8271 27.6416 48.8271C27.5065 48.8271 27.3885 48.8524 27.2876 48.9028C27.1867 48.9533 27.1086 49.0257 27.0532 49.1201C26.9979 49.2129 26.9702 49.3228 26.9702 49.4497V51H26.3623ZM28.4717 51V48.3315H29.0796V48.7466H29.1211C29.1781 48.5985 29.27 48.4837 29.397 48.4023C29.5256 48.321 29.6777 48.2803 29.8535 48.2803C29.974 48.2803 30.0822 48.2998 30.1782 48.3389C30.2759 48.3779 30.3597 48.4333 30.4297 48.5049C30.4997 48.5765 30.5534 48.6619 30.5908 48.7612H30.6348C30.6787 48.6652 30.7397 48.5814 30.8179 48.5098C30.8976 48.4365 30.9904 48.3804 31.0962 48.3413C31.2036 48.3006 31.3192 48.2803 31.4429 48.2803C31.6219 48.2803 31.7749 48.3161 31.9019 48.3877C32.0304 48.4577 32.1289 48.5586 32.1973 48.6904C32.2673 48.8223 32.3022 48.9801 32.3022 49.1641V51H31.6943V49.313C31.6943 49.1388 31.6545 49.0086 31.5747 48.9224C31.495 48.8345 31.3737 48.7905 31.2109 48.7905C31.1051 48.7905 31.0132 48.8149 30.9351 48.8638C30.8569 48.911 30.7959 48.9753 30.752 49.0566C30.7096 49.138 30.6885 49.23 30.6885 49.3325V51H30.0806V49.269C30.0806 49.1209 30.0374 49.0046 29.9512 48.9199C29.8665 48.8337 29.7493 48.7905 29.5996 48.7905C29.5003 48.7905 29.4108 48.8166 29.3311 48.8687C29.2529 48.9191 29.1911 48.9891 29.1455 49.0786C29.1016 49.1665 29.0796 49.2658 29.0796 49.3765V51H28.4717ZM33.7451 51.0439C33.5775 51.0439 33.4269 51.0114 33.2935 50.9463C33.1616 50.8812 33.0575 50.7892 32.981 50.6704C32.9061 50.55 32.8687 50.4084 32.8687 50.2456V50.2407C32.8687 50.0031 32.9557 49.8159 33.1299 49.6792C33.3057 49.5425 33.5563 49.4652 33.8818 49.4473L34.8682 49.3862V49.7866L33.9673 49.8452C33.7964 49.855 33.6702 49.8908 33.5889 49.9526C33.5075 50.0145 33.4668 50.1007 33.4668 50.2114V50.2163C33.4668 50.3302 33.5099 50.4189 33.5962 50.4824C33.6841 50.5459 33.7956 50.5776 33.9307 50.5776C34.0527 50.5776 34.1618 50.5532 34.2578 50.5044C34.3538 50.4556 34.4295 50.3896 34.4849 50.3066C34.5402 50.222 34.5679 50.1268 34.5679 50.021V49.1763C34.5679 49.0428 34.5256 48.9411 34.4409 48.8711C34.3563 48.7995 34.231 48.7637 34.0649 48.7637C33.9266 48.7637 33.8135 48.7881 33.7256 48.8369C33.6377 48.8841 33.5783 48.9517 33.5474 49.0396L33.5449 49.0493H32.9712L32.9736 49.0273C32.9932 48.8776 33.0518 48.7466 33.1494 48.6343C33.2471 48.522 33.3765 48.4349 33.5376 48.373C33.6987 48.3112 33.8843 48.2803 34.0942 48.2803C34.3254 48.2803 34.5207 48.3161 34.6802 48.3877C34.8397 48.4577 34.9609 48.5602 35.0439 48.6953C35.127 48.8288 35.1685 48.9891 35.1685 49.1763V51H34.5679V50.6338H34.5264C34.4775 50.7184 34.4141 50.7917 34.3359 50.8535C34.2594 50.9154 34.1715 50.9626 34.0723 50.9951C33.973 51.0277 33.8639 51.0439 33.7451 51.0439ZM35.9229 51V47.2988H36.5308V51H35.9229ZM37.3022 51V48.3315H37.9077V51H37.3022ZM37.6074 47.8848C37.5081 47.8848 37.4227 47.8498 37.3511 47.7798C37.2795 47.7098 37.2437 47.626 37.2437 47.5283C37.2437 47.4274 37.2795 47.3428 37.3511 47.2744C37.4227 47.2044 37.5081 47.1694 37.6074 47.1694C37.7067 47.1694 37.7913 47.2044 37.8613 47.2744C37.9329 47.3428 37.9688 47.4274 37.9688 47.5283C37.9688 47.626 37.9329 47.7098 37.8613 47.7798C37.7913 47.8498 37.7067 47.8848 37.6074 47.8848ZM39.707 51.0122C39.401 51.0122 39.1805 50.9561 39.0454 50.8438C38.9103 50.7314 38.8428 50.5475 38.8428 50.292V48.8027H38.4277V48.3315H38.8428V47.6772H39.4604V48.3315H40.022V48.8027H39.4604V50.1479C39.4604 50.2798 39.4881 50.3766 39.5435 50.4385C39.6004 50.4987 39.6916 50.5288 39.8169 50.5288C39.8608 50.5288 39.8966 50.528 39.9243 50.5264C39.9536 50.5231 39.9862 50.5199 40.022 50.5166V50.9854C39.9797 50.9935 39.9308 51 39.8755 51.0049C39.8218 51.0098 39.7656 51.0122 39.707 51.0122ZM40.9155 51.9375C40.8781 51.9375 40.839 51.9367 40.7983 51.9351C40.7593 51.9334 40.721 51.931 40.6836 51.9277V51.4614C40.708 51.4647 40.7365 51.4663 40.769 51.4663C40.8016 51.4679 40.8333 51.4688 40.8643 51.4688C40.9896 51.4688 41.0897 51.4411 41.1646 51.3857C41.241 51.332 41.2956 51.245 41.3281 51.1245L41.3599 51.0024L40.4053 48.3315H41.0693L41.7725 50.6948L41.6064 50.4165H41.8164L41.6553 50.6948L42.3584 48.3315H42.998L42.041 51.0586C41.9629 51.2799 41.8742 51.4549 41.7749 51.5835C41.6772 51.7121 41.5584 51.8032 41.4185 51.8569C41.2801 51.9106 41.1125 51.9375 40.9155 51.9375Z" fill="black" fill-opacity="0.54"/><path d="M112 47L114 49L112 51" stroke="black" stroke-opacity="0.38" stroke-linecap="round" stroke-linejoin="round"/></g><g clip-path="url(#clip2_12563_3308)"><g filter="url(#filter2_i_12563_3308)"><rect y="61" width="120" height="22" fill="#FEFCF6"/></g><path opacity="0.8" d="M93 79L97 83H89L93 79Z" fill="#258F14"/><rect x="6" y="67" width="10" height="10" rx="2" fill="#FCFCFC"/><path d="M9 69H10.5V70H9V69Z" fill="black" fill-opacity="0.38"/><path d="M9 73H10.5V74H9V73Z" fill="black" fill-opacity="0.38"/><path d="M11.5 73H13V74H11.5V73Z" fill="black" fill-opacity="0.38"/><path d="M10.5 74H11.5V75H10.5V74Z" fill="black" fill-opacity="0.38"/><path d="M8 70H9V73H8V70Z" fill="black" fill-opacity="0.38"/><path d="M10.5 70H11.5V71H10.5V70Z" fill="black" fill-opacity="0.38"/><path d="M11.5 69H13V70H11.5V69Z" fill="black" fill-opacity="0.38"/><path d="M13 70H14V73H13V70Z" fill="black" fill-opacity="0.38"/><path d="M20.4346 74V70.4771H21.0645V71.9419H22.7783V70.4771H23.4058V74H22.7783V72.4717H21.0645V74H20.4346ZM25.0977 74.0537C24.8991 74.0537 24.7323 74.0155 24.5972 73.939C24.4621 73.8608 24.3604 73.7477 24.292 73.5996C24.2236 73.4499 24.1895 73.2692 24.1895 73.0576V71.3315H24.7974V72.9185C24.7974 73.1252 24.8381 73.2806 24.9194 73.3848C25.0008 73.4889 25.1335 73.541 25.3174 73.541C25.4476 73.541 25.5575 73.5142 25.647 73.4604C25.7381 73.4067 25.8065 73.3311 25.8521 73.2334C25.8976 73.1357 25.9204 73.0202 25.9204 72.8867V71.3315H26.5283V74H25.9204V73.5947H25.8789C25.8171 73.738 25.7194 73.8503 25.5859 73.9316C25.4541 74.013 25.2913 74.0537 25.0977 74.0537ZM27.2705 74V71.3315H27.8784V71.7466H27.9199C27.9769 71.5985 28.0688 71.4837 28.1958 71.4023C28.3244 71.321 28.4766 71.2803 28.6523 71.2803C28.7728 71.2803 28.881 71.2998 28.9771 71.3389C29.0747 71.3779 29.1585 71.4333 29.2285 71.5049C29.2985 71.5765 29.3522 71.6619 29.3896 71.7612H29.4336C29.4775 71.6652 29.5386 71.5814 29.6167 71.5098C29.6965 71.4365 29.7892 71.3804 29.895 71.3413C30.0024 71.3006 30.118 71.2803 30.2417 71.2803C30.4207 71.2803 30.5737 71.3161 30.7007 71.3877C30.8293 71.4577 30.9277 71.5586 30.9961 71.6904C31.0661 71.8223 31.1011 71.9801 31.1011 72.1641V74H30.4932V72.313C30.4932 72.1388 30.4533 72.0086 30.3735 71.9224C30.2938 71.8345 30.1725 71.7905 30.0098 71.7905C29.904 71.7905 29.812 71.8149 29.7339 71.8638C29.6558 71.911 29.5947 71.9753 29.5508 72.0566C29.5085 72.138 29.4873 72.23 29.4873 72.3325V74H28.8794V72.269C28.8794 72.1209 28.8363 72.0046 28.75 71.9199C28.6654 71.8337 28.5482 71.7905 28.3984 71.7905C28.2992 71.7905 28.2096 71.8166 28.1299 71.8687C28.0518 71.9191 27.9899 71.9891 27.9443 72.0786C27.9004 72.1665 27.8784 72.2658 27.8784 72.3765V74H27.2705ZM32.9688 74.0537C32.7035 74.0537 32.4748 73.9984 32.2827 73.8877C32.0907 73.7754 31.9425 73.6159 31.8384 73.4092C31.7358 73.2025 31.6846 72.9551 31.6846 72.667V72.6621C31.6846 72.3773 31.7367 72.1315 31.8408 71.9248C31.945 71.7165 32.0923 71.557 32.2827 71.4463C32.4748 71.3356 32.7035 71.2803 32.9688 71.2803C33.234 71.2803 33.4619 71.3356 33.6523 71.4463C33.8444 71.557 33.9925 71.7157 34.0967 71.9224C34.2008 72.1291 34.2529 72.3757 34.2529 72.6621V72.667C34.2529 72.9551 34.2008 73.2025 34.0967 73.4092C33.9941 73.6159 33.8468 73.7754 33.6548 73.8877C33.4644 73.9984 33.2357 74.0537 32.9688 74.0537ZM32.9688 73.5605C33.1087 73.5605 33.2275 73.5256 33.3252 73.4556C33.4245 73.384 33.5002 73.2822 33.5522 73.1504C33.6043 73.0169 33.6304 72.8566 33.6304 72.6694V72.6646C33.6304 72.4757 33.6043 72.3154 33.5522 72.1836C33.5002 72.0501 33.4245 71.9484 33.3252 71.8784C33.2275 71.8068 33.1087 71.771 32.9688 71.771C32.8288 71.771 32.7091 71.8068 32.6099 71.8784C32.5106 71.9484 32.4349 72.0501 32.3828 72.1836C32.3307 72.3154 32.3047 72.4757 32.3047 72.6646V72.6694C32.3047 72.8566 32.3307 73.0169 32.3828 73.1504C32.4349 73.2839 32.5098 73.3856 32.6074 73.4556C32.7067 73.5256 32.8271 73.5605 32.9688 73.5605ZM34.8633 74V71.3315H35.4712V71.7417H35.5127C35.5583 71.5985 35.6396 71.487 35.7568 71.4072C35.8757 71.3275 36.0229 71.2876 36.1987 71.2876C36.2443 71.2876 36.2891 71.2909 36.333 71.2974C36.3786 71.3022 36.416 71.3088 36.4453 71.3169V71.8613C36.3965 71.8499 36.3468 71.8418 36.2964 71.8369C36.2476 71.8304 36.1963 71.8271 36.1426 71.8271C36.0075 71.8271 35.8895 71.8524 35.7886 71.9028C35.6877 71.9533 35.6095 72.0257 35.5542 72.1201C35.4989 72.2129 35.4712 72.3228 35.4712 72.4497V74H34.8633Z" fill="black" fill-opacity="0.54"/><rect x="104" y="67" width="10" height="10" rx="2" fill="#FCFCFC"/><path d="M107 69H108.5V70H107V69Z" fill="black" fill-opacity="0.38"/><path d="M107 73H108.5V74H107V73Z" fill="black" fill-opacity="0.38"/><path d="M109.5 73H111V74H109.5V73Z" fill="black" fill-opacity="0.38"/><path d="M108.5 74H109.5V75H108.5V74Z" fill="black" fill-opacity="0.38"/><path d="M106 70H107V73H106V70Z" fill="black" fill-opacity="0.38"/><path d="M108.5 70H109.5V71H108.5V70Z" fill="black" fill-opacity="0.38"/><path d="M109.5 69H111V70H109.5V69Z" fill="black" fill-opacity="0.38"/><path d="M111 70H112V73H111V70Z" fill="black" fill-opacity="0.38"/></g><g clip-path="url(#clip3_12563_3308)"><g filter="url(#filter3_i_12563_3308)"><rect y="84" width="120" height="22" fill="#FEFCF6"/></g><path opacity="0.8" d="M40 102L44 106H36L40 102Z" fill="#258F14"/><rect x="6" y="90" width="10" height="10" rx="2" fill="#FCFCFC"/><path d="M9 92H10.5V93H9V92Z" fill="black" fill-opacity="0.38"/><path d="M9 96H10.5V97H9V96Z" fill="black" fill-opacity="0.38"/><path d="M11.5 96H13V97H11.5V96Z" fill="black" fill-opacity="0.38"/><path d="M10.5 97H11.5V98H10.5V97Z" fill="black" fill-opacity="0.38"/><path d="M8 93H9V96H8V93Z" fill="black" fill-opacity="0.38"/><path d="M10.5 93H11.5V94H10.5V93Z" fill="black" fill-opacity="0.38"/><path d="M11.5 92H13V93H11.5V92Z" fill="black" fill-opacity="0.38"/><path d="M13 93H14V96H13V93Z" fill="black" fill-opacity="0.38"/><path d="M20.7495 95.8354V95.3276H21.687C21.9132 95.3276 22.089 95.2699 22.2144 95.1543C22.3397 95.0371 22.4023 94.8727 22.4023 94.6611V94.6562C22.4023 94.443 22.3397 94.2786 22.2144 94.1631C22.089 94.0475 21.9132 93.9897 21.687 93.9897H20.7495V93.4771H21.8408C22.0801 93.4771 22.2892 93.5259 22.4683 93.6235C22.6473 93.7212 22.7873 93.8587 22.8882 94.0361C22.9891 94.2119 23.0396 94.4178 23.0396 94.6538V94.6587C23.0396 94.8931 22.9891 95.099 22.8882 95.2764C22.7873 95.4521 22.6473 95.5897 22.4683 95.689C22.2892 95.7866 22.0801 95.8354 21.8408 95.8354H20.7495ZM20.4346 97V93.4771H21.0645V97H20.4346ZM24.3018 97.0439C24.1341 97.0439 23.9836 97.0114 23.8501 96.9463C23.7183 96.8812 23.6141 96.7892 23.5376 96.6704C23.4627 96.55 23.4253 96.4084 23.4253 96.2456V96.2407C23.4253 96.0031 23.5124 95.8159 23.6865 95.6792C23.8623 95.5425 24.113 95.4652 24.4385 95.4473L25.4248 95.3862V95.7866L24.5239 95.8452C24.353 95.855 24.2269 95.8908 24.1455 95.9526C24.0641 96.0145 24.0234 96.1007 24.0234 96.2114V96.2163C24.0234 96.3302 24.0666 96.4189 24.1528 96.4824C24.2407 96.5459 24.3522 96.5776 24.4873 96.5776C24.6094 96.5776 24.7184 96.5532 24.8145 96.5044C24.9105 96.4556 24.9862 96.3896 25.0415 96.3066C25.0968 96.222 25.1245 96.1268 25.1245 96.021V95.1763C25.1245 95.0428 25.0822 94.9411 24.9976 94.8711C24.9129 94.7995 24.7876 94.7637 24.6216 94.7637C24.4832 94.7637 24.3701 94.7881 24.2822 94.8369C24.1943 94.8841 24.1349 94.9517 24.104 95.0396L24.1016 95.0493H23.5278L23.5303 95.0273C23.5498 94.8776 23.6084 94.7466 23.7061 94.6343C23.8037 94.522 23.9331 94.4349 24.0942 94.373C24.2554 94.3112 24.4409 94.2803 24.6509 94.2803C24.882 94.2803 25.0773 94.3161 25.2368 94.3877C25.3963 94.4577 25.5176 94.5602 25.6006 94.6953C25.6836 94.8288 25.7251 94.9891 25.7251 95.1763V97H25.1245V96.6338H25.083C25.0342 96.7184 24.9707 96.7917 24.8926 96.8535C24.8161 96.9154 24.7282 96.9626 24.6289 96.9951C24.5296 97.0277 24.4206 97.0439 24.3018 97.0439ZM27.5049 97.0122C27.1989 97.0122 26.9784 96.9561 26.8433 96.8438C26.7082 96.7314 26.6406 96.5475 26.6406 96.292V94.8027H26.2256V94.3315H26.6406V93.6772H27.2583V94.3315H27.8198V94.8027H27.2583V96.1479C27.2583 96.2798 27.286 96.3766 27.3413 96.4385C27.3983 96.4987 27.4894 96.5288 27.6147 96.5288C27.6587 96.5288 27.6945 96.528 27.7222 96.5264C27.7515 96.5231 27.784 96.5199 27.8198 96.5166V96.9854C27.7775 96.9935 27.7287 97 27.6733 97.0049C27.6196 97.0098 27.5635 97.0122 27.5049 97.0122ZM28.4351 97V94.3315H29.0405V97H28.4351ZM28.7402 93.8848C28.641 93.8848 28.5555 93.8498 28.4839 93.7798C28.4123 93.7098 28.3765 93.626 28.3765 93.5283C28.3765 93.4274 28.4123 93.3428 28.4839 93.2744C28.5555 93.2044 28.641 93.1694 28.7402 93.1694C28.8395 93.1694 28.9242 93.2044 28.9941 93.2744C29.0658 93.3428 29.1016 93.4274 29.1016 93.5283C29.1016 93.626 29.0658 93.7098 28.9941 93.7798C28.9242 93.8498 28.8395 93.8848 28.7402 93.8848ZM30.9326 97.0537C30.6673 97.0537 30.4395 96.9976 30.249 96.8853C30.0602 96.7729 29.9146 96.6134 29.812 96.4067C29.7095 96.2 29.6582 95.9551 29.6582 95.6719V95.6694C29.6582 95.3895 29.7087 95.1453 29.8096 94.937C29.9121 94.7287 30.057 94.5675 30.2441 94.4536C30.4313 94.3381 30.651 94.2803 30.9033 94.2803C31.1572 94.2803 31.3753 94.3364 31.5576 94.4487C31.7415 94.5594 31.8831 94.7148 31.9824 94.915C32.0817 95.1152 32.1313 95.3496 32.1313 95.6182V95.8184H29.9634V95.4106H31.8335L31.5454 95.7915V95.5498C31.5454 95.3724 31.5186 95.2251 31.4648 95.1079C31.4111 94.9907 31.3363 94.9028 31.2402 94.8442C31.1458 94.7856 31.036 94.7563 30.9106 94.7563C30.7853 94.7563 30.6738 94.7873 30.5762 94.8491C30.4801 94.9093 30.4036 94.9989 30.3467 95.1177C30.2913 95.2349 30.2637 95.3789 30.2637 95.5498V95.7939C30.2637 95.9583 30.2913 96.0991 30.3467 96.2163C30.402 96.3319 30.4801 96.4214 30.5811 96.4849C30.6836 96.5467 30.8049 96.5776 30.9448 96.5776C31.0539 96.5776 31.1475 96.5622 31.2256 96.5312C31.3053 96.4987 31.3696 96.4604 31.4185 96.4165C31.4673 96.3709 31.5015 96.3278 31.521 96.2871L31.5283 96.27H32.1045L32.0996 96.292C32.0785 96.3783 32.0394 96.4661 31.9824 96.5557C31.9271 96.6436 31.8514 96.7257 31.7554 96.8022C31.661 96.8771 31.5454 96.9382 31.4087 96.9854C31.272 97.0309 31.1133 97.0537 30.9326 97.0537ZM32.7393 97V94.3315H33.3472V94.7417H33.3887C33.4521 94.5968 33.5482 94.4837 33.6768 94.4023C33.8053 94.321 33.9657 94.2803 34.1577 94.2803C34.4556 94.2803 34.6834 94.3665 34.8413 94.5391C34.9992 94.7116 35.0781 94.9565 35.0781 95.2739V97H34.4702V95.4155C34.4702 95.2072 34.4263 95.0509 34.3384 94.9468C34.2521 94.8426 34.117 94.7905 33.9331 94.7905C33.8127 94.7905 33.7085 94.8174 33.6206 94.8711C33.5327 94.9248 33.4652 95.0005 33.418 95.0981C33.3708 95.1958 33.3472 95.3114 33.3472 95.4448V97H32.7393ZM36.9409 97.0537C36.6724 97.0537 36.4429 96.9984 36.2524 96.8877C36.062 96.777 35.9163 96.6175 35.8154 96.4092C35.7145 96.2008 35.6641 95.9518 35.6641 95.6621V95.6572C35.6641 95.3691 35.7145 95.1226 35.8154 94.9175C35.9163 94.7124 36.062 94.5553 36.2524 94.4463C36.4429 94.3356 36.6715 94.2803 36.9385 94.2803C37.168 94.2803 37.3649 94.3201 37.5293 94.3999C37.6953 94.478 37.8263 94.5871 37.9224 94.7271C38.02 94.8654 38.0802 95.0273 38.103 95.2129V95.2227H37.5293L37.5269 95.2153C37.4992 95.0851 37.4357 94.9785 37.3364 94.8955C37.2388 94.8125 37.1069 94.771 36.9409 94.771C36.8026 94.771 36.6838 94.806 36.5845 94.876C36.4868 94.946 36.4119 95.0469 36.3599 95.1787C36.3078 95.3105 36.2817 95.4701 36.2817 95.6572V95.6621C36.2817 95.8509 36.3078 96.0129 36.3599 96.1479C36.4136 96.2814 36.4893 96.384 36.5869 96.4556C36.6846 96.5256 36.8026 96.5605 36.9409 96.5605C37.0988 96.5605 37.2257 96.5247 37.3218 96.4531C37.4194 96.3815 37.487 96.2757 37.5244 96.1357L37.5293 96.126L38.1006 96.1235L38.0981 96.1455C38.0688 96.3262 38.0054 96.4849 37.9077 96.6216C37.8117 96.7583 37.6831 96.8649 37.522 96.9414C37.3608 97.0163 37.1672 97.0537 36.9409 97.0537ZM39.8242 97.0537C39.5589 97.0537 39.3311 96.9976 39.1406 96.8853C38.9518 96.7729 38.8062 96.6134 38.7036 96.4067C38.6011 96.2 38.5498 95.9551 38.5498 95.6719V95.6694C38.5498 95.3895 38.6003 95.1453 38.7012 94.937C38.8037 94.7287 38.9486 94.5675 39.1357 94.4536C39.3229 94.3381 39.5426 94.2803 39.7949 94.2803C40.0488 94.2803 40.2669 94.3364 40.4492 94.4487C40.6331 94.5594 40.7747 94.7148 40.874 94.915C40.9733 95.1152 41.0229 95.3496 41.0229 95.6182V95.8184H38.855V95.4106H40.7251L40.437 95.7915V95.5498C40.437 95.3724 40.4102 95.2251 40.3564 95.1079C40.3027 94.9907 40.2279 94.9028 40.1318 94.8442C40.0374 94.7856 39.9276 94.7563 39.8022 94.7563C39.6769 94.7563 39.5654 94.7873 39.4678 94.8491C39.3717 94.9093 39.2952 94.9989 39.2383 95.1177C39.1829 95.2349 39.1553 95.3789 39.1553 95.5498V95.7939C39.1553 95.9583 39.1829 96.0991 39.2383 96.2163C39.2936 96.3319 39.3717 96.4214 39.4727 96.4849C39.5752 96.5467 39.6965 96.5776 39.8364 96.5776C39.9455 96.5776 40.0391 96.5622 40.1172 96.5312C40.1969 96.4987 40.2612 96.4604 40.3101 96.4165C40.3589 96.3709 40.3931 96.3278 40.4126 96.2871L40.4199 96.27H40.9961L40.9912 96.292C40.9701 96.3783 40.931 96.4661 40.874 96.5557C40.8187 96.6436 40.743 96.7257 40.647 96.8022C40.5526 96.8771 40.437 96.9382 40.3003 96.9854C40.1636 97.0309 40.0049 97.0537 39.8242 97.0537Z" fill="black" fill-opacity="0.54"/><rect x="104" y="90" width="10" height="10" rx="2" fill="#FCFCFC"/><path d="M107 92H108.5V93H107V92Z" fill="black" fill-opacity="0.38"/><path d="M107 96H108.5V97H107V96Z" fill="black" fill-opacity="0.38"/><path d="M109.5 96H111V97H109.5V96Z" fill="black" fill-opacity="0.38"/><path d="M108.5 97H109.5V98H108.5V97Z" fill="black" fill-opacity="0.38"/><path d="M106 93H107V96H106V93Z" fill="black" fill-opacity="0.38"/><path d="M108.5 93H109.5V94H108.5V93Z" fill="black" fill-opacity="0.38"/><path d="M109.5 92H111V93H109.5V92Z" fill="black" fill-opacity="0.38"/><path d="M111 93H112V96H111V93Z" fill="black" fill-opacity="0.38"/></g><defs><filter id="filter0_i_12563_3308" x="0" y="15" width="120" height="22" filterUnits="userSpaceOnUse" color-interpolation-filters="sRGB"><feFlood flood-opacity="0" result="BackgroundImageFix"/><feBlend mode="normal" in="SourceGraphic" in2="BackgroundImageFix" result="shape"/><feColorMatrix in="SourceAlpha" type="matrix" values="0 0 0 0 0 0 0 0 0 0 0 0 0 0 0 0 0 0 127 0" result="hardAlpha"/><feOffset dx="82"/><feComposite in2="hardAlpha" operator="arithmetic" k2="-1" k3="1"/><feColorMatrix type="matrix" values="0 0 0 0 0.9725 0 0 0 0 0.93125 0 0 0 0 0.8075 0 0 0 1 0"/><feBlend mode="normal" in2="shape" result="effect1_innerShadow_12563_3308"/></filter><filter id="filter1_i_12563_3308" x="0" y="38" width="120" height="22" filterUnits="userSpaceOnUse" color-interpolation-filters="sRGB"><feFlood flood-opacity="0" result="BackgroundImageFix"/><feBlend mode="normal" in="SourceGraphic" in2="BackgroundImageFix" result="shape"/><feColorMatrix in="SourceAlpha" type="matrix" values="0 0 0 0 0 0 0 0 0 0 0 0 0 0 0 0 0 0 127 0" result="hardAlpha"/><feOffset dx="120"/><feComposite in2="hardAlpha" operator="arithmetic" k2="-1" k3="1"/><feColorMatrix type="matrix" values="0 0 0 0 0.9725 0 0 0 0 0.93125 0 0 0 0 0.8075 0 0 0 1 0"/><feBlend mode="normal" in2="shape" result="effect1_innerShadow_12563_3308"/></filter><filter id="filter2_i_12563_3308" x="0" y="61" width="120" height="22" filterUnits="userSpaceOnUse" color-interpolation-filters="sRGB"><feFlood flood-opacity="0" result="BackgroundImageFix"/><feBlend mode="normal" in="SourceGraphic" in2="BackgroundImageFix" result="shape"/><feColorMatrix in="SourceAlpha" type="matrix" values="0 0 0 0 0 0 0 0 0 0 0 0 0 0 0 0 0 0 127 0" result="hardAlpha"/><feOffset dx="93"/><feComposite in2="hardAlpha" operator="arithmetic" k2="-1" k3="1"/><feColorMatrix type="matrix" values="0 0 0 0 0.9725 0 0 0 0 0.93125 0 0 0 0 0.8075 0 0 0 1 0"/><feBlend mode="normal" in2="shape" result="effect1_innerShadow_12563_3308"/></filter><filter id="filter3_i_12563_3308" x="0" y="84" width="120" height="22" filterUnits="userSpaceOnUse" color-interpolation-filters="sRGB"><feFlood flood-opacity="0" result="BackgroundImageFix"/><feBlend mode="normal" in="SourceGraphic" in2="BackgroundImageFix" result="shape"/><feColorMatrix in="SourceAlpha" type="matrix" values="0 0 0 0 0 0 0 0 0 0 0 0 0 0 0 0 0 0 127 0" result="hardAlpha"/><feOffset dx="40"/><feComposite in2="hardAlpha" operator="arithmetic" k2="-1" k3="1"/><feColorMatrix type="matrix" values="0 0 0 0 0.9725 0 0 0 0 0.93125 0 0 0 0 0.8075 0 0 0 1 0"/><feBlend mode="normal" in2="shape" result="effect1_innerShadow_12563_3308"/></filter><clipPath id="clip0_12563_3308"><path d="M0 19C0 16.7909 1.79086 15 4 15H116C118.209 15 120 16.7909 120 19V33C120 35.2091 118.209 37 116 37H4C1.79086 37 0 35.2091 0 33V19Z" fill="white"/></clipPath><clipPath id="clip1_12563_3308"><path d="M0 42C0 39.7909 1.79086 38 4 38H116C118.209 38 120 39.7909 120 42V56C120 58.2091 118.209 60 116 60H4C1.79086 60 0 58.2091 0 56V42Z" fill="white"/></clipPath><clipPath id="clip2_12563_3308"><path d="M0 65C0 62.7909 1.79086 61 4 61H116C118.209 61 120 62.7909 120 65V79C120 81.2091 118.209 83 116 83H4C1.79086 83 0 81.2091 0 79V65Z" fill="white"/></clipPath><clipPath id="clip3_12563_3308"><path d="M0 88C0 85.7909 1.79086 84 4 84H116C118.209 84 120 85.7909 120 88V102C120 104.209 118.209 106 116 106H4C1.79086 106 0 104.209 0 102V88Z" fill="white"/></clipPath></defs></svg>