<svg xmlns="http://www.w3.org/2000/svg" xmlns:xlink="http://www.w3.org/1999/xlink"><symbol fill="none" viewBox="0 0 24 24" id="icon-add" xmlns="http://www.w3.org/2000/svg"><circle cx="12" cy="12" r="12" fill="var(--color-fill-icon)"/><path d="M12 5v14m-7-7h14" stroke="var(--color-stroke-icon)" stroke-width="var(--width-stroke-icon)" stroke-linecap="round" stroke-linejoin="round"/></symbol><symbol fill="none" viewBox="0 0 24 24" id="icon-arrow-up" xmlns="http://www.w3.org/2000/svg"><circle cx="12" cy="12" r="12" fill="var(--color-fill-icon)"/><path d="M12 19V5m0 0L8 9m4-4 4 4" stroke="var(--color-stroke-icon)" stroke-width="var(--width-stroke-icon)" stroke-linecap="round" stroke-linejoin="round"/></symbol><symbol fill="none" viewBox="0 0 24 24" id="icon-bell" xmlns="http://www.w3.org/2000/svg"><path d="M10.586 3.586A2 2 0 0 0 10 5a7 7 0 0 0-4 6v3a4 4 0 0 1-2 3h5v1a3 3 0 1 0 6 0v-1h5a4 4 0 0 1-2-3v-3a7 7 0 0 0-4-6 2 2 0 0 0-3.414-1.414Z" fill="var(--color-fill-icon)"/><path d="M9 17v1a3 3 0 0 0 6 0v-1M10 5a2 2 0 1 1 4 0 7 7 0 0 1 4 6v3a4 4 0 0 0 2 3H4a4 4 0 0 0 2-3v-3a7 7 0 0 1 4-6Z" stroke="var(--color-stroke-icon)" stroke-width="var(--width-stroke-icon)" stroke-linecap="round" stroke-linejoin="round"/></symbol><symbol fill="none" viewBox="0 0 24 24" id="icon-book" xmlns="http://www.w3.org/2000/svg"><path fill="var(--color-fill-icon)" d="M9 4h10v16H9z"/><path d="M9 4v18m4-14h2m-2 4h2M6 4h11a2 2 0 0 1 2 2v12a2 2 0 0 1-2 2H6a1 1 0 0 1-1-1V5a1 1 0 0 1 1-1Z" stroke="var(--color-stroke-icon)" stroke-width="var(--width-stroke-icon)" stroke-linecap="round" stroke-linejoin="round"/></symbol><symbol fill="none" viewBox="0 0 24 24" id="icon-brand-apple" xmlns="http://www.w3.org/2000/svg"><path d="M8.286 7.008C5.07 7.008 4 10.238 4 12.928 4 16.157 6.143 21 8.286 21c1.165-.05 1.799-.538 3.214-.538 1.406 0 1.607.538 3.214.538S19 17.771 19 15.619c-.03-.011-2.649-.434-2.679-3.23-.02-2.335 2.589-3.179 2.679-3.228-1.096-1.606-3.162-2.113-3.75-2.153-1.535-.12-3.032 1.077-3.75 1.077-.729 0-2.036-1.077-3.214-1.077ZM12 4a2 2 0 0 0 2-2 2 2 0 0 0-2 2Z" stroke="var(--color-stroke-icon)" stroke-width="var(--width-stroke-icon)" stroke-linecap="round" stroke-linejoin="round"/></symbol><symbol fill="none" viewBox="0 0 24 24" id="icon-brand-facebook" xmlns="http://www.w3.org/2000/svg"><path d="M12 21v-9c0-2.187.5-4 4-4m-6 5h6M5 21h14a2 2 0 0 0 2-2V5a2 2 0 0 0-2-2H5a2 2 0 0 0-2 2v14a2 2 0 0 0 2 2Z" stroke="var(--color-stroke-icon)" stroke-width="var(--width-stroke-icon)" stroke-linecap="round" stroke-linejoin="round"/></symbol><symbol fill="none" viewBox="0 0 24 24" id="icon-brand-google" xmlns="http://www.w3.org/2000/svg"><path d="M17.788 5.108A9 9 0 1 0 21 12h-8" stroke="var(--color-stroke-icon)" stroke-width="var(--width-stroke-icon)" stroke-linecap="round" stroke-linejoin="round"/></symbol><symbol fill="none" viewBox="0 0 24 24" id="icon-brand-instagram" xmlns="http://www.w3.org/2000/svg"><path d="M17 7v.011M15.5 12a3.5 3.5 0 1 1-7 0 3.5 3.5 0 0 1 7 0ZM7 21h10a4 4 0 0 0 4-4V7a4 4 0 0 0-4-4H7a4 4 0 0 0-4 4v10a4 4 0 0 0 4 4Z" stroke="var(--color-stroke-icon)" stroke-width="var(--width-stroke-icon)"/></symbol><symbol fill="none" viewBox="0 0 24 24" id="icon-brand-linkedin" xmlns="http://www.w3.org/2000/svg"><path d="M8 11v5m0-8v.01M12 16v-5m4 5v-3a2 2 0 0 0-4 0M4 6a2 2 0 0 1 2-2h12a2 2 0 0 1 2 2v12a2 2 0 0 1-2 2H6a2 2 0 0 1-2-2V6Z" stroke="var(--color-stroke-icon)" stroke-width="var(--width-stroke-icon)" stroke-linecap="round" stroke-linejoin="round"/></symbol><symbol fill="none" viewBox="0 0 24 24" id="icon-brand-telegram" xmlns="http://www.w3.org/2000/svg"><path d="m12 15-3 4-2-6-4-2 18-7-4 16-5-5Zm0 0-1-1 4-4" stroke="var(--color-stroke-icon)" stroke-width="var(--width-stroke-icon)" stroke-linecap="round" stroke-linejoin="round"/></symbol><symbol fill="none" viewBox="0 0 24 24" id="icon-brand-whatsapp" xmlns="http://www.w3.org/2000/svg"><path d="M9 10a.5.5 0 1 0 1 0V9a.5.5 0 0 0-1 0v1Zm0 0a5 5 0 0 0 5 5m0 0h1a.5.5 0 0 0 0-1h-1a.5.5 0 1 0 0 1ZM3 21l1.65-3.8a9 9 0 1 1 3.4 2.9L3 21Z" stroke="var(--color-stroke-icon)" stroke-width="var(--width-stroke-icon)" stroke-linecap="round" stroke-linejoin="round"/></symbol><symbol fill="none" viewBox="0 0 24 24" id="icon-brand-x" xmlns="http://www.w3.org/2000/svg"><path d="m4 20 6.768-6.768m2.46-2.46L20 4M4 4l11.733 16H20L8.267 4H4Z" stroke="var(--color-stroke-icon)" stroke-width="var(--width-stroke-icon)" stroke-linecap="round" stroke-linejoin="round"/></symbol><symbol fill="none" viewBox="0 0 24 24" id="icon-checkmark" xmlns="http://www.w3.org/2000/svg"><path d="m5 12 5 5L20 7" stroke="var(--color-stroke-icon)" stroke-width="var(--width-stroke-icon)" stroke-linecap="round" stroke-linejoin="round"/></symbol><symbol fill="none" viewBox="0 0 24 24" id="icon-chevron-right" xmlns="http://www.w3.org/2000/svg"><path d="m9 18 6-6-6-6" stroke="var(--color-stroke-icon)" stroke-width="var(--width-stroke-icon)" stroke-linecap="round" stroke-linejoin="round"/></symbol><symbol fill="none" viewBox="0 0 24 24" id="icon-download" xmlns="http://www.w3.org/2000/svg"><path d="M3 14h18v5a2 2 0 0 1-2 2H5a2 2 0 0 1-2-2v-5Z" fill="var(--color-fill-icon)"/><path d="M3 15v4a2 2 0 0 0 2 2h14a2 2 0 0 0 2-2v-4M7 12l5 5m0 0 5-5m-5 5V3" stroke="var(--color-stroke-icon)" stroke-width="var(--width-stroke-icon)" stroke-linecap="round" stroke-linejoin="round"/></symbol><symbol fill="none" viewBox="0 0 24 24" id="icon-dp" xmlns="http://www.w3.org/2000/svg"><rect x="3" y="3" width="18" height="18" rx="2" fill="var(--color-fill-icon)"/><path d="M8 21H5a2 2 0 0 1-2-2v-3m13 5h3a2 2 0 0 0 2-2v-3M3 8V5a2 2 0 0 1 2-2h3m8 0h3a2 2 0 0 1 2 2v3M7.126 17c.444-1.725 2.01-3 3.874-3h2a4.002 4.002 0 0 1 3.874 3M14.5 8.5a2.5 2.5 0 1 1-5 0 2.5 2.5 0 0 1 5 0Z" stroke="var(--color-stroke-icon)" stroke-width="var(--width-stroke-icon)" stroke-linecap="round" stroke-linejoin="round"/></symbol><symbol fill="none" viewBox="0 0 24 24" id="icon-eye" xmlns="http://www.w3.org/2000/svg"><path d="M12 14a2 2 0 1 0 0-4 2 2 0 0 0 0 4Z" stroke="var(--color-stroke-icon)" stroke-width="var(--width-stroke-icon)" stroke-linecap="round" stroke-linejoin="round"/><path d="M22 12c-2.667 4.667-6 7-10 7s-7.333-2.333-10-7c2.667-4.667 6-7 10-7s7.333 2.333 10 7Z" stroke="var(--color-stroke-icon)" stroke-width="var(--width-stroke-icon)" stroke-linecap="round" stroke-linejoin="round"/></symbol><symbol fill="none" viewBox="0 0 24 24" id="icon-eye-slash" xmlns="http://www.w3.org/2000/svg"><path d="m3 3 18 18M10.584 10.587a2 2 0 1 0 2.828 2.83M9.363 5.365A9.466 9.466 0 0 1 12 5c4 0 7.333 2.333 10 7-.778 1.361-1.612 2.524-2.503 3.488m-2.14 1.861C15.726 18.449 13.942 19 12 19c-4 0-7.333-2.333-10-7 1.369-2.395 2.913-4.175 4.632-5.341" stroke="var(--color-stroke-icon)" stroke-width="var(--width-stroke-icon)" stroke-linecap="round" stroke-linejoin="round"/></symbol><symbol fill="none" viewBox="0 0 24 24" id="icon-help" xmlns="http://www.w3.org/2000/svg"><path d="M12 17v.01m0-3.51a1.5 1.5 0 0 1 1-1.5 2.6 2.6 0 1 0-3-4m11 4a9 9 0 1 1-18 0 9 9 0 0 1 18 0Z" stroke="var(--color-stroke-icon)" stroke-width="var(--width-stroke-icon)" stroke-linecap="round" stroke-linejoin="round"/></symbol><symbol fill="none" viewBox="0 0 24 24" id="icon-home" xmlns="http://www.w3.org/2000/svg"><path d="M12 3 5 9.222V20a1 1 0 0 0 1 1h4v-7h4v7h4a1 1 0 0 0 1-1V9.222L12 3Z" fill="var(--color-fill-icon)"/><path d="m21 11-2-1.778M3 11l2-1.778m0 0L12 3l7 6.222m-14 0V20a1 1 0 0 0 1 1h4m9-11.778V20a1 1 0 0 1-1 1h-4m5-11.778V5m-9 16v-7h4v7m-4 0h4" stroke="var(--color-stroke-icon)" stroke-width="var(--width-stroke-icon)" stroke-linecap="round" stroke-linejoin="round"/></symbol><symbol fill="none" viewBox="0 0 24 24" id="icon-lock" xmlns="http://www.w3.org/2000/svg"><path d="M8 11V7a4 4 0 0 1 8 0v4m-9 0h10a2 2 0 0 1 2 2v6a2 2 0 0 1-2 2H7a2 2 0 0 1-2-2v-6a2 2 0 0 1 2-2Zm6 5a1 1 0 1 1-2 0 1 1 0 0 1 2 0Z" stroke="var(--color-stroke-icon)" stroke-width="var(--width-stroke-icon)" stroke-linecap="round" stroke-linejoin="round"/></symbol><symbol fill="none" viewBox="0 0 24 24" id="icon-mail" xmlns="http://www.w3.org/2000/svg"><rect x="3" y="5" width="18" height="14" rx="2" fill="var(--color-fill-icon)"/><path d="M21 7a2 2 0 0 0-2-2H5a2 2 0 0 0-2 2m18 0v10a2 2 0 0 1-2 2H5a2 2 0 0 1-2-2V7m18 0-9 6-9-6" stroke="var(--color-stroke-icon)" stroke-width="var(--width-stroke-icon)" stroke-linecap="round" stroke-linejoin="round"/></symbol><symbol fill="none" viewBox="0 0 24 24" id="icon-message" xmlns="http://www.w3.org/2000/svg"><path d="m3 20 1.3-3.9c-1.124-1.662-1.53-3.63-1.144-5.538.386-1.908 1.54-3.626 3.244-4.836 1.704-1.21 3.845-1.827 6.024-1.739 2.179.089 4.248.877 5.821 2.22 1.574 1.342 2.546 3.147 2.735 5.078.19 1.931-.417 3.858-1.706 5.422-1.29 1.564-3.173 2.659-5.302 3.08-2.13.422-4.358.142-6.272-.787L3 20Z" fill="var(--color-fill-icon)"/><path d="M12 12v.01M8 12v.01m8-.01v.01M3 20l1.3-3.9c-1.124-1.662-1.53-3.63-1.144-5.538.386-1.908 1.54-3.626 3.244-4.836 1.704-1.21 3.845-1.827 6.024-1.739 2.179.089 4.248.877 5.821 2.22 1.574 1.342 2.546 3.147 2.735 5.078.19 1.931-.417 3.858-1.706 5.422-1.29 1.564-3.173 2.659-5.302 3.08-2.13.422-4.358.142-6.272-.787L3 20Z" stroke="var(--color-stroke-icon)" stroke-width="var(--width-stroke-icon)" stroke-linecap="round" stroke-linejoin="round"/></symbol><symbol fill="none" viewBox="0 0 24 24" id="icon-more" xmlns="http://www.w3.org/2000/svg"><path d="M5 13a1 1 0 1 0 0-2 1 1 0 0 0 0 2ZM12 13a1 1 0 1 0 0-2 1 1 0 0 0 0 2ZM19 13a1 1 0 1 0 0-2 1 1 0 0 0 0 2Z" stroke="var(--color-stroke-icon)" stroke-width="var(--width-stroke-icon)" stroke-linecap="round" stroke-linejoin="round"/></symbol><symbol fill="none" viewBox="0 0 24 24" id="icon-pixels" xmlns="http://www.w3.org/2000/svg"><path fill-rule="evenodd" clip-rule="evenodd" d="M14 6h-4v4H6v4h4v4h4v-4h4v-4h-4V6Zm0 4v4h-4v-4h4Z" fill="#E3E3E3"/><path d="M6 6h4v4H6V6ZM14 10h-4v4H6v4h4v-4h4v4h4v-4h-4v-4ZM14 10V6h4v4h-4Z" fill="#B4B4B4"/><path d="M10 2H6v4H2v4h4V6h4V2ZM18 2h-4v4h4v4h4V6h-4V2ZM2 14h4v4H2v-4ZM6 18h4v4H6v-4ZM22 14h-4v4h-4v4h4v-4h4v-4Z" fill="#F0F0F0"/><path d="M6 2H2v4h4V2ZM14 2h-4v4h4V2ZM18 2h4v4h-4V2ZM6 10H2v4h4v-4ZM18 10h4v4h-4v-4ZM6 18H2v4h4v-4ZM10 18h4v4h-4v-4ZM22 18h-4v4h4v-4Z" fill="#CCC"/></symbol><symbol fill="none" viewBox="0 0 24 24" id="icon-price" xmlns="http://www.w3.org/2000/svg"><path d="M3 7a2 2 0 0 1 2-2h10.84a2 2 0 0 1 1.736 1.008L21 12l-3.424 5.992A2 2 0 0 1 15.839 19H5a2 2 0 0 1-2-2V7Z" fill="var(--color-fill-icon)"/><path d="M9 15h.5a1.5 1.5 0 0 0 0-3h-1a1.5 1.5 0 0 1 0-3H9m0 6H7m2 0v1m2-7H9m0 0V8m12 4-3.424-5.992A2 2 0 0 0 15.839 5H5a2 2 0 0 0-2 2v10a2 2 0 0 0 2 2h10.84a2 2 0 0 0 1.736-1.008L21 12Zm-5 1a1 1 0 1 1 0-2 1 1 0 0 1 0 2Z" stroke="var(--color-stroke-icon)" stroke-width="var(--width-stroke-icon)" stroke-linecap="round" stroke-linejoin="round"/></symbol><symbol fill="none" viewBox="0 0 24 24" id="icon-search" xmlns="http://www.w3.org/2000/svg"><circle cx="10" cy="10" r="7" fill="var(--color-fill-icon)"/><path d="M14.95 14.95a7 7 0 1 0-9.9-9.9 7 7 0 0 0 9.9 9.9Zm0 0L21 21" stroke="var(--color-stroke-icon)" stroke-width="var(--width-stroke-icon)" stroke-linecap="round" stroke-linejoin="round"/></symbol><symbol fill="none" viewBox="0 0 24 24" id="icon-settings" xmlns="http://www.w3.org/2000/svg"><rect x="2" y="2" width="20" height="20" rx="3" fill="var(--color-fill-icon)"/><path d="M16 6a2 2 0 1 1-4 0m4 0a2 2 0 1 0-4 0m4 0h4m-8 0H4m6 6a2 2 0 1 1-4 0m4 0a2 2 0 1 0-4 0m4 0h10M6 12H4m15 6a2 2 0 1 1-4 0m4 0a2 2 0 1 0-4 0m4 0h1m-5 0H4" stroke="var(--color-stroke-icon)" stroke-width="var(--width-stroke-icon)" stroke-linecap="round" stroke-linejoin="round"/></symbol><symbol fill="none" viewBox="0 0 24 24" id="icon-share" xmlns="http://www.w3.org/2000/svg"><rect x="5" y="9" width="14" height="12" rx="2" fill="var(--color-fill-icon)"/><path d="m9 5 3-3m0 0 3 3m-3-3v12" stroke="var(--color-stroke-icon)" stroke-width="var(--width-stroke-icon)" stroke-linecap="round" stroke-linejoin="round"/><path d="M8 9H7a2 2 0 0 0-2 2v8a2 2 0 0 0 2 2h10a2 2 0 0 0 2-2v-8a2 2 0 0 0-2-2h-1" stroke="var(--color-stroke-icon)" stroke-width="var(--width-stroke-icon)" stroke-linecap="round"/></symbol><symbol fill="none" viewBox="0 0 20 20" id="icon-sm-chevron-down" xmlns="http://www.w3.org/2000/svg"><path d="m6 8 4 4 4-4" stroke="var(--color-stroke-icon)" stroke-width="var(--width-stroke-icon)" stroke-linecap="round" stroke-linejoin="round"/></symbol><symbol fill="none" viewBox="0 0 20 20" id="icon-sm-chevron-left" xmlns="http://www.w3.org/2000/svg"><path d="m12 14-4-4 4-4" stroke="var(--color-stroke-icon)" stroke-width="var(--width-stroke-icon)" stroke-linecap="round" stroke-linejoin="round"/></symbol><symbol fill="none" viewBox="0 0 20 20" id="icon-sm-chevron-right" xmlns="http://www.w3.org/2000/svg"><path d="m8 14 4-4-4-4" stroke="var(--color-stroke-icon)" stroke-width="var(--width-stroke-icon)" stroke-linecap="round" stroke-linejoin="round"/></symbol><symbol fill="none" viewBox="0 0 20 20" id="icon-sm-chevron-up" xmlns="http://www.w3.org/2000/svg"><path d="m6 12 4-4 4 4" stroke="var(--color-stroke-icon)" stroke-width="var(--width-stroke-icon)" stroke-linecap="round" stroke-linejoin="round"/></symbol><symbol fill="none" viewBox="0 0 20 20" id="icon-sm-lock" xmlns="http://www.w3.org/2000/svg"><path d="M13 9V6a3 3 0 1 0-6 0v3m-1 8h8a2 2 0 0 0 2-2v-4a2 2 0 0 0-2-2H6a2 2 0 0 0-2 2v4a2 2 0 0 0 2 2Zm5-4a1 1 0 1 1-2 0 1 1 0 0 1 2 0Z" stroke="var(--color-stroke-icon)" stroke-width="var(--width-stroke-icon)"/></symbol><symbol fill="none" viewBox="0 0 20 20" id="icon-sm-x-mark" xmlns="http://www.w3.org/2000/svg"><path d="M15 5 5 15M5 5l10 10" stroke="var(--color-stroke-icon)" stroke-width="var(--width-stroke-icon)" stroke-linecap="round" stroke-linejoin="round"/></symbol><symbol fill="none" viewBox="0 0 24 24" id="icon-star" xmlns="http://www.w3.org/2000/svg"><path d="m12 17.75-6.172 3.245 1.179-6.873-5-4.867 6.9-1 3.086-6.253 3.086 6.253 6.9 1-5 4.867 1.179 6.873L12 17.75Z" stroke="var(--color-stroke-icon)" stroke-width="var(--width-stroke-icon)" stroke-linecap="round" stroke-linejoin="round"/></symbol><symbol fill="none" viewBox="0 0 24 24" id="icon-user" xmlns="http://www.w3.org/2000/svg"><path d="M6 21v-2a4 4 0 0 1 4-4h4a4 4 0 0 1 4 4v2M16 7a4 4 0 1 1-8 0 4 4 0 0 1 8 0Z" stroke="var(--color-stroke-icon)" stroke-width="var(--width-stroke-icon)" stroke-linecap="round" stroke-linejoin="round"/></symbol></svg>