<svg width="273" height="96" viewBox="0 0 273 96" fill="none" xmlns="http://www.w3.org/2000/svg">
<path d="M117.008 77V68.1758H118.027V77H117.008ZM127.308 77V70.6836H128.327V77H127.308ZM127.823 69.4648C127.632 69.4648 127.466 69.3965 127.325 69.2598C127.189 69.1191 127.12 68.9531 127.12 68.7617C127.12 68.5664 127.189 68.4004 127.325 68.2637C127.466 68.127 127.632 68.0586 127.823 68.0586C128.019 68.0586 128.185 68.127 128.321 68.2637C128.458 68.4004 128.527 68.5664 128.527 68.7617C128.527 68.9531 128.458 69.1191 128.321 69.2598C128.185 69.3965 128.019 69.4648 127.823 69.4648ZM137.971 77V71.5273H136.922V70.6836H137.971V69.9805C137.971 69.3516 138.127 68.8848 138.44 68.5801C138.752 68.2715 139.207 68.1172 139.805 68.1172C139.93 68.1172 140.047 68.123 140.157 68.1348C140.27 68.1426 140.379 68.1562 140.485 68.1758V68.9902C140.422 68.9785 140.35 68.9707 140.268 68.9668C140.186 68.9629 140.1 68.9609 140.01 68.9609C139.647 68.9609 139.385 69.0488 139.225 69.2246C139.069 69.4004 138.991 69.6621 138.991 70.0098V70.6836H140.426V71.5273H138.991V77H137.971ZM151.517 77.1113C150.916 77.1113 150.398 76.9785 149.964 76.7129C149.535 76.4473 149.203 76.0723 148.968 75.5879C148.738 75.0996 148.623 74.5254 148.623 73.8652V73.8594C148.623 73.207 148.738 72.6348 148.968 72.1426C149.203 71.6504 149.533 71.2656 149.959 70.9883C150.384 70.7109 150.882 70.5723 151.453 70.5723C152.027 70.5723 152.519 70.7051 152.929 70.9707C153.343 71.2363 153.66 71.6074 153.879 72.084C154.101 72.5566 154.213 73.1074 154.213 73.7363V74.1348H149.15V73.3203H153.691L153.187 74.0645V73.6602C153.187 73.1641 153.113 72.7559 152.964 72.4355C152.816 72.1152 152.611 71.877 152.349 71.7207C152.088 71.5605 151.787 71.4805 151.447 71.4805C151.107 71.4805 150.802 71.5645 150.533 71.7324C150.267 71.8965 150.056 72.1406 149.9 72.4648C149.744 72.7891 149.666 73.1875 149.666 73.6602V74.0645C149.666 74.5137 149.742 74.8984 149.894 75.2188C150.046 75.5352 150.263 75.7793 150.545 75.9512C150.826 76.1191 151.158 76.2031 151.541 76.2031C151.826 76.2031 152.074 76.1641 152.285 76.0859C152.496 76.0078 152.67 75.9082 152.806 75.7871C152.943 75.666 153.039 75.543 153.093 75.418L153.117 75.3652H154.136L154.125 75.4121C154.07 75.627 153.972 75.8359 153.832 76.0391C153.695 76.2383 153.517 76.4199 153.298 76.584C153.08 76.7441 152.82 76.873 152.519 76.9707C152.222 77.0645 151.888 77.1113 151.517 77.1113ZM176.371 79.2266C175.863 79.2266 175.42 79.1543 175.041 79.0098C174.662 78.8691 174.359 78.668 174.133 78.4062C173.91 78.1484 173.771 77.8477 173.717 77.5039L173.729 77.498H174.783L174.789 77.5039C174.844 77.7422 175.008 77.9375 175.281 78.0898C175.555 78.2461 175.918 78.3242 176.371 78.3242C176.938 78.3242 177.379 78.1953 177.695 77.9375C178.016 77.6836 178.176 77.3242 178.176 76.8594V75.582H178.082C177.949 75.8125 177.783 76.0098 177.584 76.1738C177.385 76.3379 177.16 76.4629 176.91 76.5488C176.66 76.6309 176.391 76.6719 176.102 76.6719C175.559 76.6719 175.088 76.543 174.689 76.2852C174.295 76.0234 173.99 75.6641 173.775 75.207C173.561 74.75 173.453 74.2266 173.453 73.6367V73.625C173.453 73.0352 173.561 72.5117 173.775 72.0547C173.994 71.5938 174.303 71.2324 174.701 70.9707C175.1 70.7051 175.574 70.5723 176.125 70.5723C176.422 70.5723 176.695 70.6191 176.945 70.7129C177.195 70.8066 177.416 70.9395 177.607 71.1113C177.803 71.2832 177.965 71.4883 178.094 71.7266H178.164V70.6836H179.184V76.9121C179.184 77.3809 179.068 77.7891 178.838 78.1367C178.611 78.4844 178.287 78.752 177.865 78.9395C177.443 79.1309 176.945 79.2266 176.371 79.2266ZM176.324 75.7695C176.715 75.7695 177.049 75.6797 177.326 75.5C177.607 75.3164 177.822 75.0645 177.971 74.7441C178.123 74.4238 178.199 74.0547 178.199 73.6367V73.625C178.199 73.207 178.123 72.8359 177.971 72.5117C177.822 72.1875 177.607 71.9336 177.326 71.75C177.049 71.5664 176.715 71.4746 176.324 71.4746C175.934 71.4746 175.602 71.5664 175.328 71.75C175.059 71.9336 174.852 72.1875 174.707 72.5117C174.566 72.8359 174.496 73.207 174.496 73.625V73.6367C174.496 74.0547 174.566 74.4238 174.707 74.7441C174.852 75.0645 175.059 75.3164 175.328 75.5C175.602 75.6797 175.934 75.7695 176.324 75.7695ZM190.978 77.1113C190.38 77.1113 189.863 76.9805 189.425 76.7188C188.991 76.4531 188.655 76.0762 188.417 75.5879C188.183 75.0996 188.066 74.5195 188.066 73.8477V73.8359C188.066 73.1602 188.183 72.5781 188.417 72.0898C188.655 71.6016 188.991 71.2266 189.425 70.9648C189.863 70.7031 190.38 70.5723 190.978 70.5723C191.579 70.5723 192.097 70.7031 192.53 70.9648C192.964 71.2266 193.298 71.6016 193.532 72.0898C193.771 72.5781 193.89 73.1602 193.89 73.8359V73.8477C193.89 74.5195 193.771 75.0996 193.532 75.5879C193.298 76.0762 192.964 76.4531 192.53 76.7188C192.097 76.9805 191.579 77.1113 190.978 77.1113ZM190.978 76.209C191.376 76.209 191.714 76.1152 191.991 75.9277C192.269 75.7402 192.48 75.4707 192.624 75.1191C192.773 74.7676 192.847 74.3438 192.847 73.8477V73.8359C192.847 73.3359 192.773 72.9102 192.624 72.5586C192.48 72.207 192.269 71.9395 191.991 71.7559C191.714 71.5684 191.376 71.4746 190.978 71.4746C190.579 71.4746 190.241 71.5684 189.964 71.7559C189.687 71.9395 189.474 72.207 189.325 72.5586C189.181 72.9102 189.109 73.3359 189.109 73.8359V73.8477C189.109 74.3438 189.181 74.7676 189.325 75.1191C189.474 75.4707 189.687 75.7402 189.964 75.9277C190.241 76.1152 190.579 76.209 190.978 76.209ZM205.35 77.1113C204.748 77.1113 204.231 76.9785 203.797 76.7129C203.368 76.4473 203.036 76.0723 202.801 75.5879C202.571 75.0996 202.455 74.5254 202.455 73.8652V73.8594C202.455 73.207 202.571 72.6348 202.801 72.1426C203.036 71.6504 203.366 71.2656 203.791 70.9883C204.217 70.7109 204.715 70.5723 205.286 70.5723C205.86 70.5723 206.352 70.7051 206.762 70.9707C207.176 71.2363 207.493 71.6074 207.711 72.084C207.934 72.5566 208.045 73.1074 208.045 73.7363V74.1348H202.983V73.3203H207.524L207.02 74.0645V73.6602C207.02 73.1641 206.946 72.7559 206.797 72.4355C206.649 72.1152 206.444 71.877 206.182 71.7207C205.92 71.5605 205.62 71.4805 205.28 71.4805C204.94 71.4805 204.635 71.5645 204.366 71.7324C204.1 71.8965 203.889 72.1406 203.733 72.4648C203.577 72.7891 203.498 73.1875 203.498 73.6602V74.0645C203.498 74.5137 203.575 74.8984 203.727 75.2188C203.879 75.5352 204.096 75.7793 204.377 75.9512C204.659 76.1191 204.991 76.2031 205.373 76.2031C205.659 76.2031 205.907 76.1641 206.118 76.0859C206.329 76.0078 206.502 75.9082 206.639 75.7871C206.776 75.666 206.871 75.543 206.926 75.418L206.95 75.3652H207.969L207.957 75.4121C207.903 75.627 207.805 75.8359 207.664 76.0391C207.528 76.2383 207.35 76.4199 207.131 76.584C206.912 76.7441 206.653 76.873 206.352 76.9707C206.055 77.0645 205.721 77.1113 205.35 77.1113ZM219.095 77.1113C218.627 77.1113 218.213 77.041 217.853 76.9004C217.494 76.7559 217.205 76.5547 216.986 76.2969C216.771 76.0391 216.644 75.7363 216.605 75.3887H217.648C217.734 75.6504 217.902 75.8613 218.152 76.0215C218.402 76.1816 218.728 76.2617 219.13 76.2617C219.416 76.2617 219.666 76.2207 219.88 76.1387C220.099 76.0527 220.271 75.9375 220.396 75.793C220.521 75.6445 220.584 75.4746 220.584 75.2832V75.2715C220.584 75.0566 220.498 74.875 220.326 74.7266C220.154 74.5742 219.873 74.4512 219.482 74.3574L218.504 74.123C217.914 73.9824 217.48 73.7773 217.203 73.5078C216.925 73.2344 216.787 72.8711 216.787 72.418V72.4121C216.787 72.0605 216.888 71.7461 217.091 71.4688C217.298 71.1914 217.58 70.9727 217.935 70.8125C218.291 70.6523 218.691 70.5723 219.136 70.5723C219.578 70.5723 219.968 70.6426 220.308 70.7832C220.652 70.9199 220.927 71.1152 221.134 71.3691C221.345 71.623 221.474 71.9219 221.521 72.2656H220.519C220.453 72.0156 220.3 71.8125 220.062 71.6562C219.824 71.5 219.513 71.4219 219.13 71.4219C218.88 71.4219 218.658 71.4629 218.463 71.5449C218.267 71.623 218.113 71.7324 218 71.873C217.886 72.0137 217.83 72.1777 217.83 72.3652V72.377C217.83 72.5918 217.914 72.7695 218.082 72.9102C218.25 73.0508 218.519 73.166 218.89 73.2559L219.863 73.4902C220.457 73.6348 220.898 73.8418 221.187 74.1113C221.48 74.3809 221.627 74.7422 221.627 75.1953V75.207C221.627 75.582 221.515 75.9141 221.293 76.2031C221.07 76.4883 220.767 76.7109 220.384 76.8711C220.005 77.0312 219.576 77.1113 219.095 77.1113ZM243.779 77.1113C243.182 77.1113 242.664 76.9805 242.227 76.7188C241.793 76.4531 241.457 76.0762 241.219 75.5879C240.984 75.0996 240.867 74.5195 240.867 73.8477V73.8359C240.867 73.1602 240.984 72.5781 241.219 72.0898C241.457 71.6016 241.793 71.2266 242.227 70.9648C242.664 70.7031 243.182 70.5723 243.779 70.5723C244.381 70.5723 244.898 70.7031 245.332 70.9648C245.766 71.2266 246.1 71.6016 246.334 72.0898C246.572 72.5781 246.691 73.1602 246.691 73.8359V73.8477C246.691 74.5195 246.572 75.0996 246.334 75.5879C246.1 76.0762 245.766 76.4531 245.332 76.7188C244.898 76.9805 244.381 77.1113 243.779 77.1113ZM243.779 76.209C244.178 76.209 244.516 76.1152 244.793 75.9277C245.07 75.7402 245.281 75.4707 245.426 75.1191C245.574 74.7676 245.648 74.3438 245.648 73.8477V73.8359C245.648 73.3359 245.574 72.9102 245.426 72.5586C245.281 72.207 245.07 71.9395 244.793 71.7559C244.516 71.5684 244.178 71.4746 243.779 71.4746C243.381 71.4746 243.043 71.5684 242.766 71.7559C242.488 71.9395 242.275 72.207 242.127 72.5586C241.982 72.9102 241.91 73.3359 241.91 73.8359V73.8477C241.91 74.3438 241.982 74.7676 242.127 75.1191C242.275 75.4707 242.488 75.7402 242.766 75.9277C243.043 76.1152 243.381 76.209 243.779 76.209ZM255.573 77V70.6836H256.593V71.6328H256.687C256.847 71.2969 257.077 71.0371 257.378 70.8535C257.679 70.666 258.062 70.5723 258.527 70.5723C259.238 70.5723 259.782 70.7754 260.161 71.1816C260.544 71.584 260.736 72.1602 260.736 72.9102V77H259.716V73.1562C259.716 72.5859 259.595 72.1641 259.353 71.8906C259.114 71.6133 258.743 71.4746 258.239 71.4746C257.904 71.4746 257.613 71.5469 257.366 71.6914C257.12 71.8359 256.929 72.041 256.792 72.3066C256.659 72.5723 256.593 72.8906 256.593 73.2617V77H255.573Z" fill="black" fill-opacity="0.54"/>
<g clip-path="url(#clip0_12342_11521)">
<path d="M124 44L116 44V60H124M121 52L116 52" stroke="black" stroke-opacity="0.38" stroke-width="2"/>
<path d="M135 49V47.8C135 45.5908 133.209 43.8 131 43.8C128.791 43.8 127 45.5908 127 47.8V56.2C127 58.4091 128.791 60.2 131 60.2C133.209 60.2 135 58.4091 135 56.2V55" stroke="black" stroke-opacity="0.38" stroke-width="2"/>
<rect x="151" y="43.8" width="8" height="16.4" rx="4" stroke="black" stroke-opacity="0.38" stroke-width="2"/>
<rect x="207" y="43.8" width="8" height="16.4" rx="4" stroke="black" stroke-opacity="0.54" stroke-width="2"/>
<g clip-path="url(#clip1_12342_11521)">
<path d="M219 52V44H223.2C225.409 44 227.2 45.7909 227.2 48V48.8C227.2 50.5673 225.767 52 224 52V52M219 52V61M219 52H224M224 52L228 62.5" stroke="black" stroke-opacity="0.54" stroke-width="2"/>
</g>
<path d="M234 44L234 61M239 44H229" stroke="black" stroke-opacity="0.54" stroke-width="2"/>
<g clip-path="url(#clip2_12342_11521)">
<path d="M250 61L248.113 54M239 61L240.887 54M240.887 54L243.583 44H245.417L248.113 54M240.887 54H248.113" stroke="black" stroke-opacity="0.54" stroke-width="2"/>
</g>
<path d="M253 43L253 60H262" stroke="black" stroke-opacity="0.54" stroke-width="2"/>
<path d="M171 43L171 61" stroke="black" stroke-opacity="0.54" stroke-width="2"/>
<g clip-path="url(#clip3_12342_11521)">
<g clip-path="url(#clip4_12342_11521)">
<mask id="mask0_12342_11521" style="mask-type:alpha" maskUnits="userSpaceOnUse" x="173" y="43" width="15" height="18">
<path fill-rule="evenodd" clip-rule="evenodd" d="M188 43H173V61H188V43ZM183 53H179V56H183V53Z" fill="#D9D9D9"/>
</mask>
<g mask="url(#mask0_12342_11521)">
<path d="M175 61L175 44L181 52L187 44L187 61" stroke="black" stroke-opacity="0.54" stroke-width="2"/>
</g>
</g>
</g>
<g clip-path="url(#clip5_12342_11521)">
<g clip-path="url(#clip6_12342_11521)">
<mask id="mask1_12342_11521" style="mask-type:alpha" maskUnits="userSpaceOnUse" x="189" y="43" width="15" height="18">
<path fill-rule="evenodd" clip-rule="evenodd" d="M204 43H189V61H204V43ZM199 53H195V56H199V53Z" fill="#D9D9D9"/>
</mask>
<g mask="url(#mask1_12342_11521)">
<path d="M191 61L191 44L197 52L203 44L203 61" stroke="black" stroke-opacity="0.54" stroke-width="2"/>
</g>
</g>
</g>
<path d="M139 43L139 61M147 43L147 61M147 52H139" stroke="black" stroke-opacity="0.38" stroke-width="2"/>
</g>
<circle cx="48" cy="47" r="28" fill="#F2F8FD"/>
<path d="M76 47C76 31.536 63.464 19 48 19C32.536 19 20 31.536 20 47" stroke="#FBFDFE" stroke-opacity="0.84"/>
<circle cx="48" cy="47" r="17" fill="#FBFDFE"/>
<path d="M45 69H51M45 69L46 77M45 69L42 77M51 69L50 77M51 69L54 77M50 77H46M50 77V87M46 77V87M49.5 64.5C49.5 65.3284 48.8284 66 48 66C47.1716 66 46.5 65.3284 46.5 64.5C46.5 63.6716 47.1716 63 48 63C48.8284 63 49.5 63.6716 49.5 64.5Z" stroke="#5EA8E8" stroke-width="2" stroke-linecap="round" stroke-linejoin="round"/>
<path d="M92.4471 30.293C86.7493 45.3657 73.6043 56.781 57.501 60.0498M38.5008 60.0498C22.3976 56.781 9.25253 45.3657 3.55469 30.293M92.1629 38.0136C84.9352 51.0067 72.1397 60.4772 57.001 63.2004M39.0013 63.2004C23.8626 60.4772 11.0671 51.0067 3.83936 38.0136M40.6564 66.5C26.4471 64.5491 14.0165 57.0185 5.64648 46.1897M90.3556 46.1897C81.9856 57.0185 69.5551 64.5491 55.3457 66.5M4.51709 23C8.41827 40.9399 23.1391 54.842 41.5022 57.5289L41.501 60.5C41.501 62.3434 42.2683 64.0075 43.501 65.1904M91.4845 23C87.5836 40.9385 72.8647 54.8399 54.5035 57.5283L54.501 60.5C54.501 62.3434 53.7336 64.0075 52.501 65.1904M86.4731 54.8784C82.0166 59.0237 76.8895 62.4578 71.2726 65H71.2666M24.7293 65C19.1123 62.4578 13.9853 59.0237 9.52881 54.8784M35.501 68.97L31.1111 72.373M38.2199 69.721L34.4518 73.5005M41.001 70.7144L37.4961 75M33.0593 68.0224L28.0597 70.7144M29.8792 67L25.001 68.97M60.501 68.97L64.8909 72.373M57.7821 69.721L61.5502 73.5005M55.001 70.7144L58.5059 75M62.9426 68.0224L67.9423 70.7144M66.1228 67L71.001 68.97" stroke="#5EA8E8" stroke-width="2" stroke-linecap="round" stroke-linejoin="round"/>
<defs>
<clipPath id="clip0_12342_11521">
<rect width="151" height="20" fill="white" transform="translate(115 42)"/>
</clipPath>
<clipPath id="clip1_12342_11521">
<rect width="13" height="18" fill="white" transform="translate(217 43)"/>
</clipPath>
<clipPath id="clip2_12342_11521">
<rect width="14" height="18" fill="white" transform="translate(238 43)"/>
</clipPath>
<clipPath id="clip3_12342_11521">
<rect width="14" height="22" fill="white" transform="translate(174 41)"/>
</clipPath>
<clipPath id="clip4_12342_11521">
<rect width="15" height="18" fill="white" transform="translate(173 43)"/>
</clipPath>
<clipPath id="clip5_12342_11521">
<rect width="14" height="22" fill="white" transform="translate(190 41)"/>
</clipPath>
<clipPath id="clip6_12342_11521">
<rect width="15" height="18" fill="white" transform="translate(189 43)"/>
</clipPath>
</defs>
</svg>
