<svg width="32" height="32" viewBox="0 0 32 32" fill="none" xmlns="http://www.w3.org/2000/svg">
<rect width="32" height="32" rx="2" fill="#EED68B"/>
<rect x="30" y="28" width="2" height="4" fill="#C5D0D3"/>
<rect x="28" y="26" width="2" height="2" fill="#E4D2B2"/>
<rect x="28" y="28" width="2" height="4" fill="#C5D0D3"/>
<rect x="26" y="12" width="2" height="2" fill="#D5C3B0"/>
<rect x="26" y="8" width="2" height="4" fill="#B3A590"/>
<rect x="26" y="14" width="2" height="2" fill="#D6B49C"/>
<rect x="26" y="18" width="2" height="2" fill="#E4D2B2"/>
<rect x="26" y="26" width="2" height="6" fill="#C5D0D3"/>
<rect x="24" y="6" width="2" height="2" fill="#8D8985"/>
<rect x="24" y="4" width="2" height="2" fill="#D6B49C"/>
<rect x="24" y="8" width="2" height="2" fill="#866B67"/>
<rect x="24" y="10" width="2" height="6" fill="#B3A590"/>
<rect x="24" y="16" width="2" height="2" fill="#E4D2B2"/>
<rect x="24" y="18" width="2" height="2" fill="#F1D6C5"/>
<rect x="24" y="20" width="2" height="2" fill="#E4D2B2"/>
<rect x="24" y="22" width="2" height="4" fill="#B7B3AC"/>
<rect x="24" y="26" width="2" height="2" fill="#C5D0D3"/>
<rect x="24" y="28" width="2" height="2" fill="#B7B3AC"/>
<rect x="24" y="30" width="2" height="2" fill="#8D8985"/>
<rect x="22" y="6" width="2" height="2" fill="#866B67"/>
<rect x="22" y="8" width="2" height="2" fill="#A58077"/>
<rect x="22" y="4" width="2" height="2" fill="#B3A590"/>
<rect x="22" y="12" width="2" height="2" fill="#F1D6C5"/>
<rect x="22" y="14" width="2" height="2" fill="#D6B49C"/>
<rect x="22" y="10" width="2" height="2" fill="#FDE5D5"/>
<rect x="22" y="16" width="2" height="2" fill="#D5C3B0"/>
<rect x="22" y="18" width="2" height="2" fill="#FDE5D5"/>
<rect x="22" y="20" width="2" height="2" fill="#E4D2B2"/>
<rect x="22" y="22" width="2" height="2" fill="#D5C3B0"/>
<rect x="22" y="24" width="2" height="2" fill="#B7B3AC"/>
<rect x="22" y="26" width="2" height="2" fill="#D5C3B0"/>
<rect x="22" y="28" width="2" height="4" fill="#F7F1EB"/>
<rect x="20" y="6" width="2" height="2" fill="#514249"/>
<rect x="20" y="4" width="2" height="2" fill="#8D8985"/>
<rect x="20" y="2" width="2" height="2" fill="#E4D2B2"/>
<rect x="20" y="8" width="2" height="2" fill="#F1D6C5"/>
<rect x="20" y="14" width="2" height="2" fill="#A58077"/>
<rect x="20" y="10" width="2" height="4" fill="#FDE5D5"/>
<rect x="20" y="16" width="2" height="2" fill="#D5C3B0"/>
<rect x="20" y="20" width="2" height="2" fill="#F1D6C5"/>
<rect x="20" y="22" width="2" height="2" fill="#B3A590"/>
<rect x="20" y="24" width="2" height="2" fill="#B7B3AC"/>
<rect x="20" y="26" width="2" height="4" fill="#AE8D84"/>
<rect x="20" y="30" width="2" height="2" fill="#C5D0D3"/>
<rect x="18" y="6" width="2" height="2" fill="#A58077"/>
<rect x="18" y="2" width="2" height="2" fill="#F1D6C5"/>
<rect x="18" y="8" width="2" height="6" fill="#FDE5D5"/>
<rect x="18" y="14" width="2" height="2" fill="#D6B49C"/>
<rect x="18" y="16" width="2" height="2" fill="#FDE5D5"/>
<rect x="18" y="18" width="4" height="2" fill="#F7F1EB"/>
<rect x="18" y="20" width="2" height="2" fill="#D6B49C"/>
<rect x="18" y="22" width="2" height="2" fill="#AE8D84"/>
<rect x="18" y="24" width="2" height="2" fill="#D5C3B0"/>
<rect x="18" y="26" width="2" height="2" fill="#C5D0D3"/>
<rect x="18" y="28" width="2" height="2" fill="#AE8D84"/>
<rect x="18" y="30" width="2" height="2" fill="#A58077"/>
<rect x="16" y="6" width="2" height="2" fill="#866B67"/>
<rect x="16" y="4" width="4" height="2" fill="#514249"/>
<rect x="16" y="12" width="2" height="2" fill="#FDE5D5"/>
<rect x="16" y="8" width="2" height="4" fill="#F1D6C5"/>
<rect x="16" y="14" width="2" height="6" fill="#AE8D84"/>
<rect x="16" y="20" width="2" height="4" fill="#866B67"/>
<rect x="16" y="24" width="2" height="2" fill="#A58077"/>
<rect x="16" y="26" width="2" height="2" fill="#B3A590"/>
<rect x="16" y="28" width="2" height="2" fill="#866B67"/>
<rect x="16" y="30" width="2" height="2" fill="#514249"/>
<rect x="14" y="6" width="2" height="2" fill="#A58077"/>
<rect x="14" y="4" width="2" height="2" fill="#866B67"/>
<rect x="14" y="2" width="4" height="2" fill="#B7B3AC"/>
<rect x="14" y="8" width="2" height="6" fill="#D6B49C"/>
<rect x="14" y="14" width="2" height="2" fill="#514249"/>
<rect x="14" y="16" width="2" height="2" fill="#D6B49C"/>
<rect x="14" y="18" width="2" height="2" fill="#F1D6C5"/>
<rect x="14" y="20" width="2" height="2" fill="#AE8D84"/>
<rect x="14" y="22" width="2" height="2" fill="#514249"/>
<rect x="14" y="24" width="2" height="2" fill="#866B67"/>
<rect x="14" y="26" width="2" height="2" fill="#8D8985"/>
<rect x="12" y="6" width="2" height="2" fill="#866B67"/>
<rect x="12" y="4" width="2" height="2" fill="#8D8985"/>
<rect x="12" y="2" width="2" height="2" fill="#E4D2B2"/>
<rect x="12" y="12" width="2" height="2" fill="#A58077"/>
<rect x="12" y="8" width="2" height="2" fill="#A58077"/>
<rect x="12" y="14" width="2" height="2" fill="#866B67"/>
<rect x="12" y="10" width="2" height="2" fill="#866B67"/>
<rect x="12" y="16" width="2" height="2" fill="#AE8D84"/>
<rect x="12" y="18" width="2" height="2" fill="#D6B49C"/>
<rect x="12" y="20" width="2" height="2" fill="#A58077"/>
<rect x="12" y="22" width="2" height="2" fill="#866B67"/>
<rect x="12" y="24" width="2" height="2" fill="#8D8985"/>
<rect x="12" y="26" width="2" height="2" fill="#514249"/>
<rect x="10" y="6" width="2" height="2" fill="#8D8985"/>
<rect x="10" y="4" width="2" height="2" fill="#C5D0D3"/>
<rect x="10" y="8" width="2" height="8" fill="#866B67"/>
<rect x="10" y="16" width="2" height="2" fill="#A58077"/>
<rect x="10" y="18" width="2" height="2" fill="#AE8D84"/>
<rect x="10" y="20" width="2" height="2" fill="#D5C3B0"/>
<rect x="10" y="26" width="2" height="2" fill="#B3A590"/>
<rect x="10" y="28" width="6" height="4" fill="#514249"/>
<rect x="8" y="6" width="2" height="2" fill="#B3A590"/>
<rect x="8" y="12" width="2" height="2" fill="#D6B49C"/>
<rect x="8" y="8" width="2" height="2" fill="#8D8985"/>
<rect x="8" y="14" width="2" height="2" fill="#A58077"/>
<rect x="8" y="10" width="2" height="2" fill="#B7B3AC"/>
<rect x="8" y="16" width="2" height="2" fill="#866B67"/>
<rect x="8" y="18" width="2" height="2" fill="#B3A590"/>
<rect x="8" y="30" width="2" height="2" fill="#B3A590"/>
<rect x="6" y="30" width="2" height="2" fill="#D5C3B0"/>
</svg>
