<svg width="240" height="240" fill="none" xmlns="http://www.w3.org/2000/svg"><path d="M146.722 2.98604C138.129 1.03188 129.185 -4.91019e-06 120 0C53.7258 0 0 53.7258 0 120C0 186.274 53.7258 240 120 240C186.274 240 240 186.274 240 120C240 111.858 239.189 103.906 237.644 96.2199C236.557 90.8122 151.5 6.44861 146.722 2.98604Z" fill="#D9D9D9"/><path d="M146.722 2.98604C138.129 1.03188 129.185 -4.91019e-06 120 0C53.7258 0 0 53.7258 0 120C0 186.274 53.7258 240 120 240C186.274 240 240 186.274 240 120C240 111.858 239.189 103.906 237.644 96.2199C236.557 90.8122 151.5 6.44861 146.722 2.98604Z" fill="#DBF9D7"/><path d="M146.722 2.98604C138.129 1.03188 129.185 -4.91019e-06 120 0C53.7258 0 0 53.7258 0 120C0 186.274 53.7258 240 120 240C186.274 240 240 186.274 240 120C240 111.858 239.189 103.906 237.644 96.2199C236.557 90.8122 151.5 6.44861 146.722 2.98604Z" fill="url(#paint0_radial_12899_11726)"/><path d="M145.93 2.80884C148.113 3.28975 150.09 4.42645 151.671 6.0073L232.691 87.0268C235.124 89.4596 236.885 92.5002 237.573 95.8712C237.646 96.2262 237.717 96.5818 237.786 96.938L237.625 97.3236L235.066 93.224C233.406 90.5641 230.83 88.6204 227.872 87.5811C192.483 75.1466 164.683 46.5933 153.282 10.731C152.607 8.60685 151.309 6.7253 149.507 5.41333L145.93 2.80884Z" fill="url(#paint1_linear_12899_11726)"/><defs><radialGradient id="paint0_radial_12899_11726" cx="0" cy="0" r="1" gradientUnits="userSpaceOnUse" gradientTransform="translate(239.957 -0.104064) rotate(135.332) scale(103.99)"><stop stop-opacity="0.4"/><stop offset="0.82" stop-opacity="0.06"/><stop offset="0.865" stop-opacity="0.03"/><stop offset="0.91" stop-opacity="0.01"/><stop offset="0.982274" stop-opacity="0"/></radialGradient><linearGradient id="paint1_linear_12899_11726" x1="195.625" y1="69.25" x2="205.25" y2="59.75" gradientUnits="userSpaceOnUse"><stop stop-color="white"/><stop offset="0.73" stop-color="#F7F7F7"/><stop offset="1" stop-color="white"/></linearGradient></defs></svg>