<svg width="120" height="106" viewBox="0 0 120 106" fill="none" xmlns="http://www.w3.org/2000/svg">
<path d="M0.43457 9V5.47705H1.15723L2.2168 8.18945H2.2583L3.31543 5.47705H4.03809V9H3.47168V6.49512H3.16406L3.78906 5.57471L2.45117 9H2.02148L0.686035 5.57471L1.31104 6.49512H1.00098V9H0.43457ZM5.98633 9.05371C5.72103 9.05371 5.49316 8.99756 5.30273 8.88525C5.11393 8.77295 4.96826 8.61344 4.86572 8.40674C4.76318 8.20003 4.71191 7.95508 4.71191 7.67188V7.66943C4.71191 7.38949 4.76237 7.14535 4.86328 6.93701C4.96582 6.72868 5.11068 6.56755 5.29785 6.45361C5.48503 6.33805 5.70475 6.28027 5.95703 6.28027C6.21094 6.28027 6.42904 6.33643 6.61133 6.44873C6.79525 6.55941 6.93685 6.71484 7.03613 6.91504C7.13542 7.11523 7.18506 7.34961 7.18506 7.61816V7.81836H5.01709V7.41064H6.88721L6.59912 7.7915V7.5498C6.59912 7.3724 6.57227 7.2251 6.51855 7.10791C6.46484 6.99072 6.38997 6.90283 6.29395 6.84424C6.19954 6.78564 6.08968 6.75635 5.96436 6.75635C5.83903 6.75635 5.72754 6.78727 5.62988 6.84912C5.53385 6.90934 5.45736 6.99886 5.40039 7.11768C5.34505 7.23486 5.31738 7.37891 5.31738 7.5498V7.79395C5.31738 7.95833 5.34505 8.09912 5.40039 8.21631C5.45573 8.33187 5.53385 8.42139 5.63477 8.48486C5.7373 8.54671 5.85856 8.57764 5.99854 8.57764C6.10758 8.57764 6.20117 8.56217 6.2793 8.53125C6.35905 8.4987 6.42334 8.46045 6.47217 8.4165C6.521 8.37093 6.55518 8.3278 6.57471 8.28711L6.58203 8.27002H7.1582L7.15332 8.29199C7.13216 8.37826 7.0931 8.46615 7.03613 8.55566C6.98079 8.64355 6.90511 8.72575 6.80908 8.80225C6.71468 8.87712 6.59912 8.93815 6.4624 8.98535C6.32568 9.03092 6.16699 9.05371 5.98633 9.05371ZM7.79297 9V6.33154H8.40088V6.74658H8.44238C8.49935 6.59847 8.59131 6.48372 8.71826 6.40234C8.84684 6.32096 8.99902 6.28027 9.1748 6.28027C9.29525 6.28027 9.40348 6.2998 9.49951 6.33887C9.59717 6.37793 9.68099 6.43327 9.75098 6.50488C9.82096 6.5765 9.87467 6.66195 9.91211 6.76123H9.95605C10 6.6652 10.061 6.58138 10.1392 6.50977C10.2189 6.43652 10.3117 6.38037 10.4175 6.34131C10.5249 6.30062 10.6405 6.28027 10.7642 6.28027C10.9432 6.28027 11.0962 6.31608 11.2231 6.3877C11.3517 6.45768 11.4502 6.55859 11.5186 6.69043C11.5885 6.82227 11.6235 6.98014 11.6235 7.16406V9H11.0156V7.31299C11.0156 7.13883 10.9757 7.00863 10.896 6.92236C10.8162 6.83447 10.695 6.79053 10.5322 6.79053C10.4264 6.79053 10.3345 6.81494 10.2563 6.86377C10.1782 6.91097 10.1172 6.97526 10.0732 7.05664C10.0309 7.13802 10.0098 7.22998 10.0098 7.33252V9H9.40186V7.26904C9.40186 7.12093 9.35872 7.00456 9.27246 6.91992C9.18783 6.83366 9.07064 6.79053 8.9209 6.79053C8.82161 6.79053 8.7321 6.81657 8.65234 6.86865C8.57422 6.91911 8.51237 6.9891 8.4668 7.07861C8.42285 7.1665 8.40088 7.26579 8.40088 7.37646V9H7.79297ZM13.4912 9.05371C13.2259 9.05371 12.9972 8.99837 12.8052 8.8877C12.6131 8.77539 12.465 8.61589 12.3608 8.40918C12.2583 8.20247 12.207 7.95508 12.207 7.66699V7.66211C12.207 7.37728 12.2591 7.13151 12.3633 6.9248C12.4674 6.71647 12.6147 6.55697 12.8052 6.44629C12.9972 6.33561 13.2259 6.28027 13.4912 6.28027C13.7565 6.28027 13.9844 6.33561 14.1748 6.44629C14.3669 6.55697 14.515 6.71566 14.6191 6.92236C14.7233 7.12907 14.7754 7.37565 14.7754 7.66211V7.66699C14.7754 7.95508 14.7233 8.20247 14.6191 8.40918C14.5166 8.61589 14.3693 8.77539 14.1772 8.8877C13.9868 8.99837 13.7581 9.05371 13.4912 9.05371ZM13.4912 8.56055C13.6312 8.56055 13.75 8.52555 13.8477 8.45557C13.9469 8.38395 14.0226 8.28223 14.0747 8.15039C14.1268 8.01693 14.1528 7.85661 14.1528 7.66943V7.66455C14.1528 7.47575 14.1268 7.31543 14.0747 7.18359C14.0226 7.05013 13.9469 6.9484 13.8477 6.87842C13.75 6.8068 13.6312 6.771 13.4912 6.771C13.3512 6.771 13.2316 6.8068 13.1323 6.87842C13.033 6.9484 12.9574 7.05013 12.9053 7.18359C12.8532 7.31543 12.8271 7.47575 12.8271 7.66455V7.66943C12.8271 7.85661 12.8532 8.01693 12.9053 8.15039C12.9574 8.28385 13.0322 8.38558 13.1299 8.45557C13.2292 8.52555 13.3496 8.56055 13.4912 8.56055ZM15.3857 9V6.33154H15.9937V6.7417H16.0352C16.0807 6.59847 16.1621 6.48698 16.2793 6.40723C16.3981 6.32747 16.5454 6.2876 16.7212 6.2876C16.7668 6.2876 16.8115 6.29085 16.8555 6.29736C16.901 6.30225 16.9385 6.30876 16.9678 6.31689V6.86133C16.9189 6.84993 16.8693 6.8418 16.8188 6.83691C16.77 6.8304 16.7188 6.82715 16.665 6.82715C16.5299 6.82715 16.4119 6.85238 16.311 6.90283C16.2101 6.95329 16.132 7.02572 16.0767 7.12012C16.0213 7.21289 15.9937 7.32275 15.9937 7.44971V9H15.3857ZM17.7856 9.9375C17.7482 9.9375 17.7091 9.93669 17.6685 9.93506C17.6294 9.93343 17.5911 9.93099 17.5537 9.92773V9.46143C17.5781 9.46468 17.6066 9.46631 17.6392 9.46631C17.6717 9.46794 17.7035 9.46875 17.7344 9.46875C17.8597 9.46875 17.9598 9.44108 18.0347 9.38574C18.1112 9.33203 18.1657 9.24495 18.1982 9.12451L18.23 9.00244L17.2754 6.33154H17.9395L18.6426 8.69482L18.4766 8.4165H18.6865L18.5254 8.69482L19.2285 6.33154H19.8682L18.9111 9.05859C18.833 9.27995 18.7443 9.45492 18.645 9.5835C18.5474 9.71208 18.4285 9.80322 18.2886 9.85693C18.1502 9.91064 17.9826 9.9375 17.7856 9.9375ZM22.7271 9.05371C22.5008 9.05371 22.3055 9.02197 22.1411 8.9585C21.9784 8.89339 21.8498 8.80387 21.7554 8.68994C21.661 8.57438 21.6048 8.44092 21.5869 8.28955V8.28467H22.1899L22.1924 8.28955C22.2249 8.38232 22.286 8.45801 22.3755 8.5166C22.465 8.5752 22.5854 8.60449 22.7368 8.60449C22.8377 8.60449 22.9264 8.59066 23.0029 8.56299C23.0794 8.53369 23.1396 8.49382 23.1836 8.44336C23.2275 8.3929 23.2495 8.33431 23.2495 8.26758V8.2627C23.2495 8.18457 23.2178 8.11947 23.1543 8.06738C23.0908 8.01367 22.9858 7.97054 22.8394 7.93799L22.4072 7.84033C22.1533 7.78337 21.9645 7.69466 21.8408 7.57422C21.7188 7.45215 21.6577 7.29264 21.6577 7.0957V7.09326C21.6577 6.93213 21.7025 6.79053 21.792 6.66846C21.8831 6.54639 22.0093 6.45117 22.1704 6.38281C22.3315 6.31445 22.5171 6.28027 22.7271 6.28027C22.9435 6.28027 23.1299 6.31283 23.2861 6.37793C23.4424 6.44303 23.5645 6.53255 23.6523 6.64648C23.7402 6.76042 23.7907 6.88981 23.8037 7.03467V7.03955H23.2324L23.23 7.03223C23.2072 6.94759 23.1527 6.87598 23.0664 6.81738C22.9818 6.75716 22.8678 6.72705 22.7246 6.72705C22.6351 6.72705 22.5545 6.74089 22.4829 6.76855C22.4129 6.79622 22.3576 6.83529 22.3169 6.88574C22.2778 6.93457 22.2583 6.99235 22.2583 7.05908V7.06152C22.2583 7.13965 22.2892 7.20394 22.3511 7.25439C22.4129 7.30485 22.5155 7.34635 22.6587 7.37891L23.0908 7.47412C23.3529 7.53271 23.5465 7.61979 23.6719 7.73535C23.7972 7.85091 23.8599 8.00635 23.8599 8.20166V8.20654C23.8599 8.37581 23.811 8.52393 23.7134 8.65088C23.6157 8.77783 23.4814 8.87712 23.3105 8.94873C23.1396 9.01872 22.9451 9.05371 22.7271 9.05371ZM25.6152 9.05371C25.3499 9.05371 25.1221 8.99756 24.9316 8.88525C24.7428 8.77295 24.5972 8.61344 24.4946 8.40674C24.3921 8.20003 24.3408 7.95508 24.3408 7.67188V7.66943C24.3408 7.38949 24.3913 7.14535 24.4922 6.93701C24.5947 6.72868 24.7396 6.56755 24.9268 6.45361C25.1139 6.33805 25.3337 6.28027 25.5859 6.28027C25.8398 6.28027 26.0579 6.33643 26.2402 6.44873C26.4242 6.55941 26.5658 6.71484 26.665 6.91504C26.7643 7.11523 26.814 7.34961 26.814 7.61816V7.81836H24.646V7.41064H26.5161L26.228 7.7915V7.5498C26.228 7.3724 26.2012 7.2251 26.1475 7.10791C26.0938 6.99072 26.0189 6.90283 25.9229 6.84424C25.8285 6.78564 25.7186 6.75635 25.5933 6.75635C25.4679 6.75635 25.3564 6.78727 25.2588 6.84912C25.1628 6.90934 25.0863 6.99886 25.0293 7.11768C24.974 7.23486 24.9463 7.37891 24.9463 7.5498V7.79395C24.9463 7.95833 24.974 8.09912 25.0293 8.21631C25.0846 8.33187 25.1628 8.42139 25.2637 8.48486C25.3662 8.54671 25.4875 8.57764 25.6274 8.57764C25.7365 8.57764 25.8301 8.56217 25.9082 8.53125C25.988 8.4987 26.0522 8.46045 26.1011 8.4165C26.1499 8.37093 26.1841 8.3278 26.2036 8.28711L26.2109 8.27002H26.7871L26.7822 8.29199C26.7611 8.37826 26.722 8.46615 26.665 8.55566C26.6097 8.64355 26.534 8.72575 26.438 8.80225C26.3436 8.87712 26.228 8.93815 26.0913 8.98535C25.9546 9.03092 25.7959 9.05371 25.6152 9.05371ZM28.4717 9.01221C28.1657 9.01221 27.9451 8.95605 27.8101 8.84375C27.675 8.73145 27.6074 8.54753 27.6074 8.29199V6.80273H27.1924V6.33154H27.6074V5.67725H28.2251V6.33154H28.7866V6.80273H28.2251V8.14795C28.2251 8.27979 28.2528 8.37663 28.3081 8.43848C28.3651 8.4987 28.4562 8.52881 28.5815 8.52881C28.6255 8.52881 28.6613 8.52799 28.689 8.52637C28.7183 8.52311 28.7508 8.51986 28.7866 8.5166V8.98535C28.7443 8.99349 28.6955 9 28.6401 9.00488C28.5864 9.00977 28.5303 9.01221 28.4717 9.01221ZM30.459 9.01221C30.153 9.01221 29.9325 8.95605 29.7974 8.84375C29.6623 8.73145 29.5947 8.54753 29.5947 8.29199V6.80273H29.1797V6.33154H29.5947V5.67725H30.2124V6.33154H30.7739V6.80273H30.2124V8.14795C30.2124 8.27979 30.2401 8.37663 30.2954 8.43848C30.3524 8.4987 30.4435 8.52881 30.5688 8.52881C30.6128 8.52881 30.6486 8.52799 30.6763 8.52637C30.7056 8.52311 30.7381 8.51986 30.7739 8.5166V8.98535C30.7316 8.99349 30.6828 9 30.6274 9.00488C30.5737 9.00977 30.5176 9.01221 30.459 9.01221ZM31.3892 9V6.33154H31.9946V9H31.3892ZM31.6943 5.88477C31.5951 5.88477 31.5096 5.84977 31.438 5.77979C31.3664 5.7098 31.3306 5.62598 31.3306 5.52832C31.3306 5.42741 31.3664 5.34277 31.438 5.27441C31.5096 5.20443 31.5951 5.16943 31.6943 5.16943C31.7936 5.16943 31.8783 5.20443 31.9482 5.27441C32.0199 5.34277 32.0557 5.42741 32.0557 5.52832C32.0557 5.62598 32.0199 5.7098 31.9482 5.77979C31.8783 5.84977 31.7936 5.88477 31.6943 5.88477ZM32.7441 9V6.33154H33.3521V6.7417H33.3936C33.457 6.59684 33.5531 6.48372 33.6816 6.40234C33.8102 6.32096 33.9705 6.28027 34.1626 6.28027C34.4604 6.28027 34.6883 6.36654 34.8462 6.53906C35.0041 6.71159 35.083 6.95654 35.083 7.27393V9H34.4751V7.41553C34.4751 7.20719 34.4312 7.05094 34.3433 6.94678C34.257 6.84261 34.1219 6.79053 33.938 6.79053C33.8175 6.79053 33.7134 6.81738 33.6255 6.87109C33.5376 6.9248 33.4701 7.00049 33.4229 7.09814C33.3757 7.1958 33.3521 7.31136 33.3521 7.44482V9H32.7441ZM36.9482 9.9375C36.7139 9.9375 36.5112 9.90658 36.3403 9.84473C36.1711 9.78288 36.0376 9.69499 35.9399 9.58105C35.8423 9.46875 35.7829 9.33773 35.7617 9.18799L35.7642 9.18066H36.3696L36.3745 9.18799C36.394 9.27262 36.4535 9.3418 36.5527 9.39551C36.6536 9.45085 36.7887 9.47852 36.958 9.47852C37.1663 9.47852 37.3275 9.43213 37.4414 9.33936C37.557 9.24658 37.6147 9.11475 37.6147 8.94385V8.43115H37.5732C37.5228 8.52718 37.4569 8.60856 37.3755 8.67529C37.2957 8.74202 37.2038 8.79248 37.0996 8.82666C36.9971 8.85921 36.884 8.87549 36.7603 8.87549C36.5356 8.87549 36.3411 8.82178 36.1768 8.71436C36.0124 8.60531 35.8854 8.45475 35.7959 8.2627C35.708 8.07064 35.6641 7.84847 35.6641 7.59619V7.59131C35.6641 7.33415 35.7088 7.10791 35.7983 6.9126C35.8879 6.71729 36.0148 6.56429 36.1792 6.45361C36.3452 6.34294 36.543 6.2876 36.7725 6.2876C36.8962 6.2876 37.0093 6.30713 37.1118 6.34619C37.216 6.38525 37.3071 6.44059 37.3853 6.51221C37.465 6.58382 37.5301 6.67008 37.5806 6.771H37.6123V6.33154H38.2202V8.93408C38.2202 9.13916 38.1681 9.31657 38.064 9.46631C37.9614 9.61768 37.8149 9.73405 37.6245 9.81543C37.4341 9.89681 37.2087 9.9375 36.9482 9.9375ZM36.9482 8.39209C37.0882 8.39209 37.2087 8.35872 37.3096 8.29199C37.4105 8.22363 37.4878 8.13005 37.5415 8.01123C37.5968 7.89242 37.6245 7.75407 37.6245 7.59619V7.59131C37.6245 7.43343 37.5968 7.29508 37.5415 7.17627C37.4878 7.05583 37.4105 6.96224 37.3096 6.89551C37.2087 6.82715 37.0882 6.79297 36.9482 6.79297C36.8066 6.79297 36.6862 6.82715 36.5869 6.89551C36.4893 6.96224 36.4144 7.05583 36.3623 7.17627C36.3118 7.29508 36.2866 7.43343 36.2866 7.59131V7.59619C36.2866 7.75244 36.3118 7.89079 36.3623 8.01123C36.4144 8.13005 36.4893 8.22363 36.5869 8.29199C36.6862 8.35872 36.8066 8.39209 36.9482 8.39209ZM39.9731 9.05371C39.7469 9.05371 39.5516 9.02197 39.3872 8.9585C39.2244 8.89339 39.0959 8.80387 39.0015 8.68994C38.9071 8.57438 38.8509 8.44092 38.833 8.28955V8.28467H39.436L39.4385 8.28955C39.471 8.38232 39.5321 8.45801 39.6216 8.5166C39.7111 8.5752 39.8315 8.60449 39.9829 8.60449C40.0838 8.60449 40.1725 8.59066 40.249 8.56299C40.3255 8.53369 40.3857 8.49382 40.4297 8.44336C40.4736 8.3929 40.4956 8.33431 40.4956 8.26758V8.2627C40.4956 8.18457 40.4639 8.11947 40.4004 8.06738C40.3369 8.01367 40.2319 7.97054 40.0854 7.93799L39.6533 7.84033C39.3994 7.78337 39.2106 7.69466 39.0869 7.57422C38.9648 7.45215 38.9038 7.29264 38.9038 7.0957V7.09326C38.9038 6.93213 38.9486 6.79053 39.0381 6.66846C39.1292 6.54639 39.2554 6.45117 39.4165 6.38281C39.5776 6.31445 39.7632 6.28027 39.9731 6.28027C40.1896 6.28027 40.376 6.31283 40.5322 6.37793C40.6885 6.44303 40.8105 6.53255 40.8984 6.64648C40.9863 6.76042 41.0368 6.88981 41.0498 7.03467V7.03955H40.4785L40.4761 7.03223C40.4533 6.94759 40.3988 6.87598 40.3125 6.81738C40.2279 6.75716 40.1139 6.72705 39.9707 6.72705C39.8812 6.72705 39.8006 6.74089 39.729 6.76855C39.659 6.79622 39.6037 6.83529 39.563 6.88574C39.5239 6.93457 39.5044 6.99235 39.5044 7.05908V7.06152C39.5044 7.13965 39.5353 7.20394 39.5972 7.25439C39.659 7.30485 39.7616 7.34635 39.9048 7.37891L40.3369 7.47412C40.599 7.53271 40.7926 7.61979 40.918 7.73535C41.0433 7.85091 41.106 8.00635 41.106 8.20166V8.20654C41.106 8.37581 41.0571 8.52393 40.9595 8.65088C40.8618 8.77783 40.7275 8.87712 40.5566 8.94873C40.3857 9.01872 40.1912 9.05371 39.9731 9.05371Z" fill="black" fill-opacity="0.54"/>
<g clip-path="url(#clip0_12563_3526)">
<g filter="url(#filter0_i_12563_3526)">
<rect y="15" width="120" height="22" fill="#FEFCF6"/>
</g>
<rect x="6" y="21" width="10" height="10" rx="2" fill="#FCFCFC"/>
<path d="M9 23H10.5V24H9V23Z" fill="black" fill-opacity="0.38"/>
<path d="M9 27H10.5V28H9V27Z" fill="black" fill-opacity="0.38"/>
<path d="M11.5 27H13V28H11.5V27Z" fill="black" fill-opacity="0.38"/>
<path d="M10.5 28H11.5V29H10.5V28Z" fill="black" fill-opacity="0.38"/>
<path d="M8 24H9V27H8V24Z" fill="black" fill-opacity="0.38"/>
<path d="M10.5 24H11.5V25H10.5V24Z" fill="black" fill-opacity="0.38"/>
<path d="M11.5 23H13V24H11.5V23Z" fill="black" fill-opacity="0.38"/>
<path d="M13 24H14V27H13V24Z" fill="black" fill-opacity="0.38"/>
<path d="M20.7495 26.8354V26.3276H21.687C21.9132 26.3276 22.089 26.2699 22.2144 26.1543C22.3397 26.0371 22.4023 25.8727 22.4023 25.6611V25.6562C22.4023 25.443 22.3397 25.2786 22.2144 25.1631C22.089 25.0475 21.9132 24.9897 21.687 24.9897H20.7495V24.4771H21.8408C22.0801 24.4771 22.2892 24.5259 22.4683 24.6235C22.6473 24.7212 22.7873 24.8587 22.8882 25.0361C22.9891 25.2119 23.0396 25.4178 23.0396 25.6538V25.6587C23.0396 25.8931 22.9891 26.099 22.8882 26.2764C22.7873 26.4521 22.6473 26.5897 22.4683 26.689C22.2892 26.7866 22.0801 26.8354 21.8408 26.8354H20.7495ZM20.4346 28V24.4771H21.0645V28H20.4346ZM24.7412 28.0537C24.4759 28.0537 24.248 27.9976 24.0576 27.8853C23.8688 27.7729 23.7231 27.6134 23.6206 27.4067C23.5181 27.2 23.4668 26.9551 23.4668 26.6719V26.6694C23.4668 26.3895 23.5173 26.1453 23.6182 25.937C23.7207 25.7287 23.8656 25.5675 24.0527 25.4536C24.2399 25.3381 24.4596 25.2803 24.7119 25.2803C24.9658 25.2803 25.1839 25.3364 25.3662 25.4487C25.5501 25.5594 25.6917 25.7148 25.791 25.915C25.8903 26.1152 25.9399 26.3496 25.9399 26.6182V26.8184H23.772V26.4106H25.6421L25.354 26.7915V26.5498C25.354 26.3724 25.3271 26.2251 25.2734 26.1079C25.2197 25.9907 25.1449 25.9028 25.0488 25.8442C24.9544 25.7856 24.8446 25.7563 24.7192 25.7563C24.5939 25.7563 24.4824 25.7873 24.3848 25.8491C24.2887 25.9093 24.2122 25.9989 24.1553 26.1177C24.0999 26.2349 24.0723 26.3789 24.0723 26.5498V26.7939C24.0723 26.9583 24.0999 27.0991 24.1553 27.2163C24.2106 27.3319 24.2887 27.4214 24.3896 27.4849C24.4922 27.5467 24.6134 27.5776 24.7534 27.5776C24.8625 27.5776 24.9561 27.5622 25.0342 27.5312C25.1139 27.4987 25.1782 27.4604 25.2271 27.4165C25.2759 27.3709 25.3101 27.3278 25.3296 27.2871L25.3369 27.27H25.9131L25.9082 27.292C25.887 27.3783 25.848 27.4661 25.791 27.5557C25.7357 27.6436 25.66 27.7257 25.564 27.8022C25.4696 27.8771 25.354 27.9382 25.2173 27.9854C25.0806 28.0309 24.9219 28.0537 24.7412 28.0537ZM26.5479 28V25.3315H27.1558V25.7417H27.1973C27.2428 25.5985 27.3242 25.487 27.4414 25.4072C27.5602 25.3275 27.7075 25.2876 27.8833 25.2876C27.9289 25.2876 27.9736 25.2909 28.0176 25.2974C28.0632 25.3022 28.1006 25.3088 28.1299 25.3169V25.8613C28.0811 25.8499 28.0314 25.8418 27.981 25.8369C27.9321 25.8304 27.8809 25.8271 27.8271 25.8271C27.6921 25.8271 27.5741 25.8524 27.4731 25.9028C27.3722 25.9533 27.2941 26.0257 27.2388 26.1201C27.1834 26.2129 27.1558 26.3228 27.1558 26.4497V28H26.5479ZM29.5728 28.0537C29.3465 28.0537 29.1512 28.022 28.9868 27.9585C28.8241 27.8934 28.6955 27.8039 28.6011 27.6899C28.5067 27.5744 28.4505 27.4409 28.4326 27.2896V27.2847H29.0356L29.0381 27.2896C29.0706 27.3823 29.1317 27.458 29.2212 27.5166C29.3107 27.5752 29.4312 27.6045 29.5825 27.6045C29.6834 27.6045 29.7721 27.5907 29.8486 27.563C29.9251 27.5337 29.9854 27.4938 30.0293 27.4434C30.0732 27.3929 30.0952 27.3343 30.0952 27.2676V27.2627C30.0952 27.1846 30.0635 27.1195 30 27.0674C29.9365 27.0137 29.8315 26.9705 29.6851 26.938L29.2529 26.8403C28.999 26.7834 28.8102 26.6947 28.6865 26.5742C28.5645 26.4521 28.5034 26.2926 28.5034 26.0957V26.0933C28.5034 25.9321 28.5482 25.7905 28.6377 25.6685C28.7288 25.5464 28.855 25.4512 29.0161 25.3828C29.1772 25.3145 29.3628 25.2803 29.5728 25.2803C29.7892 25.2803 29.9756 25.3128 30.1318 25.3779C30.2881 25.443 30.4102 25.5326 30.498 25.6465C30.5859 25.7604 30.6364 25.8898 30.6494 26.0347V26.0396H30.0781L30.0757 26.0322C30.0529 25.9476 29.9984 25.876 29.9121 25.8174C29.8275 25.7572 29.7135 25.7271 29.5703 25.7271C29.4808 25.7271 29.4002 25.7409 29.3286 25.7686C29.2586 25.7962 29.2033 25.8353 29.1626 25.8857C29.1235 25.9346 29.104 25.9924 29.104 26.0591V26.0615C29.104 26.1396 29.1349 26.2039 29.1968 26.2544C29.2586 26.3049 29.3612 26.3464 29.5044 26.3789L29.9365 26.4741C30.1986 26.5327 30.3923 26.6198 30.5176 26.7354C30.6429 26.8509 30.7056 27.0063 30.7056 27.2017V27.2065C30.7056 27.3758 30.6567 27.5239 30.5591 27.6509C30.4614 27.7778 30.3271 27.8771 30.1562 27.9487C29.9854 28.0187 29.7909 28.0537 29.5728 28.0537ZM32.4707 28.0537C32.2054 28.0537 31.9767 27.9984 31.7847 27.8877C31.5926 27.7754 31.4445 27.6159 31.3403 27.4092C31.2378 27.2025 31.1865 26.9551 31.1865 26.667V26.6621C31.1865 26.3773 31.2386 26.1315 31.3428 25.9248C31.4469 25.7165 31.5942 25.557 31.7847 25.4463C31.9767 25.3356 32.2054 25.2803 32.4707 25.2803C32.736 25.2803 32.9639 25.3356 33.1543 25.4463C33.3464 25.557 33.4945 25.7157 33.5986 25.9224C33.7028 26.1291 33.7549 26.3757 33.7549 26.6621V26.667C33.7549 26.9551 33.7028 27.2025 33.5986 27.4092C33.4961 27.6159 33.3488 27.7754 33.1567 27.8877C32.9663 27.9984 32.7376 28.0537 32.4707 28.0537ZM32.4707 27.5605C32.6107 27.5605 32.7295 27.5256 32.8271 27.4556C32.9264 27.384 33.0021 27.2822 33.0542 27.1504C33.1063 27.0169 33.1323 26.8566 33.1323 26.6694V26.6646C33.1323 26.4757 33.1063 26.3154 33.0542 26.1836C33.0021 26.0501 32.9264 25.9484 32.8271 25.8784C32.7295 25.8068 32.6107 25.771 32.4707 25.771C32.3307 25.771 32.2111 25.8068 32.1118 25.8784C32.0125 25.9484 31.9368 26.0501 31.8848 26.1836C31.8327 26.3154 31.8066 26.4757 31.8066 26.6646V26.6694C31.8066 26.8566 31.8327 27.0169 31.8848 27.1504C31.9368 27.2839 32.0117 27.3856 32.1094 27.4556C32.2087 27.5256 32.3291 27.5605 32.4707 27.5605ZM34.3652 28V25.3315H34.9731V25.7417H35.0146C35.0781 25.5968 35.1742 25.4837 35.3027 25.4023C35.4313 25.321 35.5916 25.2803 35.7837 25.2803C36.0815 25.2803 36.3094 25.3665 36.4673 25.5391C36.6252 25.7116 36.7041 25.9565 36.7041 26.2739V28H36.0962V26.4155C36.0962 26.2072 36.0522 26.0509 35.9644 25.9468C35.8781 25.8426 35.743 25.7905 35.5591 25.7905C35.4386 25.7905 35.3345 25.8174 35.2466 25.8711C35.1587 25.9248 35.0911 26.0005 35.0439 26.0981C34.9967 26.1958 34.9731 26.3114 34.9731 26.4448V28H34.3652ZM38.1494 28.0439C37.9818 28.0439 37.8312 28.0114 37.6978 27.9463C37.5659 27.8812 37.4618 27.7892 37.3853 27.6704C37.3104 27.55 37.2729 27.4084 37.2729 27.2456V27.2407C37.2729 27.0031 37.36 26.8159 37.5342 26.6792C37.71 26.5425 37.9606 26.4652 38.2861 26.4473L39.2725 26.3862V26.7866L38.3716 26.8452C38.2007 26.855 38.0745 26.8908 37.9932 26.9526C37.9118 27.0145 37.8711 27.1007 37.8711 27.2114V27.2163C37.8711 27.3302 37.9142 27.4189 38.0005 27.4824C38.0884 27.5459 38.1999 27.5776 38.335 27.5776C38.457 27.5776 38.5661 27.5532 38.6621 27.5044C38.7581 27.4556 38.8338 27.3896 38.8892 27.3066C38.9445 27.222 38.9722 27.1268 38.9722 27.021V26.1763C38.9722 26.0428 38.9299 25.9411 38.8452 25.8711C38.7606 25.7995 38.6353 25.7637 38.4692 25.7637C38.3309 25.7637 38.2178 25.7881 38.1299 25.8369C38.042 25.8841 37.9826 25.9517 37.9517 26.0396L37.9492 26.0493H37.3755L37.3779 26.0273C37.3975 25.8776 37.4561 25.7466 37.5537 25.6343C37.6514 25.522 37.7808 25.4349 37.9419 25.373C38.103 25.3112 38.2886 25.2803 38.4985 25.2803C38.7297 25.2803 38.925 25.3161 39.0845 25.3877C39.244 25.4577 39.3652 25.5602 39.4482 25.6953C39.5312 25.8288 39.5728 25.9891 39.5728 26.1763V28H38.9722V27.6338H38.9307C38.8818 27.7184 38.8184 27.7917 38.7402 27.8535C38.6637 27.9154 38.5758 27.9626 38.4766 27.9951C38.3773 28.0277 38.2682 28.0439 38.1494 28.0439ZM40.3271 28V24.2988H40.9351V28H40.3271ZM43.0957 28V24.4771H43.8184L44.8779 27.1895H44.9194L45.9766 24.4771H46.6992V28H46.1328V25.4951H45.8252L46.4502 24.5747L45.1123 28H44.6826L43.3472 24.5747L43.9722 25.4951H43.6621V28H43.0957ZM48.6475 28.0537C48.3822 28.0537 48.1543 27.9976 47.9639 27.8853C47.7751 27.7729 47.6294 27.6134 47.5269 27.4067C47.4243 27.2 47.373 26.9551 47.373 26.6719V26.6694C47.373 26.3895 47.4235 26.1453 47.5244 25.937C47.627 25.7287 47.7718 25.5675 47.959 25.4536C48.1462 25.3381 48.3659 25.2803 48.6182 25.2803C48.8721 25.2803 49.0902 25.3364 49.2725 25.4487C49.4564 25.5594 49.598 25.7148 49.6973 25.915C49.7965 26.1152 49.8462 26.3496 49.8462 26.6182V26.8184H47.6782V26.4106H49.5483L49.2603 26.7915V26.5498C49.2603 26.3724 49.2334 26.2251 49.1797 26.1079C49.126 25.9907 49.0511 25.9028 48.9551 25.8442C48.8607 25.7856 48.7508 25.7563 48.6255 25.7563C48.5002 25.7563 48.3887 25.7873 48.291 25.8491C48.195 25.9093 48.1185 25.9989 48.0615 26.1177C48.0062 26.2349 47.9785 26.3789 47.9785 26.5498V26.7939C47.9785 26.9583 48.0062 27.0991 48.0615 27.2163C48.1169 27.3319 48.195 27.4214 48.2959 27.4849C48.3984 27.5467 48.5197 27.5776 48.6597 27.5776C48.7687 27.5776 48.8623 27.5622 48.9404 27.5312C49.0202 27.4987 49.0845 27.4604 49.1333 27.4165C49.1821 27.3709 49.2163 27.3278 49.2358 27.2871L49.2432 27.27H49.8193L49.8145 27.292C49.7933 27.3783 49.7542 27.4661 49.6973 27.5557C49.6419 27.6436 49.5662 27.7257 49.4702 27.8022C49.3758 27.8771 49.2603 27.9382 49.1235 27.9854C48.9868 28.0309 48.8281 28.0537 48.6475 28.0537ZM50.4541 28V25.3315H51.062V25.7466H51.1035C51.1605 25.5985 51.2524 25.4837 51.3794 25.4023C51.508 25.321 51.6602 25.2803 51.8359 25.2803C51.9564 25.2803 52.0646 25.2998 52.1606 25.3389C52.2583 25.3779 52.3421 25.4333 52.4121 25.5049C52.4821 25.5765 52.5358 25.6619 52.5732 25.7612H52.6172C52.6611 25.6652 52.7222 25.5814 52.8003 25.5098C52.88 25.4365 52.9728 25.3804 53.0786 25.3413C53.186 25.3006 53.3016 25.2803 53.4253 25.2803C53.6043 25.2803 53.7573 25.3161 53.8843 25.3877C54.0129 25.4577 54.1113 25.5586 54.1797 25.6904C54.2497 25.8223 54.2847 25.9801 54.2847 26.1641V28H53.6768V26.313C53.6768 26.1388 53.6369 26.0086 53.5571 25.9224C53.4774 25.8345 53.3561 25.7905 53.1934 25.7905C53.0876 25.7905 52.9956 25.8149 52.9175 25.8638C52.8394 25.911 52.7783 25.9753 52.7344 26.0566C52.6921 26.138 52.6709 26.23 52.6709 26.3325V28H52.063V26.269C52.063 26.1209 52.0199 26.0046 51.9336 25.9199C51.849 25.8337 51.7318 25.7905 51.582 25.7905C51.4827 25.7905 51.3932 25.8166 51.3135 25.8687C51.2354 25.9191 51.1735 25.9891 51.1279 26.0786C51.084 26.1665 51.062 26.2658 51.062 26.3765V28H50.4541ZM56.1523 28.0537C55.887 28.0537 55.6584 27.9984 55.4663 27.8877C55.2743 27.7754 55.1261 27.6159 55.022 27.4092C54.9194 27.2025 54.8682 26.9551 54.8682 26.667V26.6621C54.8682 26.3773 54.9202 26.1315 55.0244 25.9248C55.1286 25.7165 55.2759 25.557 55.4663 25.4463C55.6584 25.3356 55.887 25.2803 56.1523 25.2803C56.4176 25.2803 56.6455 25.3356 56.8359 25.4463C57.028 25.557 57.1761 25.7157 57.2803 25.9224C57.3844 26.1291 57.4365 26.3757 57.4365 26.6621V26.667C57.4365 26.9551 57.3844 27.2025 57.2803 27.4092C57.1777 27.6159 57.0304 27.7754 56.8384 27.8877C56.6479 27.9984 56.4193 28.0537 56.1523 28.0537ZM56.1523 27.5605C56.2923 27.5605 56.4111 27.5256 56.5088 27.4556C56.6081 27.384 56.6838 27.2822 56.7358 27.1504C56.7879 27.0169 56.814 26.8566 56.814 26.6694V26.6646C56.814 26.4757 56.7879 26.3154 56.7358 26.1836C56.6838 26.0501 56.6081 25.9484 56.5088 25.8784C56.4111 25.8068 56.2923 25.771 56.1523 25.771C56.0124 25.771 55.8927 25.8068 55.7935 25.8784C55.6942 25.9484 55.6185 26.0501 55.5664 26.1836C55.5143 26.3154 55.4883 26.4757 55.4883 26.6646V26.6694C55.4883 26.8566 55.5143 27.0169 55.5664 27.1504C55.6185 27.2839 55.6934 27.3856 55.791 27.4556C55.8903 27.5256 56.0107 27.5605 56.1523 27.5605ZM58.0469 28V25.3315H58.6548V25.7417H58.6963C58.7419 25.5985 58.8232 25.487 58.9404 25.4072C59.0592 25.3275 59.2065 25.2876 59.3823 25.2876C59.4279 25.2876 59.4727 25.2909 59.5166 25.2974C59.5622 25.3022 59.5996 25.3088 59.6289 25.3169V25.8613C59.5801 25.8499 59.5304 25.8418 59.48 25.8369C59.4312 25.8304 59.3799 25.8271 59.3262 25.8271C59.1911 25.8271 59.0731 25.8524 58.9722 25.9028C58.8713 25.9533 58.7931 26.0257 58.7378 26.1201C58.6825 26.2129 58.6548 26.3228 58.6548 26.4497V28H58.0469ZM60.1294 28V25.3315H60.7349V28H60.1294ZM60.4346 24.8848C60.3353 24.8848 60.2498 24.8498 60.1782 24.7798C60.1066 24.7098 60.0708 24.626 60.0708 24.5283C60.0708 24.4274 60.1066 24.3428 60.1782 24.2744C60.2498 24.2044 60.3353 24.1694 60.4346 24.1694C60.5339 24.1694 60.6185 24.2044 60.6885 24.2744C60.7601 24.3428 60.7959 24.4274 60.7959 24.5283C60.7959 24.626 60.7601 24.7098 60.6885 24.7798C60.6185 24.8498 60.5339 24.8848 60.4346 24.8848ZM62.627 28.0537C62.3617 28.0537 62.1338 27.9976 61.9434 27.8853C61.7546 27.7729 61.6089 27.6134 61.5063 27.4067C61.4038 27.2 61.3525 26.9551 61.3525 26.6719V26.6694C61.3525 26.3895 61.403 26.1453 61.5039 25.937C61.6064 25.7287 61.7513 25.5675 61.9385 25.4536C62.1257 25.3381 62.3454 25.2803 62.5977 25.2803C62.8516 25.2803 63.0697 25.3364 63.252 25.4487C63.4359 25.5594 63.5775 25.7148 63.6768 25.915C63.776 26.1152 63.8257 26.3496 63.8257 26.6182V26.8184H61.6577V26.4106H63.5278L63.2397 26.7915V26.5498C63.2397 26.3724 63.2129 26.2251 63.1592 26.1079C63.1055 25.9907 63.0306 25.9028 62.9346 25.8442C62.8402 25.7856 62.7303 25.7563 62.605 25.7563C62.4797 25.7563 62.3682 25.7873 62.2705 25.8491C62.1745 25.9093 62.098 25.9989 62.041 26.1177C61.9857 26.2349 61.958 26.3789 61.958 26.5498V26.7939C61.958 26.9583 61.9857 27.0991 62.041 27.2163C62.0964 27.3319 62.1745 27.4214 62.2754 27.4849C62.3779 27.5467 62.4992 27.5776 62.6392 27.5776C62.7482 27.5776 62.8418 27.5622 62.9199 27.5312C62.9997 27.4987 63.064 27.4604 63.1128 27.4165C63.1616 27.3709 63.1958 27.3278 63.2153 27.2871L63.2227 27.27H63.7988L63.7939 27.292C63.7728 27.3783 63.7337 27.4661 63.6768 27.5557C63.6214 27.6436 63.5457 27.7257 63.4497 27.8022C63.3553 27.8771 63.2397 27.9382 63.103 27.9854C62.9663 28.0309 62.8076 28.0537 62.627 28.0537ZM65.4419 28.0537C65.2157 28.0537 65.0203 28.022 64.856 27.9585C64.6932 27.8934 64.5646 27.8039 64.4702 27.6899C64.3758 27.5744 64.3197 27.4409 64.3018 27.2896V27.2847H64.9048L64.9072 27.2896C64.9398 27.3823 65.0008 27.458 65.0903 27.5166C65.1799 27.5752 65.3003 27.6045 65.4517 27.6045C65.5526 27.6045 65.6413 27.5907 65.7178 27.563C65.7943 27.5337 65.8545 27.4938 65.8984 27.4434C65.9424 27.3929 65.9644 27.3343 65.9644 27.2676V27.2627C65.9644 27.1846 65.9326 27.1195 65.8691 27.0674C65.8057 27.0137 65.7007 26.9705 65.5542 26.938L65.1221 26.8403C64.8682 26.7834 64.6794 26.6947 64.5557 26.5742C64.4336 26.4521 64.3726 26.2926 64.3726 26.0957V26.0933C64.3726 25.9321 64.4173 25.7905 64.5068 25.6685C64.598 25.5464 64.7241 25.4512 64.8853 25.3828C65.0464 25.3145 65.2319 25.2803 65.4419 25.2803C65.6584 25.2803 65.8447 25.3128 66.001 25.3779C66.1572 25.443 66.2793 25.5326 66.3672 25.6465C66.4551 25.7604 66.5055 25.8898 66.5186 26.0347V26.0396H65.9473L65.9448 26.0322C65.922 25.9476 65.8675 25.876 65.7812 25.8174C65.6966 25.7572 65.5827 25.7271 65.4395 25.7271C65.3499 25.7271 65.2694 25.7409 65.1978 25.7686C65.1278 25.7962 65.0724 25.8353 65.0317 25.8857C64.9927 25.9346 64.9731 25.9924 64.9731 26.0591V26.0615C64.9731 26.1396 65.0041 26.2039 65.0659 26.2544C65.1278 26.3049 65.2303 26.3464 65.3735 26.3789L65.8057 26.4741C66.0677 26.5327 66.2614 26.6198 66.3867 26.7354C66.512 26.8509 66.5747 27.0063 66.5747 27.2017V27.2065C66.5747 27.3758 66.5259 27.5239 66.4282 27.6509C66.3306 27.7778 66.1963 27.8771 66.0254 27.9487C65.8545 28.0187 65.66 28.0537 65.4419 28.0537Z" fill="black" fill-opacity="0.54"/>
<path d="M100 26C100 23.7909 101.791 22 104 22H110C112.209 22 114 23.7909 114 26C114 28.2091 112.209 30 110 30H104C101.791 30 100 28.2091 100 26Z" fill="#258F14"/>
<circle cx="110" cy="26" r="3" fill="#FCFCFC"/>
</g>
<g clip-path="url(#clip1_12563_3526)">
<g filter="url(#filter1_i_12563_3526)">
<rect y="38" width="120" height="22" fill="#FEFCF6"/>
</g>
<rect x="6" y="44" width="10" height="10" rx="2" fill="#FCFCFC"/>
<path d="M9 46H10.5V47H9V46Z" fill="black" fill-opacity="0.38"/>
<path d="M9 50H10.5V51H9V50Z" fill="black" fill-opacity="0.38"/>
<path d="M11.5 50H13V51H11.5V50Z" fill="black" fill-opacity="0.38"/>
<path d="M10.5 51H11.5V52H10.5V51Z" fill="black" fill-opacity="0.38"/>
<path d="M8 47H9V50H8V47Z" fill="black" fill-opacity="0.38"/>
<path d="M10.5 47H11.5V48H10.5V47Z" fill="black" fill-opacity="0.38"/>
<path d="M11.5 46H13V47H11.5V46Z" fill="black" fill-opacity="0.38"/>
<path d="M13 47H14V50H13V47Z" fill="black" fill-opacity="0.38"/>
<path d="M20.4346 51V47.4771H22.7148V48.0068H21.0645V48.9614H22.6245V49.4619H21.0645V50.4702H22.7148V51H20.4346ZM23.4326 51V48.3315H24.0405V48.7466H24.082C24.139 48.5985 24.231 48.4837 24.3579 48.4023C24.4865 48.321 24.6387 48.2803 24.8145 48.2803C24.9349 48.2803 25.0431 48.2998 25.1392 48.3389C25.2368 48.3779 25.3206 48.4333 25.3906 48.5049C25.4606 48.5765 25.5143 48.6619 25.5518 48.7612H25.5957C25.6396 48.6652 25.7007 48.5814 25.7788 48.5098C25.8586 48.4365 25.9513 48.3804 26.0571 48.3413C26.1646 48.3006 26.2801 48.2803 26.4038 48.2803C26.5828 48.2803 26.7358 48.3161 26.8628 48.3877C26.9914 48.4577 27.0898 48.5586 27.1582 48.6904C27.2282 48.8223 27.2632 48.9801 27.2632 49.1641V51H26.6553V49.313C26.6553 49.1388 26.6154 49.0086 26.5356 48.9224C26.4559 48.8345 26.3346 48.7905 26.1719 48.7905C26.0661 48.7905 25.9741 48.8149 25.896 48.8638C25.8179 48.911 25.7568 48.9753 25.7129 49.0566C25.6706 49.138 25.6494 49.23 25.6494 49.3325V51H25.0415V49.269C25.0415 49.1209 24.9984 49.0046 24.9121 48.9199C24.8275 48.8337 24.7103 48.7905 24.5605 48.7905C24.4613 48.7905 24.3717 48.8166 24.292 48.8687C24.2139 48.9191 24.152 48.9891 24.1064 49.0786C24.0625 49.1665 24.0405 49.2658 24.0405 49.3765V51H23.4326ZM29.1309 51.0537C28.8656 51.0537 28.6369 50.9984 28.4448 50.8877C28.2528 50.7754 28.1047 50.6159 28.0005 50.4092C27.8979 50.2025 27.8467 49.9551 27.8467 49.667V49.6621C27.8467 49.3773 27.8988 49.1315 28.0029 48.9248C28.1071 48.7165 28.2544 48.557 28.4448 48.4463C28.6369 48.3356 28.8656 48.2803 29.1309 48.2803C29.3962 48.2803 29.624 48.3356 29.8145 48.4463C30.0065 48.557 30.1546 48.7157 30.2588 48.9224C30.363 49.1291 30.415 49.3757 30.415 49.6621V49.667C30.415 49.9551 30.363 50.2025 30.2588 50.4092C30.1562 50.6159 30.009 50.7754 29.8169 50.8877C29.6265 50.9984 29.3978 51.0537 29.1309 51.0537ZM29.1309 50.5605C29.2708 50.5605 29.3896 50.5256 29.4873 50.4556C29.5866 50.384 29.6623 50.2822 29.7144 50.1504C29.7664 50.0169 29.7925 49.8566 29.7925 49.6694V49.6646C29.7925 49.4757 29.7664 49.3154 29.7144 49.1836C29.6623 49.0501 29.5866 48.9484 29.4873 48.8784C29.3896 48.8068 29.2708 48.771 29.1309 48.771C28.9909 48.771 28.8713 48.8068 28.772 48.8784C28.6727 48.9484 28.597 49.0501 28.5449 49.1836C28.4928 49.3154 28.4668 49.4757 28.4668 49.6646V49.6694C28.4668 49.8566 28.4928 50.0169 28.5449 50.1504C28.597 50.2839 28.6719 50.3856 28.7695 50.4556C28.8688 50.5256 28.9893 50.5605 29.1309 50.5605ZM32.0752 51.0122C31.7692 51.0122 31.5487 50.9561 31.4136 50.8438C31.2785 50.7314 31.2109 50.5475 31.2109 50.292V48.8027H30.7959V48.3315H31.2109V47.6772H31.8286V48.3315H32.3901V48.8027H31.8286V50.1479C31.8286 50.2798 31.8563 50.3766 31.9116 50.4385C31.9686 50.4987 32.0597 50.5288 32.1851 50.5288C32.229 50.5288 32.2648 50.528 32.2925 50.5264C32.3218 50.5231 32.3543 50.5199 32.3901 50.5166V50.9854C32.3478 50.9935 32.299 51 32.2437 51.0049C32.1899 51.0098 32.1338 51.0122 32.0752 51.0122ZM33.0054 51V48.3315H33.6108V51H33.0054ZM33.3105 47.8848C33.2113 47.8848 33.1258 47.8498 33.0542 47.7798C32.9826 47.7098 32.9468 47.626 32.9468 47.5283C32.9468 47.4274 32.9826 47.3428 33.0542 47.2744C33.1258 47.2044 33.2113 47.1694 33.3105 47.1694C33.4098 47.1694 33.4945 47.2044 33.5645 47.2744C33.6361 47.3428 33.6719 47.4274 33.6719 47.5283C33.6719 47.626 33.6361 47.7098 33.5645 47.7798C33.4945 47.8498 33.4098 47.8848 33.3105 47.8848ZM35.5127 51.0537C35.2474 51.0537 35.0187 50.9984 34.8267 50.8877C34.6346 50.7754 34.4865 50.6159 34.3823 50.4092C34.2798 50.2025 34.2285 49.9551 34.2285 49.667V49.6621C34.2285 49.3773 34.2806 49.1315 34.3848 48.9248C34.4889 48.7165 34.6362 48.557 34.8267 48.4463C35.0187 48.3356 35.2474 48.2803 35.5127 48.2803C35.778 48.2803 36.0059 48.3356 36.1963 48.4463C36.3883 48.557 36.5365 48.7157 36.6406 48.9224C36.7448 49.1291 36.7969 49.3757 36.7969 49.6621V49.667C36.7969 49.9551 36.7448 50.2025 36.6406 50.4092C36.5381 50.6159 36.3908 50.7754 36.1987 50.8877C36.0083 50.9984 35.7796 51.0537 35.5127 51.0537ZM35.5127 50.5605C35.6527 50.5605 35.7715 50.5256 35.8691 50.4556C35.9684 50.384 36.0441 50.2822 36.0962 50.1504C36.1483 50.0169 36.1743 49.8566 36.1743 49.6694V49.6646C36.1743 49.4757 36.1483 49.3154 36.0962 49.1836C36.0441 49.0501 35.9684 48.9484 35.8691 48.8784C35.7715 48.8068 35.6527 48.771 35.5127 48.771C35.3727 48.771 35.2531 48.8068 35.1538 48.8784C35.0545 48.9484 34.9788 49.0501 34.9268 49.1836C34.8747 49.3154 34.8486 49.4757 34.8486 49.6646V49.6694C34.8486 49.8566 34.8747 50.0169 34.9268 50.1504C34.9788 50.2839 35.0537 50.3856 35.1514 50.4556C35.2507 50.5256 35.3711 50.5605 35.5127 50.5605ZM37.4072 51V48.3315H38.0151V48.7417H38.0566C38.1201 48.5968 38.2161 48.4837 38.3447 48.4023C38.4733 48.321 38.6336 48.2803 38.8257 48.2803C39.1235 48.2803 39.3514 48.3665 39.5093 48.5391C39.6672 48.7116 39.7461 48.9565 39.7461 49.2739V51H39.1382V49.4155C39.1382 49.2072 39.0942 49.0509 39.0063 48.9468C38.9201 48.8426 38.785 48.7905 38.6011 48.7905C38.4806 48.7905 38.3765 48.8174 38.2886 48.8711C38.2007 48.9248 38.1331 49.0005 38.0859 49.0981C38.0387 49.1958 38.0151 49.3114 38.0151 49.4448V51H37.4072ZM41.1914 51.0439C41.0238 51.0439 40.8732 51.0114 40.7397 50.9463C40.6079 50.8812 40.5037 50.7892 40.4272 50.6704C40.3524 50.55 40.3149 50.4084 40.3149 50.2456V50.2407C40.3149 50.0031 40.402 49.8159 40.5762 49.6792C40.752 49.5425 41.0026 49.4652 41.3281 49.4473L42.3145 49.3862V49.7866L41.4136 49.8452C41.2427 49.855 41.1165 49.8908 41.0352 49.9526C40.9538 50.0145 40.9131 50.1007 40.9131 50.2114V50.2163C40.9131 50.3302 40.9562 50.4189 41.0425 50.4824C41.1304 50.5459 41.2419 50.5776 41.377 50.5776C41.499 50.5776 41.6081 50.5532 41.7041 50.5044C41.8001 50.4556 41.8758 50.3896 41.9312 50.3066C41.9865 50.222 42.0142 50.1268 42.0142 50.021V49.1763C42.0142 49.0428 41.9718 48.9411 41.8872 48.8711C41.8026 48.7995 41.6772 48.7637 41.5112 48.7637C41.3729 48.7637 41.2598 48.7881 41.1719 48.8369C41.084 48.8841 41.0246 48.9517 40.9937 49.0396L40.9912 49.0493H40.4175L40.4199 49.0273C40.4395 48.8776 40.498 48.7466 40.5957 48.6343C40.6934 48.522 40.8228 48.4349 40.9839 48.373C41.145 48.3112 41.3306 48.2803 41.5405 48.2803C41.7716 48.2803 41.967 48.3161 42.1265 48.3877C42.286 48.4577 42.4072 48.5602 42.4902 48.6953C42.5732 48.8288 42.6147 48.9891 42.6147 49.1763V51H42.0142V50.6338H41.9727C41.9238 50.7184 41.8604 50.7917 41.7822 50.8535C41.7057 50.9154 41.6178 50.9626 41.5186 50.9951C41.4193 51.0277 41.3102 51.0439 41.1914 51.0439ZM43.3691 51V47.2988H43.9771V51H43.3691ZM46.1377 51V47.4771H47.561C47.8133 47.4771 48.0298 47.5218 48.2104 47.6113C48.3911 47.7008 48.5295 47.827 48.6255 47.9897C48.7215 48.1525 48.7695 48.3462 48.7695 48.5708V48.5757C48.7695 48.8084 48.7109 49.0151 48.5938 49.1958C48.4782 49.3748 48.3162 49.5018 48.1079 49.5767L48.877 51H48.1592L47.4658 49.6743C47.4626 49.6743 47.4577 49.6743 47.4512 49.6743C47.4447 49.6743 47.439 49.6743 47.4341 49.6743H46.7676V51H46.1377ZM46.7676 49.1909H47.4951C47.6953 49.1909 47.8507 49.138 47.9614 49.0322C48.0721 48.9264 48.1274 48.7791 48.1274 48.5903V48.5854C48.1274 48.4015 48.0697 48.2559 47.9541 48.1484C47.8402 48.0394 47.6831 47.9849 47.4829 47.9849H46.7676V49.1909ZM50.5322 51.0537C50.2669 51.0537 50.0391 50.9976 49.8486 50.8853C49.6598 50.7729 49.5142 50.6134 49.4116 50.4067C49.3091 50.2 49.2578 49.9551 49.2578 49.6719V49.6694C49.2578 49.3895 49.3083 49.1453 49.4092 48.937C49.5117 48.7287 49.6566 48.5675 49.8438 48.4536C50.0309 48.3381 50.2507 48.2803 50.5029 48.2803C50.7568 48.2803 50.9749 48.3364 51.1572 48.4487C51.3411 48.5594 51.4827 48.7148 51.582 48.915C51.6813 49.1152 51.731 49.3496 51.731 49.6182V49.8184H49.563V49.4106H51.4331L51.145 49.7915V49.5498C51.145 49.3724 51.1182 49.2251 51.0645 49.1079C51.0107 48.9907 50.9359 48.9028 50.8398 48.8442C50.7454 48.7856 50.6356 48.7563 50.5103 48.7563C50.3849 48.7563 50.2734 48.7873 50.1758 48.8491C50.0798 48.9093 50.0033 48.9989 49.9463 49.1177C49.891 49.2349 49.8633 49.3789 49.8633 49.5498V49.7939C49.8633 49.9583 49.891 50.0991 49.9463 50.2163C50.0016 50.3319 50.0798 50.4214 50.1807 50.4849C50.2832 50.5467 50.4045 50.5776 50.5444 50.5776C50.6535 50.5776 50.7471 50.5622 50.8252 50.5312C50.9049 50.4987 50.9692 50.4604 51.0181 50.4165C51.0669 50.3709 51.1011 50.3278 51.1206 50.2871L51.1279 50.27H51.7041L51.6992 50.292C51.6781 50.3783 51.639 50.4661 51.582 50.5557C51.5267 50.6436 51.451 50.7257 51.355 50.8022C51.2606 50.8771 51.145 50.9382 51.0083 50.9854C50.8716 51.0309 50.7129 51.0537 50.5322 51.0537ZM53.4839 51.0537C53.2153 51.0537 52.9858 50.9984 52.7954 50.8877C52.605 50.777 52.4593 50.6175 52.3584 50.4092C52.2575 50.2008 52.207 49.9518 52.207 49.6621V49.6572C52.207 49.3691 52.2575 49.1226 52.3584 48.9175C52.4593 48.7124 52.605 48.5553 52.7954 48.4463C52.9858 48.3356 53.2145 48.2803 53.4814 48.2803C53.7109 48.2803 53.9079 48.3201 54.0723 48.3999C54.2383 48.478 54.3693 48.5871 54.4653 48.7271C54.563 48.8654 54.6232 49.0273 54.646 49.2129V49.2227H54.0723L54.0698 49.2153C54.0422 49.0851 53.9787 48.9785 53.8794 48.8955C53.7817 48.8125 53.6499 48.771 53.4839 48.771C53.3455 48.771 53.2267 48.806 53.1274 48.876C53.0298 48.946 52.9549 49.0469 52.9028 49.1787C52.8507 49.3105 52.8247 49.4701 52.8247 49.6572V49.6621C52.8247 49.8509 52.8507 50.0129 52.9028 50.1479C52.9565 50.2814 53.0322 50.384 53.1299 50.4556C53.2275 50.5256 53.3455 50.5605 53.4839 50.5605C53.6418 50.5605 53.7687 50.5247 53.8647 50.4531C53.9624 50.3815 54.0299 50.2757 54.0674 50.1357L54.0723 50.126L54.6436 50.1235L54.6411 50.1455C54.6118 50.3262 54.5483 50.4849 54.4507 50.6216C54.3547 50.7583 54.2261 50.8649 54.0649 50.9414C53.9038 51.0163 53.7101 51.0537 53.4839 51.0537ZM55.9521 51.0439C55.7845 51.0439 55.634 51.0114 55.5005 50.9463C55.3687 50.8812 55.2645 50.7892 55.188 50.6704C55.1131 50.55 55.0757 50.4084 55.0757 50.2456V50.2407C55.0757 50.0031 55.1628 49.8159 55.3369 49.6792C55.5127 49.5425 55.7633 49.4652 56.0889 49.4473L57.0752 49.3862V49.7866L56.1743 49.8452C56.0034 49.855 55.8773 49.8908 55.7959 49.9526C55.7145 50.0145 55.6738 50.1007 55.6738 50.2114V50.2163C55.6738 50.3302 55.717 50.4189 55.8032 50.4824C55.8911 50.5459 56.0026 50.5776 56.1377 50.5776C56.2598 50.5776 56.3688 50.5532 56.4648 50.5044C56.5609 50.4556 56.6366 50.3896 56.6919 50.3066C56.7472 50.222 56.7749 50.1268 56.7749 50.021V49.1763C56.7749 49.0428 56.7326 48.9411 56.6479 48.8711C56.5633 48.7995 56.438 48.7637 56.272 48.7637C56.1336 48.7637 56.0205 48.7881 55.9326 48.8369C55.8447 48.8841 55.7853 48.9517 55.7544 49.0396L55.752 49.0493H55.1782L55.1807 49.0273C55.2002 48.8776 55.2588 48.7466 55.3564 48.6343C55.4541 48.522 55.5835 48.4349 55.7446 48.373C55.9058 48.3112 56.0913 48.2803 56.3013 48.2803C56.5324 48.2803 56.7277 48.3161 56.8872 48.3877C57.0467 48.4577 57.168 48.5602 57.251 48.6953C57.334 48.8288 57.3755 48.9891 57.3755 49.1763V51H56.7749V50.6338H56.7334C56.6846 50.7184 56.6211 50.7917 56.543 50.8535C56.4665 50.9154 56.3786 50.9626 56.2793 50.9951C56.18 51.0277 56.071 51.0439 55.9521 51.0439ZM58.1299 51V47.2988H58.7378V51H58.1299ZM59.5264 51V47.2988H60.1343V51H59.5264Z" fill="black" fill-opacity="0.54"/>
<path d="M100 49C100 46.7909 101.791 45 104 45H110C112.209 45 114 46.7909 114 49C114 51.2091 112.209 53 110 53H104C101.791 53 100 51.2091 100 49Z" fill="#258F14"/>
<circle cx="110" cy="49" r="3" fill="#FCFCFC"/>
</g>
<g clip-path="url(#clip2_12563_3526)">
<g filter="url(#filter2_i_12563_3526)">
<rect y="61" width="120" height="22" fill="#FEFCF6"/>
</g>
<path opacity="0.8" d="M82 79L86 83H78L82 79Z" fill="#258F14"/>
<rect x="6" y="67" width="10" height="10" rx="2" fill="#FCFCFC"/>
<path d="M9 69H10.5V70H9V69Z" fill="black" fill-opacity="0.38"/>
<path d="M9 73H10.5V74H9V73Z" fill="black" fill-opacity="0.38"/>
<path d="M11.5 73H13V74H11.5V73Z" fill="black" fill-opacity="0.38"/>
<path d="M10.5 74H11.5V75H10.5V74Z" fill="black" fill-opacity="0.38"/>
<path d="M8 70H9V73H8V70Z" fill="black" fill-opacity="0.38"/>
<path d="M10.5 70H11.5V71H10.5V70Z" fill="black" fill-opacity="0.38"/>
<path d="M11.5 69H13V70H11.5V69Z" fill="black" fill-opacity="0.38"/>
<path d="M13 70H14V73H13V70Z" fill="black" fill-opacity="0.38"/>
<path d="M20.4346 74V70.4771H22.7148V71.0068H21.0645V71.9614H22.6245V72.4619H21.0645V73.4702H22.7148V74H20.4346ZM24.1504 74L23.2007 71.3315H23.8501L24.4653 73.4067H24.5093L25.1221 71.3315H25.7617L24.8145 74H24.1504ZM27.3096 74.0537C27.0443 74.0537 26.8164 73.9976 26.626 73.8853C26.4372 73.7729 26.2915 73.6134 26.189 73.4067C26.0864 73.2 26.0352 72.9551 26.0352 72.6719V72.6694C26.0352 72.3895 26.0856 72.1453 26.1865 71.937C26.2891 71.7287 26.4339 71.5675 26.6211 71.4536C26.8083 71.3381 27.028 71.2803 27.2803 71.2803C27.5342 71.2803 27.7523 71.3364 27.9346 71.4487C28.1185 71.5594 28.2601 71.7148 28.3594 71.915C28.4587 72.1152 28.5083 72.3496 28.5083 72.6182V72.8184H26.3403V72.4106H28.2104L27.9224 72.7915V72.5498C27.9224 72.3724 27.8955 72.2251 27.8418 72.1079C27.7881 71.9907 27.7132 71.9028 27.6172 71.8442C27.5228 71.7856 27.4129 71.7563 27.2876 71.7563C27.1623 71.7563 27.0508 71.7873 26.9531 71.8491C26.8571 71.9093 26.7806 71.9989 26.7236 72.1177C26.6683 72.2349 26.6406 72.3789 26.6406 72.5498V72.7939C26.6406 72.9583 26.6683 73.0991 26.7236 73.2163C26.779 73.3319 26.8571 73.4214 26.958 73.4849C27.0605 73.5467 27.1818 73.5776 27.3218 73.5776C27.4308 73.5776 27.5244 73.5622 27.6025 73.5312C27.6823 73.4987 27.7466 73.4604 27.7954 73.4165C27.8442 73.3709 27.8784 73.3278 27.8979 73.2871L27.9053 73.27H28.4814L28.4766 73.292C28.4554 73.3783 28.4163 73.4661 28.3594 73.5557C28.304 73.6436 28.2284 73.7257 28.1323 73.8022C28.0379 73.8771 27.9224 73.9382 27.7856 73.9854C27.6489 74.0309 27.4902 74.0537 27.3096 74.0537ZM29.1162 74V71.3315H29.7241V71.7417H29.7656C29.8291 71.5968 29.9251 71.4837 30.0537 71.4023C30.1823 71.321 30.3426 71.2803 30.5347 71.2803C30.8325 71.2803 31.0604 71.3665 31.2183 71.5391C31.3761 71.7116 31.4551 71.9565 31.4551 72.2739V74H30.8472V72.4155C30.8472 72.2072 30.8032 72.0509 30.7153 71.9468C30.6291 71.8426 30.494 71.7905 30.3101 71.7905C30.1896 71.7905 30.0854 71.8174 29.9976 71.8711C29.9097 71.9248 29.8421 72.0005 29.7949 72.0981C29.7477 72.1958 29.7241 72.3114 29.7241 72.4448V74H29.1162ZM33.2227 74.0122C32.9167 74.0122 32.6961 73.9561 32.561 73.8438C32.4259 73.7314 32.3584 73.5475 32.3584 73.292V71.8027H31.9434V71.3315H32.3584V70.6772H32.9761V71.3315H33.5376V71.8027H32.9761V73.1479C32.9761 73.2798 33.0037 73.3766 33.0591 73.4385C33.116 73.4987 33.2072 73.5288 33.3325 73.5288C33.3765 73.5288 33.4123 73.528 33.4399 73.5264C33.4692 73.5231 33.5018 73.5199 33.5376 73.5166V73.9854C33.4953 73.9935 33.4465 74 33.3911 74.0049C33.3374 74.0098 33.2812 74.0122 33.2227 74.0122ZM35.542 74V70.4771H36.9653C37.2176 70.4771 37.4341 70.5218 37.6147 70.6113C37.7954 70.7008 37.9338 70.827 38.0298 70.9897C38.1258 71.1525 38.1738 71.3462 38.1738 71.5708V71.5757C38.1738 71.8084 38.1152 72.0151 37.998 72.1958C37.8825 72.3748 37.7205 72.5018 37.5122 72.5767L38.2812 74H37.5635L36.8701 72.6743C36.8669 72.6743 36.862 72.6743 36.8555 72.6743C36.849 72.6743 36.8433 72.6743 36.8384 72.6743H36.1719V74H35.542ZM36.1719 72.1909H36.8994C37.0996 72.1909 37.255 72.138 37.3657 72.0322C37.4764 71.9264 37.5317 71.7791 37.5317 71.5903V71.5854C37.5317 71.4015 37.474 71.2559 37.3584 71.1484C37.2445 71.0394 37.0874 70.9849 36.8872 70.9849H36.1719V72.1909ZM39.9365 74.0537C39.6712 74.0537 39.4434 73.9976 39.2529 73.8853C39.0641 73.7729 38.9185 73.6134 38.8159 73.4067C38.7134 73.2 38.6621 72.9551 38.6621 72.6719V72.6694C38.6621 72.3895 38.7126 72.1453 38.8135 71.937C38.916 71.7287 39.0609 71.5675 39.248 71.4536C39.4352 71.3381 39.6549 71.2803 39.9072 71.2803C40.1611 71.2803 40.3792 71.3364 40.5615 71.4487C40.7454 71.5594 40.887 71.7148 40.9863 71.915C41.0856 72.1152 41.1353 72.3496 41.1353 72.6182V72.8184H38.9673V72.4106H40.8374L40.5493 72.7915V72.5498C40.5493 72.3724 40.5225 72.2251 40.4688 72.1079C40.415 71.9907 40.3402 71.9028 40.2441 71.8442C40.1497 71.7856 40.0399 71.7563 39.9146 71.7563C39.7892 71.7563 39.6777 71.7873 39.5801 71.8491C39.484 71.9093 39.4076 71.9989 39.3506 72.1177C39.2952 72.2349 39.2676 72.3789 39.2676 72.5498V72.7939C39.2676 72.9583 39.2952 73.0991 39.3506 73.2163C39.4059 73.3319 39.484 73.4214 39.585 73.4849C39.6875 73.5467 39.8088 73.5776 39.9487 73.5776C40.0578 73.5776 40.1514 73.5622 40.2295 73.5312C40.3092 73.4987 40.3735 73.4604 40.4224 73.4165C40.4712 73.3709 40.5054 73.3278 40.5249 73.2871L40.5322 73.27H41.1084L41.1035 73.292C41.0824 73.3783 41.0433 73.4661 40.9863 73.5557C40.931 73.6436 40.8553 73.7257 40.7593 73.8022C40.6649 73.8771 40.5493 73.9382 40.4126 73.9854C40.2759 74.0309 40.1172 74.0537 39.9365 74.0537ZM42.8882 74.0537C42.6196 74.0537 42.3901 73.9984 42.1997 73.8877C42.0093 73.777 41.8636 73.6175 41.7627 73.4092C41.6618 73.2008 41.6113 72.9518 41.6113 72.6621V72.6572C41.6113 72.3691 41.6618 72.1226 41.7627 71.9175C41.8636 71.7124 42.0093 71.5553 42.1997 71.4463C42.3901 71.3356 42.6188 71.2803 42.8857 71.2803C43.1152 71.2803 43.3122 71.3201 43.4766 71.3999C43.6426 71.478 43.7736 71.5871 43.8696 71.7271C43.9673 71.8654 44.0275 72.0273 44.0503 72.2129V72.2227H43.4766L43.4741 72.2153C43.4465 72.0851 43.383 71.9785 43.2837 71.8955C43.186 71.8125 43.0542 71.771 42.8882 71.771C42.7498 71.771 42.631 71.806 42.5317 71.876C42.4341 71.946 42.3592 72.0469 42.3071 72.1787C42.255 72.3105 42.229 72.4701 42.229 72.6572V72.6621C42.229 72.8509 42.255 73.0129 42.3071 73.1479C42.3608 73.2814 42.4365 73.384 42.5342 73.4556C42.6318 73.5256 42.7498 73.5605 42.8882 73.5605C43.0461 73.5605 43.173 73.5247 43.269 73.4531C43.3667 73.3815 43.4342 73.2757 43.4717 73.1357L43.4766 73.126L44.0479 73.1235L44.0454 73.1455C44.0161 73.3262 43.9526 73.4849 43.855 73.6216C43.759 73.7583 43.6304 73.8649 43.4692 73.9414C43.3081 74.0163 43.1144 74.0537 42.8882 74.0537ZM45.3564 74.0439C45.1888 74.0439 45.0382 74.0114 44.9048 73.9463C44.7729 73.8812 44.6688 73.7892 44.5923 73.6704C44.5174 73.55 44.48 73.4084 44.48 73.2456V73.2407C44.48 73.0031 44.5671 72.8159 44.7412 72.6792C44.917 72.5425 45.1676 72.4652 45.4932 72.4473L46.4795 72.3862V72.7866L45.5786 72.8452C45.4077 72.855 45.2816 72.8908 45.2002 72.9526C45.1188 73.0145 45.0781 73.1007 45.0781 73.2114V73.2163C45.0781 73.3302 45.1213 73.4189 45.2075 73.4824C45.2954 73.5459 45.4069 73.5776 45.542 73.5776C45.6641 73.5776 45.7731 73.5532 45.8691 73.5044C45.9652 73.4556 46.0409 73.3896 46.0962 73.3066C46.1515 73.222 46.1792 73.1268 46.1792 73.021V72.1763C46.1792 72.0428 46.1369 71.9411 46.0522 71.8711C45.9676 71.7995 45.8423 71.7637 45.6763 71.7637C45.5379 71.7637 45.4248 71.7881 45.3369 71.8369C45.249 71.8841 45.1896 71.9517 45.1587 72.0396L45.1562 72.0493H44.5825L44.585 72.0273C44.6045 71.8776 44.6631 71.7466 44.7607 71.6343C44.8584 71.522 44.9878 71.4349 45.1489 71.373C45.3101 71.3112 45.4956 71.2803 45.7056 71.2803C45.9367 71.2803 46.132 71.3161 46.2915 71.3877C46.451 71.4577 46.5723 71.5602 46.6553 71.6953C46.7383 71.8288 46.7798 71.9891 46.7798 72.1763V74H46.1792V73.6338H46.1377C46.0889 73.7184 46.0254 73.7917 45.9473 73.8535C45.8708 73.9154 45.7829 73.9626 45.6836 73.9951C45.5843 74.0277 45.4753 74.0439 45.3564 74.0439ZM47.5342 74V70.2988H48.1421V74H47.5342ZM48.9307 74V70.2988H49.5386V74H48.9307Z" fill="black" fill-opacity="0.54"/>
<rect x="104" y="67" width="10" height="10" rx="2" fill="#FCFCFC"/>
<path d="M107 69H108.5V70H107V69Z" fill="black" fill-opacity="0.38"/>
<path d="M107 73H108.5V74H107V73Z" fill="black" fill-opacity="0.38"/>
<path d="M109.5 73H111V74H109.5V73Z" fill="black" fill-opacity="0.38"/>
<path d="M108.5 74H109.5V75H108.5V74Z" fill="black" fill-opacity="0.38"/>
<path d="M106 70H107V73H106V70Z" fill="black" fill-opacity="0.38"/>
<path d="M108.5 70H109.5V71H108.5V70Z" fill="black" fill-opacity="0.38"/>
<path d="M109.5 69H111V70H109.5V69Z" fill="black" fill-opacity="0.38"/>
<path d="M111 70H112V73H111V70Z" fill="black" fill-opacity="0.38"/>
</g>
<g clip-path="url(#clip3_12563_3526)">
<g filter="url(#filter3_i_12563_3526)">
<rect y="84" width="120" height="22" fill="#FEFCF6"/>
</g>
<rect x="6" y="90" width="10" height="10" rx="2" fill="#FCFCFC"/>
<path d="M9 92H10.5V93H9V92Z" fill="black" fill-opacity="0.38"/>
<path d="M9 96H10.5V97H9V96Z" fill="black" fill-opacity="0.38"/>
<path d="M11.5 96H13V97H11.5V96Z" fill="black" fill-opacity="0.38"/>
<path d="M10.5 97H11.5V98H10.5V97Z" fill="black" fill-opacity="0.38"/>
<path d="M8 93H9V96H8V93Z" fill="black" fill-opacity="0.38"/>
<path d="M10.5 93H11.5V94H10.5V93Z" fill="black" fill-opacity="0.38"/>
<path d="M11.5 92H13V93H11.5V92Z" fill="black" fill-opacity="0.38"/>
<path d="M13 93H14V96H13V93Z" fill="black" fill-opacity="0.38"/>
<path d="M20.4346 97V93.4771H22.6807V94.0068H21.0645V95.0493H22.5415V95.562H21.0645V97H20.4346ZM23.9014 97.0439C23.7337 97.0439 23.5832 97.0114 23.4497 96.9463C23.3179 96.8812 23.2137 96.7892 23.1372 96.6704C23.0623 96.55 23.0249 96.4084 23.0249 96.2456V96.2407C23.0249 96.0031 23.112 95.8159 23.2861 95.6792C23.4619 95.5425 23.7126 95.4652 24.0381 95.4473L25.0244 95.3862V95.7866L24.1235 95.8452C23.9526 95.855 23.8265 95.8908 23.7451 95.9526C23.6637 96.0145 23.623 96.1007 23.623 96.2114V96.2163C23.623 96.3302 23.6662 96.4189 23.7524 96.4824C23.8403 96.5459 23.9518 96.5776 24.0869 96.5776C24.209 96.5776 24.318 96.5532 24.4141 96.5044C24.5101 96.4556 24.5858 96.3896 24.6411 96.3066C24.6965 96.222 24.7241 96.1268 24.7241 96.021V95.1763C24.7241 95.0428 24.6818 94.9411 24.5972 94.8711C24.5125 94.7995 24.3872 94.7637 24.2212 94.7637C24.0828 94.7637 23.9697 94.7881 23.8818 94.8369C23.7939 94.8841 23.7345 94.9517 23.7036 95.0396L23.7012 95.0493H23.1274L23.1299 95.0273C23.1494 94.8776 23.208 94.7466 23.3057 94.6343C23.4033 94.522 23.5327 94.4349 23.6938 94.373C23.855 94.3112 24.0405 94.2803 24.2505 94.2803C24.4816 94.2803 24.6769 94.3161 24.8364 94.3877C24.9959 94.4577 25.1172 94.5602 25.2002 94.6953C25.2832 94.8288 25.3247 94.9891 25.3247 95.1763V97H24.7241V96.6338H24.6826C24.6338 96.7184 24.5703 96.7917 24.4922 96.8535C24.4157 96.9154 24.3278 96.9626 24.2285 96.9951C24.1292 97.0277 24.0202 97.0439 23.9014 97.0439ZM27.1997 97.0537C26.9312 97.0537 26.7017 96.9984 26.5112 96.8877C26.3208 96.777 26.1751 96.6175 26.0742 96.4092C25.9733 96.2008 25.9229 95.9518 25.9229 95.6621V95.6572C25.9229 95.3691 25.9733 95.1226 26.0742 94.9175C26.1751 94.7124 26.3208 94.5553 26.5112 94.4463C26.7017 94.3356 26.9303 94.2803 27.1973 94.2803C27.4268 94.2803 27.6237 94.3201 27.7881 94.3999C27.9541 94.478 28.0851 94.5871 28.1812 94.7271C28.2788 94.8654 28.339 95.0273 28.3618 95.2129V95.2227H27.7881L27.7856 95.2153C27.758 95.0851 27.6945 94.9785 27.5952 94.8955C27.4976 94.8125 27.3657 94.771 27.1997 94.771C27.0614 94.771 26.9425 94.806 26.8433 94.876C26.7456 94.946 26.6707 95.0469 26.6187 95.1787C26.5666 95.3105 26.5405 95.4701 26.5405 95.6572V95.6621C26.5405 95.8509 26.5666 96.0129 26.6187 96.1479C26.6724 96.2814 26.748 96.384 26.8457 96.4556C26.9434 96.5256 27.0614 96.5605 27.1997 96.5605C27.3576 96.5605 27.4845 96.5247 27.5806 96.4531C27.6782 96.3815 27.7458 96.2757 27.7832 96.1357L27.7881 96.126L28.3594 96.1235L28.3569 96.1455C28.3276 96.3262 28.2642 96.4849 28.1665 96.6216C28.0705 96.7583 27.9419 96.8649 27.7808 96.9414C27.6196 97.0163 27.4259 97.0537 27.1997 97.0537ZM30.0244 97.0122C29.7184 97.0122 29.4979 96.9561 29.3628 96.8438C29.2277 96.7314 29.1602 96.5475 29.1602 96.292V94.8027H28.7451V94.3315H29.1602V93.6772H29.7778V94.3315H30.3394V94.8027H29.7778V96.1479C29.7778 96.2798 29.8055 96.3766 29.8608 96.4385C29.9178 96.4987 30.009 96.5288 30.1343 96.5288C30.1782 96.5288 30.214 96.528 30.2417 96.5264C30.271 96.5231 30.3035 96.5199 30.3394 96.5166V96.9854C30.297 96.9935 30.2482 97 30.1929 97.0049C30.1392 97.0098 30.083 97.0122 30.0244 97.0122ZM30.8911 95.855V95.3032H32.522V95.855H30.8911ZM34.4214 97.0537C34.1528 97.0537 33.9233 96.9984 33.7329 96.8877C33.5425 96.777 33.3968 96.6175 33.2959 96.4092C33.195 96.2008 33.1445 95.9518 33.1445 95.6621V95.6572C33.1445 95.3691 33.195 95.1226 33.2959 94.9175C33.3968 94.7124 33.5425 94.5553 33.7329 94.4463C33.9233 94.3356 34.152 94.2803 34.4189 94.2803C34.6484 94.2803 34.8454 94.3201 35.0098 94.3999C35.1758 94.478 35.3068 94.5871 35.4028 94.7271C35.5005 94.8654 35.5607 95.0273 35.5835 95.2129V95.2227H35.0098L35.0073 95.2153C34.9797 95.0851 34.9162 94.9785 34.8169 94.8955C34.7192 94.8125 34.5874 94.771 34.4214 94.771C34.283 94.771 34.1642 94.806 34.0649 94.876C33.9673 94.946 33.8924 95.0469 33.8403 95.1787C33.7882 95.3105 33.7622 95.4701 33.7622 95.6572V95.6621C33.7622 95.8509 33.7882 96.0129 33.8403 96.1479C33.894 96.2814 33.9697 96.384 34.0674 96.4556C34.165 96.5256 34.283 96.5605 34.4214 96.5605C34.5793 96.5605 34.7062 96.5247 34.8022 96.4531C34.8999 96.3815 34.9674 96.2757 35.0049 96.1357L35.0098 96.126L35.5811 96.1235L35.5786 96.1455C35.5493 96.3262 35.4858 96.4849 35.3882 96.6216C35.2922 96.7583 35.1636 96.8649 35.0024 96.9414C34.8413 97.0163 34.6476 97.0537 34.4214 97.0537ZM36.1865 97V93.2988H36.7944V94.7417H36.8359C36.8994 94.5968 36.9954 94.4837 37.124 94.4023C37.2526 94.321 37.4129 94.2803 37.605 94.2803C37.8035 94.2803 37.9712 94.3193 38.1079 94.3975C38.2446 94.474 38.348 94.5863 38.418 94.7344C38.4896 94.8825 38.5254 95.0623 38.5254 95.2739V97H37.9175V95.4155C37.9175 95.2072 37.8735 95.0509 37.7856 94.9468C37.6994 94.8426 37.5643 94.7905 37.3804 94.7905C37.2599 94.7905 37.1558 94.8174 37.0679 94.8711C36.98 94.9248 36.9124 95.0005 36.8652 95.0981C36.818 95.1958 36.7944 95.3114 36.7944 95.4448V97H36.1865ZM40.3857 97.0537C40.1204 97.0537 39.8926 96.9976 39.7021 96.8853C39.5133 96.7729 39.3677 96.6134 39.2651 96.4067C39.1626 96.2 39.1113 95.9551 39.1113 95.6719V95.6694C39.1113 95.3895 39.1618 95.1453 39.2627 94.937C39.3652 94.7287 39.5101 94.5675 39.6973 94.4536C39.8844 94.3381 40.1042 94.2803 40.3564 94.2803C40.6104 94.2803 40.8285 94.3364 41.0107 94.4487C41.1947 94.5594 41.3363 94.7148 41.4355 94.915C41.5348 95.1152 41.5845 95.3496 41.5845 95.6182V95.8184H39.4165V95.4106H41.2866L40.9985 95.7915V95.5498C40.9985 95.3724 40.9717 95.2251 40.918 95.1079C40.8643 94.9907 40.7894 94.9028 40.6934 94.8442C40.599 94.7856 40.4891 94.7563 40.3638 94.7563C40.2384 94.7563 40.127 94.7873 40.0293 94.8491C39.9333 94.9093 39.8568 94.9989 39.7998 95.1177C39.7445 95.2349 39.7168 95.3789 39.7168 95.5498V95.7939C39.7168 95.9583 39.7445 96.0991 39.7998 96.2163C39.8551 96.3319 39.9333 96.4214 40.0342 96.4849C40.1367 96.5467 40.258 96.5776 40.3979 96.5776C40.507 96.5776 40.6006 96.5622 40.6787 96.5312C40.7585 96.4987 40.8228 96.4604 40.8716 96.4165C40.9204 96.3709 40.9546 96.3278 40.9741 96.2871L40.9814 96.27H41.5576L41.5527 96.292C41.5316 96.3783 41.4925 96.4661 41.4355 96.5557C41.3802 96.6436 41.3045 96.7257 41.2085 96.8022C41.1141 96.8771 40.9985 96.9382 40.8618 96.9854C40.7251 97.0309 40.5664 97.0537 40.3857 97.0537ZM43.3374 97.0537C43.0688 97.0537 42.8394 96.9984 42.6489 96.8877C42.4585 96.777 42.3128 96.6175 42.2119 96.4092C42.111 96.2008 42.0605 95.9518 42.0605 95.6621V95.6572C42.0605 95.3691 42.111 95.1226 42.2119 94.9175C42.3128 94.7124 42.4585 94.5553 42.6489 94.4463C42.8394 94.3356 43.068 94.2803 43.335 94.2803C43.5645 94.2803 43.7614 94.3201 43.9258 94.3999C44.0918 94.478 44.2228 94.5871 44.3188 94.7271C44.4165 94.8654 44.4767 95.0273 44.4995 95.2129V95.2227H43.9258L43.9233 95.2153C43.8957 95.0851 43.8322 94.9785 43.7329 94.8955C43.6353 94.8125 43.5034 94.771 43.3374 94.771C43.1991 94.771 43.0802 94.806 42.981 94.876C42.8833 94.946 42.8084 95.0469 42.7563 95.1787C42.7043 95.3105 42.6782 95.4701 42.6782 95.6572V95.6621C42.6782 95.8509 42.7043 96.0129 42.7563 96.1479C42.8101 96.2814 42.8857 96.384 42.9834 96.4556C43.0811 96.5256 43.1991 96.5605 43.3374 96.5605C43.4953 96.5605 43.6222 96.5247 43.7183 96.4531C43.8159 96.3815 43.8835 96.2757 43.9209 96.1357L43.9258 96.126L44.4971 96.1235L44.4946 96.1455C44.4653 96.3262 44.4019 96.4849 44.3042 96.6216C44.2082 96.7583 44.0796 96.8649 43.9185 96.9414C43.7573 97.0163 43.5636 97.0537 43.3374 97.0537ZM45.1025 97V93.2988H45.7104V97H45.1025ZM46.7798 97L45.8813 95.7891L46.333 95.418L47.5098 97H46.7798ZM45.6592 96.1162L45.6372 95.4277H45.752L46.7358 94.3315H47.439L46.2793 95.5498L46.001 95.7671L45.6592 96.1162ZM47.9858 97V94.3315H48.5913V97H47.9858ZM48.291 93.8848C48.1917 93.8848 48.1063 93.8498 48.0347 93.7798C47.9631 93.7098 47.9272 93.626 47.9272 93.5283C47.9272 93.4274 47.9631 93.3428 48.0347 93.2744C48.1063 93.2044 48.1917 93.1694 48.291 93.1694C48.3903 93.1694 48.4749 93.2044 48.5449 93.2744C48.6165 93.3428 48.6523 93.4274 48.6523 93.5283C48.6523 93.626 48.6165 93.7098 48.5449 93.7798C48.4749 93.8498 48.3903 93.8848 48.291 93.8848ZM49.3408 97V94.3315H49.9487V94.7417H49.9902C50.0537 94.5968 50.1497 94.4837 50.2783 94.4023C50.4069 94.321 50.5672 94.2803 50.7593 94.2803C51.0571 94.2803 51.285 94.3665 51.4429 94.5391C51.6007 94.7116 51.6797 94.9565 51.6797 95.2739V97H51.0718V95.4155C51.0718 95.2072 51.0278 95.0509 50.9399 94.9468C50.8537 94.8426 50.7186 94.7905 50.5347 94.7905C50.4142 94.7905 50.3101 94.8174 50.2222 94.8711C50.1343 94.9248 50.0667 95.0005 50.0195 95.0981C49.9723 95.1958 49.9487 95.3114 49.9487 95.4448V97H49.3408ZM53.5449 97.9375C53.3105 97.9375 53.1079 97.9066 52.937 97.8447C52.7677 97.7829 52.6343 97.695 52.5366 97.5811C52.439 97.4688 52.3796 97.3377 52.3584 97.188L52.3608 97.1807H52.9663L52.9712 97.188C52.9907 97.2726 53.0501 97.3418 53.1494 97.3955C53.2503 97.4508 53.3854 97.4785 53.5547 97.4785C53.763 97.4785 53.9242 97.4321 54.0381 97.3394C54.1536 97.2466 54.2114 97.1147 54.2114 96.9438V96.4312H54.1699C54.1195 96.5272 54.0535 96.6086 53.9722 96.6753C53.8924 96.742 53.8005 96.7925 53.6963 96.8267C53.5938 96.8592 53.4806 96.8755 53.3569 96.8755C53.1323 96.8755 52.9378 96.8218 52.7734 96.7144C52.609 96.6053 52.4821 96.4548 52.3926 96.2627C52.3047 96.0706 52.2607 95.8485 52.2607 95.5962V95.5913C52.2607 95.3341 52.3055 95.1079 52.395 94.9126C52.4845 94.7173 52.6115 94.5643 52.7759 94.4536C52.9419 94.3429 53.1396 94.2876 53.3691 94.2876C53.4928 94.2876 53.606 94.3071 53.7085 94.3462C53.8127 94.3853 53.9038 94.4406 53.9819 94.5122C54.0617 94.5838 54.1268 94.6701 54.1772 94.771H54.209V94.3315H54.8169V96.9341C54.8169 97.1392 54.7648 97.3166 54.6606 97.4663C54.5581 97.6177 54.4116 97.734 54.2212 97.8154C54.0308 97.8968 53.8053 97.9375 53.5449 97.9375ZM53.5449 96.3921C53.6849 96.3921 53.8053 96.3587 53.9062 96.292C54.0072 96.2236 54.0845 96.13 54.1382 96.0112C54.1935 95.8924 54.2212 95.7541 54.2212 95.5962V95.5913C54.2212 95.4334 54.1935 95.2951 54.1382 95.1763C54.0845 95.0558 54.0072 94.9622 53.9062 94.8955C53.8053 94.8271 53.6849 94.793 53.5449 94.793C53.4033 94.793 53.2829 94.8271 53.1836 94.8955C53.0859 94.9622 53.0111 95.0558 52.959 95.1763C52.9085 95.2951 52.8833 95.4334 52.8833 95.5913V95.5962C52.8833 95.7524 52.9085 95.8908 52.959 96.0112C53.0111 96.13 53.0859 96.2236 53.1836 96.292C53.2829 96.3587 53.4033 96.3921 53.5449 96.3921Z" fill="black" fill-opacity="0.54"/>
<path d="M112 93L114 95L112 97" stroke="black" stroke-opacity="0.38" stroke-linecap="round" stroke-linejoin="round"/>
</g>
<defs>
<filter id="filter0_i_12563_3526" x="0" y="15" width="120" height="22" filterUnits="userSpaceOnUse" color-interpolation-filters="sRGB">
<feFlood flood-opacity="0" result="BackgroundImageFix"/>
<feBlend mode="normal" in="SourceGraphic" in2="BackgroundImageFix" result="shape"/>
<feColorMatrix in="SourceAlpha" type="matrix" values="0 0 0 0 0 0 0 0 0 0 0 0 0 0 0 0 0 0 127 0" result="hardAlpha"/>
<feOffset dx="120"/>
<feComposite in2="hardAlpha" operator="arithmetic" k2="-1" k3="1"/>
<feColorMatrix type="matrix" values="0 0 0 0 0.9725 0 0 0 0 0.93125 0 0 0 0 0.8075 0 0 0 1 0"/>
<feBlend mode="normal" in2="shape" result="effect1_innerShadow_12563_3526"/>
</filter>
<filter id="filter1_i_12563_3526" x="0" y="38" width="120" height="22" filterUnits="userSpaceOnUse" color-interpolation-filters="sRGB">
<feFlood flood-opacity="0" result="BackgroundImageFix"/>
<feBlend mode="normal" in="SourceGraphic" in2="BackgroundImageFix" result="shape"/>
<feColorMatrix in="SourceAlpha" type="matrix" values="0 0 0 0 0 0 0 0 0 0 0 0 0 0 0 0 0 0 127 0" result="hardAlpha"/>
<feOffset dx="120"/>
<feComposite in2="hardAlpha" operator="arithmetic" k2="-1" k3="1"/>
<feColorMatrix type="matrix" values="0 0 0 0 0.9725 0 0 0 0 0.93125 0 0 0 0 0.8075 0 0 0 1 0"/>
<feBlend mode="normal" in2="shape" result="effect1_innerShadow_12563_3526"/>
</filter>
<filter id="filter2_i_12563_3526" x="0" y="61" width="120" height="22" filterUnits="userSpaceOnUse" color-interpolation-filters="sRGB">
<feFlood flood-opacity="0" result="BackgroundImageFix"/>
<feBlend mode="normal" in="SourceGraphic" in2="BackgroundImageFix" result="shape"/>
<feColorMatrix in="SourceAlpha" type="matrix" values="0 0 0 0 0 0 0 0 0 0 0 0 0 0 0 0 0 0 127 0" result="hardAlpha"/>
<feOffset dx="82"/>
<feComposite in2="hardAlpha" operator="arithmetic" k2="-1" k3="1"/>
<feColorMatrix type="matrix" values="0 0 0 0 0.9725 0 0 0 0 0.93125 0 0 0 0 0.8075 0 0 0 1 0"/>
<feBlend mode="normal" in2="shape" result="effect1_innerShadow_12563_3526"/>
</filter>
<filter id="filter3_i_12563_3526" x="0" y="84" width="120" height="22" filterUnits="userSpaceOnUse" color-interpolation-filters="sRGB">
<feFlood flood-opacity="0" result="BackgroundImageFix"/>
<feBlend mode="normal" in="SourceGraphic" in2="BackgroundImageFix" result="shape"/>
<feColorMatrix in="SourceAlpha" type="matrix" values="0 0 0 0 0 0 0 0 0 0 0 0 0 0 0 0 0 0 127 0" result="hardAlpha"/>
<feOffset dx="120"/>
<feComposite in2="hardAlpha" operator="arithmetic" k2="-1" k3="1"/>
<feColorMatrix type="matrix" values="0 0 0 0 0.9725 0 0 0 0 0.93125 0 0 0 0 0.8075 0 0 0 1 0"/>
<feBlend mode="normal" in2="shape" result="effect1_innerShadow_12563_3526"/>
</filter>
<clipPath id="clip0_12563_3526">
<path d="M0 19C0 16.7909 1.79086 15 4 15H116C118.209 15 120 16.7909 120 19V33C120 35.2091 118.209 37 116 37H4C1.79086 37 0 35.2091 0 33V19Z" fill="white"/>
</clipPath>
<clipPath id="clip1_12563_3526">
<path d="M0 42C0 39.7909 1.79086 38 4 38H116C118.209 38 120 39.7909 120 42V56C120 58.2091 118.209 60 116 60H4C1.79086 60 0 58.2091 0 56V42Z" fill="white"/>
</clipPath>
<clipPath id="clip2_12563_3526">
<path d="M0 65C0 62.7909 1.79086 61 4 61H116C118.209 61 120 62.7909 120 65V79C120 81.2091 118.209 83 116 83H4C1.79086 83 0 81.2091 0 79V65Z" fill="white"/>
</clipPath>
<clipPath id="clip3_12563_3526">
<path d="M0 88C0 85.7909 1.79086 84 4 84H116C118.209 84 120 85.7909 120 88V102C120 104.209 118.209 106 116 106H4C1.79086 106 0 104.209 0 102V88Z" fill="white"/>
</clipPath>
</defs>
</svg>
